<svg xmlns="http://www.w3.org/2000/svg" viewBox="0 0 100 100"><defs><style>.cls-1{fill:#cc2945;}.cls-2{fill:#d94258;}.cls-3{fill:#d1d7e3;}.cls-4{fill:#e0e4eb;}</style></defs><title>Webfont Grid</title><g id="Layer_48" data-name="Layer 48"><path class="cls-1" d="M96.36,50A46.41,46.41,0,0,1,50,96.35h0V3.65h0A46.41,46.41,0,0,1,96.36,50Z"/><path class="cls-2" d="M3.64,50A46.41,46.41,0,0,0,50,96.35h0V3.65h0A46.41,46.41,0,0,0,3.64,50Z"/><path class="cls-3" d="M50,93h0A43,43,0,0,0,50,7h0V0h0a50,50,0,0,1,50,50v.1a50,50,0,0,1-50,50h0Z"/><path class="cls-4" d="M50,93h0A43,43,0,0,1,50,7h0V0h0A50,50,0,0,0,0,50v.1a50,50,0,0,0,50,50h0Z"/><path class="cls-4" d="M19.21,44.11A2.9,2.9,0,0,0,16.34,47h0v5.87a2.9,2.9,0,0,0,2.87,2.92H50V44.11Z"/><path class="cls-3" d="M81.43,52.91V47a2.89,2.89,0,0,0-2.86-2.93H50V55.83H78.57a2.89,2.89,0,0,0,2.86-2.92Z"/></g></svg>