<svg xmlns="http://www.w3.org/2000/svg" xmlns:xlink="http://www.w3.org/1999/xlink" viewBox="0 0 720.67 723.19"><defs><style>.cls-1{fill:url(#linear-gradient);}.cls-2{isolation:isolate;}.cls-3{mask:url(#mask);}.cls-4{fill:#4f4f4f;}.cls-5{fill:url(#linear-gradient-2);}.cls-6{fill:#2e2e2e;}.cls-7{fill:#f4f4f4;opacity:0.2;}.cls-8{fill:url(#linear-gradient-3);}.cls-11,.cls-14,.cls-16,.cls-19,.cls-21,.cls-24,.cls-26,.cls-29,.cls-31,.cls-34,.cls-36,.cls-39,.cls-41,.cls-44,.cls-46,.cls-49,.cls-51,.cls-9{mix-blend-mode:color-dodge;}.cls-9{fill:url(#radial-gradient);}.cls-10{fill:url(#linear-gradient-4);}.cls-11{fill:url(#radial-gradient-2);}.cls-12{fill:url(#linear-gradient-5);}.cls-13{fill:url(#linear-gradient-6);}.cls-14{fill:url(#radial-gradient-3);}.cls-15{fill:url(#linear-gradient-7);}.cls-16{fill:url(#radial-gradient-4);}.cls-17{fill:url(#linear-gradient-8);}.cls-18{fill:url(#linear-gradient-9);}.cls-19{fill:url(#radial-gradient-5);}.cls-20{fill:url(#linear-gradient-10);}.cls-21{fill:url(#radial-gradient-6);}.cls-22{fill:url(#linear-gradient-11);}.cls-23{fill:url(#linear-gradient-12);}.cls-24{fill:url(#radial-gradient-7);}.cls-25{fill:url(#linear-gradient-13);}.cls-26{fill:url(#radial-gradient-8);}.cls-27{fill:url(#linear-gradient-14);}.cls-28{fill:url(#linear-gradient-15);}.cls-29{fill:url(#radial-gradient-9);}.cls-30{fill:url(#linear-gradient-16);}.cls-31{fill:url(#radial-gradient-10);}.cls-32{fill:url(#linear-gradient-17);}.cls-33{fill:url(#linear-gradient-18);}.cls-34{fill:url(#radial-gradient-11);}.cls-35{fill:url(#linear-gradient-19);}.cls-36{fill:url(#radial-gradient-12);}.cls-37{fill:url(#linear-gradient-20);}.cls-38{fill:url(#linear-gradient-21);}.cls-39{fill:url(#radial-gradient-13);}.cls-40{fill:url(#linear-gradient-22);}.cls-41{fill:url(#radial-gradient-14);}.cls-42{fill:url(#linear-gradient-23);}.cls-43{fill:url(#linear-gradient-24);}.cls-44{fill:url(#radial-gradient-15);}.cls-45{fill:url(#linear-gradient-25);}.cls-46{fill:url(#radial-gradient-16);}.cls-47{fill:url(#linear-gradient-26);}.cls-48{fill:url(#linear-gradient-27);}.cls-49{fill:url(#radial-gradient-17);}.cls-50{fill:url(#linear-gradient-28);}.cls-51{fill:url(#radial-gradient-18);}.cls-52{fill:url(#linear-gradient-29);}.cls-53{fill:url(#linear-gradient-30);}.cls-54{fill:url(#linear-gradient-31);}.cls-55{fill:url(#linear-gradient-32);}.cls-56{fill:url(#linear-gradient-33);}.cls-57{fill:url(#linear-gradient-34);}.cls-58{fill:url(#linear-gradient-35);}.cls-59{fill:url(#linear-gradient-36);}</style><linearGradient id="linear-gradient" x1="329.78" y1="677.74" x2="329.78" y2="97.5" gradientTransform="matrix(1, 0, 0, -1, 31.13, 775.24)" gradientUnits="userSpaceOnUse"><stop offset="0"/><stop offset="1" stop-color="#fff"/></linearGradient><mask id="mask" x="213.43" y="97.5" width="294.96" height="580.24" maskUnits="userSpaceOnUse"><rect class="cls-1" x="213.43" y="97.5" width="294.96" height="580.24" transform="translate(721.82 775.24) rotate(-180)"/></mask><linearGradient id="linear-gradient-2" x1="218.19" y1="621.96" x2="326.52" y2="621.96" gradientTransform="matrix(-1, 0, 0, 1, 690.7, 0)" gradientUnits="userSpaceOnUse"><stop offset="0" stop-color="#d1d1d1"/><stop offset="1" stop-color="#4f4f4f"/></linearGradient><linearGradient id="linear-gradient-3" x1="1116.99" y1="600.73" x2="1349.34" y2="531.16" gradientTransform="translate(-720.42)" gradientUnits="userSpaceOnUse"><stop offset="0.04" stop-color="#6c6c6c"/><stop offset="0.28" stop-color="#7b7b7b"/><stop offset="0.76" stop-color="#a4a4a4"/><stop offset="1" stop-color="#bababa"/></linearGradient><radialGradient id="radial-gradient" cx="1159.17" cy="614.86" r="44.54" gradientTransform="translate(-720.42)" gradientUnits="userSpaceOnUse"><stop offset="0" stop-color="#fff"/><stop offset="1"/></radialGradient><linearGradient id="linear-gradient-4" x1="877.56" y1="628.9" x2="1183.16" y2="560.39" xlink:href="#linear-gradient-3"/><radialGradient id="radial-gradient-2" cx="1021.82" cy="600.13" r="52.68" xlink:href="#radial-gradient"/><linearGradient id="linear-gradient-5" x1="215.02" y1="574.87" x2="326.41" y2="574.87" xlink:href="#linear-gradient-2"/><linearGradient id="linear-gradient-6" x1="1118.01" y1="553.04" x2="1356.94" y2="481.49" xlink:href="#linear-gradient-3"/><radialGradient id="radial-gradient-3" cx="1161.38" cy="567.56" r="45.8" xlink:href="#radial-gradient"/><linearGradient id="linear-gradient-7" x1="871.81" y1="582" x2="1186.05" y2="511.56" xlink:href="#linear-gradient-3"/><radialGradient id="radial-gradient-4" cx="1020.15" cy="552.42" r="54.17" xlink:href="#radial-gradient"/><linearGradient id="linear-gradient-8" x1="211.84" y1="527.77" x2="326.31" y2="527.77" xlink:href="#linear-gradient-2"/><linearGradient id="linear-gradient-9" x1="1119.04" y1="505.34" x2="1364.55" y2="431.83" xlink:href="#linear-gradient-3"/><radialGradient id="radial-gradient-5" cx="1163.6" cy="520.27" r="47.06" xlink:href="#radial-gradient"/><linearGradient id="linear-gradient-10" x1="866.06" y1="535.1" x2="1188.95" y2="462.72" xlink:href="#linear-gradient-3"/><radialGradient id="radial-gradient-6" cx="1018.49" cy="504.71" r="55.66" xlink:href="#radial-gradient"/><linearGradient id="linear-gradient-11" x1="208.67" y1="480.68" x2="326.2" y2="480.68" xlink:href="#linear-gradient-2"/><linearGradient id="linear-gradient-12" x1="1120.06" y1="457.65" x2="1372.15" y2="382.17" xlink:href="#linear-gradient-3"/><radialGradient id="radial-gradient-7" cx="1165.82" cy="472.97" r="48.32" xlink:href="#radial-gradient"/><linearGradient id="linear-gradient-13" x1="860.31" y1="488.21" x2="1191.85" y2="413.88" xlink:href="#linear-gradient-3"/><radialGradient id="radial-gradient-8" cx="1016.82" cy="457" r="57.15" xlink:href="#radial-gradient"/><linearGradient id="linear-gradient-14" x1="205.49" y1="433.59" x2="326.09" y2="433.59" xlink:href="#linear-gradient-2"/><linearGradient id="linear-gradient-15" x1="1121.09" y1="409.96" x2="1379.75" y2="332.5" xlink:href="#linear-gradient-3"/><radialGradient id="radial-gradient-9" cx="1168.04" cy="425.68" r="49.58" xlink:href="#radial-gradient"/><linearGradient id="linear-gradient-16" x1="854.56" y1="441.31" x2="1194.75" y2="365.05" xlink:href="#linear-gradient-3"/><radialGradient id="radial-gradient-10" cx="1015.15" cy="409.29" r="58.64" xlink:href="#radial-gradient"/><linearGradient id="linear-gradient-17" x1="202.32" y1="386.49" x2="325.98" y2="386.49" xlink:href="#linear-gradient-2"/><linearGradient id="linear-gradient-18" x1="1122.11" y1="362.26" x2="1387.35" y2="282.84" xlink:href="#linear-gradient-3"/><radialGradient id="radial-gradient-11" cx="1170.26" cy="378.38" r="50.84" xlink:href="#radial-gradient"/><linearGradient id="linear-gradient-19" x1="848.81" y1="394.41" x2="1197.65" y2="316.21" xlink:href="#linear-gradient-3"/><radialGradient id="radial-gradient-12" cx="1013.48" cy="361.58" r="60.13" xlink:href="#radial-gradient"/><linearGradient id="linear-gradient-20" x1="199.14" y1="339.4" x2="325.87" y2="339.4" xlink:href="#linear-gradient-2"/><linearGradient id="linear-gradient-21" x1="1123.14" y1="314.57" x2="1394.95" y2="233.18" xlink:href="#linear-gradient-3"/><radialGradient id="radial-gradient-13" cx="1172.48" cy="331.09" r="52.1" xlink:href="#radial-gradient"/><linearGradient id="linear-gradient-22" x1="843.06" y1="347.51" x2="1200.54" y2="267.38" xlink:href="#linear-gradient-3"/><radialGradient id="radial-gradient-14" cx="1011.82" cy="313.86" r="61.62" xlink:href="#radial-gradient"/><linearGradient id="linear-gradient-23" x1="195.97" y1="292.31" x2="325.76" y2="292.31" xlink:href="#linear-gradient-2"/><linearGradient id="linear-gradient-24" x1="1124.16" y1="266.87" x2="1402.55" y2="183.51" xlink:href="#linear-gradient-3"/><radialGradient id="radial-gradient-15" cx="1174.7" cy="283.79" r="53.36" xlink:href="#radial-gradient"/><linearGradient id="linear-gradient-25" x1="837.31" y1="300.62" x2="1203.44" y2="218.54" xlink:href="#linear-gradient-3"/><radialGradient id="radial-gradient-16" cx="1010.15" cy="266.15" r="63.11" xlink:href="#radial-gradient"/><linearGradient id="linear-gradient-26" x1="192.79" y1="245.21" x2="325.65" y2="245.21" xlink:href="#linear-gradient-2"/><linearGradient id="linear-gradient-27" x1="1125.19" y1="219.18" x2="1410.15" y2="133.85" xlink:href="#linear-gradient-3"/><radialGradient id="radial-gradient-17" cx="1176.92" cy="236.5" r="54.62" xlink:href="#radial-gradient"/><linearGradient id="linear-gradient-28" x1="831.55" y1="253.72" x2="1206.34" y2="169.7" xlink:href="#linear-gradient-3"/><radialGradient id="radial-gradient-18" cx="1008.48" cy="218.44" r="64.61" xlink:href="#radial-gradient"/><linearGradient id="linear-gradient-29" x1="1128.16" y1="202.24" x2="1440.39" y2="108.74" gradientTransform="translate(-720.42)" gradientUnits="userSpaceOnUse"><stop offset="0" stop-color="#4f4f4f"/><stop offset="1" stop-color="#d1d1d1"/></linearGradient><linearGradient id="linear-gradient-30" x1="192.79" y1="195.13" x2="325.65" y2="195.13" xlink:href="#linear-gradient-2"/><linearGradient id="linear-gradient-31" x1="808.96" y1="240.09" x2="1219.67" y2="148.02" xlink:href="#linear-gradient-29"/><linearGradient id="linear-gradient-32" x1="1228.68" y1="-145.99" x2="1069.55" y2="157.28" xlink:href="#linear-gradient-29"/><linearGradient id="linear-gradient-33" x1="7729.53" y1="709.84" x2="7622.86" y2="913.13" gradientTransform="translate(7990.66 1035.48) rotate(180)" xlink:href="#linear-gradient-29"/><linearGradient id="linear-gradient-34" x1="953.58" y1="141.14" x2="1135.42" y2="81.88" xlink:href="#linear-gradient-29"/><linearGradient id="linear-gradient-35" x1="1112.03" y1="117.33" x2="1174.75" y2="89.91" xlink:href="#linear-gradient-29"/><linearGradient id="linear-gradient-36" x1="1080.71" y1="107.59" x2="1080.71" y2="165.22" gradientTransform="translate(-720.42)" gradientUnits="userSpaceOnUse"><stop offset="0" stop-color="#4f4f4f"/><stop offset="0.3" stop-color="#737373"/><stop offset="0.98" stop-color="#cecece"/><stop offset="1" stop-color="#d1d1d1"/></linearGradient></defs><title>Illustrator Worksheets</title><g class="cls-2"><g id="Tower_404" data-name="Tower 404"><g id="Tower_404-2" data-name="Tower 404"><g class="cls-3"><polygon class="cls-4" points="360.5 641.23 360.5 670.17 476.18 602.7 476.18 573.75 360.5 641.23"/><polygon class="cls-5" points="364.17 643.34 472.51 580.15 472.51 600.58 364.17 663.77 364.17 643.34"/><polygon class="cls-6" points="471.28 580.87 471.28 600.17 364.17 662.64 364.17 663.77 472.51 600.58 472.51 580.15 471.28 580.87"/><polygon class="cls-4" points="360.56 641.23 360.56 670.17 244.48 602.5 244.48 573.63 360.56 641.23"/><polygon class="cls-7" points="248.16 600.39 248.16 580.03 356.88 643.34 356.88 663.77 248.16 600.39"/><polygon class="cls-6" points="249.59 599.78 249.59 580.86 248.16 580.03 248.16 600.39 356.88 663.77 356.88 662.32 249.59 599.78"/><polygon class="cls-4" points="244.48 573.63 360.56 641.23 476.18 573.75 359.98 506.08 244.48 573.63"/><polygon class="cls-8" points="360.48 617.33 360.48 636.25 467.98 573.56 467.98 554.64 360.48 617.33"/><polygon class="cls-9" points="360.48 633.27 360.48 636.25 467.98 573.56 467.98 570.58 360.48 633.27"/><polygon class="cls-10" points="360.54 617.33 360.54 636.25 252.69 573.38 252.69 554.53 360.54 617.33"/><polygon class="cls-11" points="360.54 633.27 360.54 636.25 252.69 573.38 252.69 570.46 360.54 633.27"/><polygon class="cls-4" points="360.5 594.68 360.5 624.44 479.46 555.06 479.46 525.29 360.5 594.68"/><polygon class="cls-12" points="364.28 596.85 475.68 531.88 475.68 552.88 364.28 617.86 364.28 596.85"/><polygon class="cls-6" points="474.42 532.61 474.42 552.46 364.28 616.7 364.28 617.86 475.68 552.88 475.68 531.88 474.42 532.61"/><polygon class="cls-4" points="360.56 594.68 360.56 624.44 241.21 554.86 241.21 525.17 360.56 594.68"/><polygon class="cls-7" points="244.99 552.69 244.99 531.75 356.78 596.85 356.78 617.86 244.99 552.69"/><polygon class="cls-6" points="246.46 552.06 246.46 532.61 244.99 531.75 244.99 552.69 356.78 617.86 356.78 616.37 246.46 552.06"/><polygon class="cls-4" points="241.21 525.17 360.56 594.68 479.46 525.29 359.97 455.71 241.21 525.17"/><polygon class="cls-13" points="360.49 570.11 360.49 589.56 471.02 525.09 471.02 505.64 360.49 570.11"/><polygon class="cls-14" points="360.49 586.5 360.49 589.56 471.02 525.09 471.02 522.03 360.49 586.5"/><polygon class="cls-15" points="360.55 570.11 360.55 589.56 249.64 524.91 249.64 505.52 360.55 570.11"/><polygon class="cls-16" points="360.55 586.5 360.55 589.56 249.64 524.91 249.64 521.91 360.55 586.5"/><polygon class="cls-4" points="360.5 548.13 360.5 578.71 482.74 507.42 482.74 476.84 360.5 548.13"/><polygon class="cls-17" points="364.39 550.36 478.86 483.6 478.86 505.19 364.39 571.95 364.39 550.36"/><polygon class="cls-6" points="477.56 484.36 477.56 504.75 364.39 570.76 364.39 571.95 478.86 505.19 478.86 483.6 477.56 484.36"/><polygon class="cls-4" points="360.57 548.13 360.57 578.71 237.93 507.22 237.93 476.71 360.57 548.13"/><polygon class="cls-7" points="241.81 504.98 241.81 483.47 356.69 550.37 356.69 571.95 241.81 504.98"/><polygon class="cls-6" points="243.32 504.33 243.32 484.35 241.81 483.47 241.81 504.98 356.69 571.95 356.69 570.42 243.32 504.33"/><polygon class="cls-4" points="237.93 476.71 360.57 548.13 482.74 476.84 359.96 405.34 237.93 476.71"/><polygon class="cls-18" points="360.49 522.88 360.49 542.88 474.07 476.63 474.07 456.64 360.49 522.88"/><polygon class="cls-19" points="360.49 539.72 360.49 542.88 474.07 476.63 474.07 473.48 360.49 539.72"/><polygon class="cls-20" points="360.56 522.88 360.56 542.88 246.6 476.44 246.6 456.52 360.56 522.88"/><polygon class="cls-21" points="360.56 539.72 360.56 542.88 246.6 476.44 246.6 473.36 360.56 539.72"/><polygon class="cls-4" points="360.51 501.58 360.51 532.98 486.02 459.78 486.02 428.38 360.51 501.58"/><polygon class="cls-22" points="364.5 503.88 482.03 435.32 482.03 457.49 364.5 526.04 364.5 503.88"/><polygon class="cls-6" points="480.7 436.1 480.7 457.04 364.5 524.82 364.5 526.04 482.03 457.49 482.03 435.32 480.7 436.1"/><polygon class="cls-4" points="360.58 501.58 360.58 532.98 234.65 459.57 234.65 428.25 360.58 501.58"/><polygon class="cls-7" points="238.64 457.28 238.64 435.19 356.59 503.88 356.59 526.04 238.64 457.28"/><polygon class="cls-6" points="240.19 456.61 240.19 436.09 238.64 435.19 238.64 457.28 356.59 526.04 356.59 524.47 240.19 456.61"/><polygon class="cls-4" points="234.65 428.25 360.58 501.58 486.02 428.38 359.95 354.96 234.65 428.25"/><polygon class="cls-23" points="360.5 475.66 360.5 496.19 477.12 428.17 477.12 407.64 360.5 475.66"/><polygon class="cls-24" points="360.5 492.95 360.5 496.19 477.12 428.17 477.12 424.93 360.5 492.95"/><polygon class="cls-25" points="360.56 475.66 360.56 496.19 243.55 427.97 243.55 407.52 360.56 475.66"/><polygon class="cls-26" points="360.56 492.95 360.56 496.19 243.55 427.97 243.55 424.81 360.56 492.95"/><polygon class="cls-4" points="360.51 455.03 360.51 487.25 489.3 412.14 489.3 379.92 360.51 455.03"/><polygon class="cls-27" points="364.61 457.39 485.2 387.05 485.2 409.79 364.61 480.13 364.61 457.39"/><polygon class="cls-6" points="483.84 387.84 483.84 409.33 364.61 478.88 364.61 480.13 485.2 409.79 485.2 387.05 483.84 387.84"/><polygon class="cls-4" points="360.58 455.03 360.58 487.25 231.37 411.93 231.37 379.79 360.58 455.03"/><polygon class="cls-7" points="235.46 409.57 235.46 386.91 356.49 457.39 356.49 480.13 235.46 409.57"/><polygon class="cls-6" points="237.06 408.89 237.06 387.84 235.46 386.91 235.46 409.57 356.49 480.13 356.49 478.52 237.06 408.89"/><polygon class="cls-4" points="231.37 379.79 360.58 455.03 489.3 379.92 359.94 304.59 231.37 379.79"/><polygon class="cls-28" points="360.5 428.44 360.5 449.5 480.16 379.7 480.16 358.64 360.5 428.44"/><polygon class="cls-29" points="360.5 446.18 360.5 449.5 480.16 379.7 480.16 376.38 360.5 446.18"/><polygon class="cls-30" points="360.57 428.44 360.57 449.5 240.5 379.5 240.5 358.52 360.57 428.44"/><polygon class="cls-31" points="360.57 446.18 360.57 449.5 240.5 379.5 240.5 376.26 360.57 446.18"/><polygon class="cls-4" points="360.52 408.49 360.52 441.52 492.58 364.5 492.58 331.46 360.52 408.49"/><polygon class="cls-32" points="364.72 410.9 488.38 338.77 488.38 362.09 364.72 434.22 364.72 410.9"/><polygon class="cls-6" points="486.98 339.59 486.98 361.62 364.72 432.93 364.72 434.22 488.38 362.09 488.38 338.77 486.98 339.59"/><polygon class="cls-4" points="360.59 408.49 360.59 441.52 228.09 364.28 228.09 331.33 360.59 408.49"/><polygon class="cls-7" points="232.29 361.87 232.29 338.63 356.39 410.9 356.39 434.22 232.29 361.87"/><polygon class="cls-6" points="233.92 361.17 233.92 339.58 232.29 338.63 232.29 361.87 356.39 434.22 356.39 432.57 233.92 361.17"/><polygon class="cls-4" points="228.09 331.33 360.59 408.49 492.58 331.46 359.93 254.22 228.09 331.33"/><polygon class="cls-33" points="360.5 381.21 360.5 402.81 483.21 331.24 483.21 309.64 360.5 381.21"/><polygon class="cls-34" points="360.5 399.4 360.5 402.81 483.21 331.24 483.21 327.84 360.5 399.4"/><polygon class="cls-35" points="360.57 381.21 360.57 402.81 237.46 331.04 237.46 309.52 360.57 381.21"/><polygon class="cls-36" points="360.57 399.4 360.57 402.81 237.46 331.04 237.46 327.71 360.57 399.4"/><polygon class="cls-4" points="360.52 361.94 360.52 395.8 495.85 316.86 495.85 283 360.52 361.94"/><polygon class="cls-37" points="364.83 364.41 491.55 290.5 491.55 314.39 364.83 388.31 364.83 364.41"/><polygon class="cls-6" points="490.12 291.33 490.12 313.91 364.83 386.99 364.83 388.31 491.55 314.39 491.55 290.5 490.12 291.33"/><polygon class="cls-4" points="360.6 361.94 360.6 395.8 224.81 316.64 224.81 282.87 360.6 361.94"/><polygon class="cls-7" points="229.12 314.17 229.12 290.35 356.29 364.41 356.29 388.31 229.12 314.17"/><polygon class="cls-6" points="230.79 313.45 230.79 291.32 229.12 290.35 229.12 314.17 356.29 388.31 356.29 386.62 230.79 313.45"/><polygon class="cls-4" points="224.81 282.86 360.6 361.94 495.85 283 359.92 203.85 224.81 282.86"/><polygon class="cls-38" points="360.51 333.99 360.51 356.12 486.25 282.78 486.25 260.64 360.51 333.99"/><polygon class="cls-39" points="360.51 352.63 360.51 356.12 486.25 282.78 486.25 279.29 360.51 352.63"/><polygon class="cls-40" points="360.58 333.99 360.58 356.12 234.41 282.57 234.41 260.51 360.58 333.99"/><polygon class="cls-41" points="360.58 352.63 360.58 356.12 234.41 282.57 234.41 279.16 360.58 352.63"/><polygon class="cls-4" points="360.53 315.39 360.53 350.07 499.13 269.22 499.13 234.55 360.53 315.39"/><polygon class="cls-42" points="364.93 317.92 494.73 242.22 494.73 266.69 364.93 342.39 364.93 317.92"/><polygon class="cls-6" points="493.26 243.07 493.26 266.2 364.93 341.05 364.93 342.39 494.73 266.69 494.73 242.22 493.26 243.07"/><polygon class="cls-4" points="360.6 315.39 360.6 350.07 221.53 268.99 221.53 234.4 360.6 315.39"/><polygon class="cls-7" points="225.94 266.46 225.94 242.07 356.2 317.92 356.2 342.4 225.94 266.46"/><polygon class="cls-6" points="227.65 265.73 227.65 243.07 225.94 242.07 225.94 266.46 356.2 342.4 356.2 340.66 227.65 265.73"/><polygon class="cls-4" points="221.53 234.4 360.6 315.39 499.13 234.55 359.91 153.47 221.53 234.4"/><polygon class="cls-43" points="360.51 286.76 360.51 309.43 489.3 234.31 489.3 211.65 360.51 286.76"/><polygon class="cls-44" points="360.51 305.86 360.51 309.43 489.3 234.31 489.3 230.74 360.51 305.86"/><polygon class="cls-45" points="360.58 286.76 360.58 309.43 231.37 234.1 231.37 211.51 360.58 286.76"/><polygon class="cls-46" points="360.58 305.86 360.58 309.43 231.37 234.1 231.37 230.61 360.58 305.86"/><polygon class="cls-4" points="360.53 268.84 360.53 304.34 502.41 221.59 502.41 186.09 360.53 268.84"/><polygon class="cls-47" points="365.04 271.43 497.9 193.94 497.9 218.99 365.04 296.49 365.04 271.43"/><polygon class="cls-6" points="496.4 194.82 496.4 218.49 365.04 295.11 365.04 296.49 497.9 218.99 497.9 193.94 496.4 194.82"/><polygon class="cls-4" points="360.61 268.84 360.61 304.34 218.26 221.35 218.26 185.94 360.61 268.84"/><polygon class="cls-7" points="222.77 218.76 222.77 193.79 356.1 271.43 356.1 296.49 222.77 218.76"/><polygon class="cls-6" points="224.52 218.01 224.52 194.81 222.77 193.79 222.77 218.76 356.1 296.49 356.1 294.71 224.52 218.01"/><polygon class="cls-4" points="218.26 185.94 360.61 268.84 502.41 186.09 359.9 103.1 218.26 185.94"/><polygon class="cls-48" points="360.52 239.54 360.52 262.74 492.35 185.85 492.35 162.65 360.52 239.54"/><polygon class="cls-49" points="360.52 259.08 360.52 262.74 492.35 185.85 492.35 182.19 360.52 259.08"/><polygon class="cls-50" points="360.59 239.54 360.59 262.74 228.32 185.63 228.32 162.51 360.59 239.54"/><polygon class="cls-51" points="360.59 259.08 360.59 262.74 228.32 185.63 228.32 182.06 360.59 259.08"/></g><polygon class="cls-52" points="360.53 218.76 360.53 254.26 502.41 171.5 502.41 136.01 360.53 218.76"/><polygon class="cls-53" points="365.04 221.35 497.9 143.86 497.9 168.91 365.04 246.4 365.04 221.35"/><polygon class="cls-6" points="496.4 144.74 496.4 168.41 365.04 245.03 365.04 246.4 497.9 168.91 497.9 143.86 496.4 144.74"/><polygon class="cls-54" points="360.61 218.76 360.61 254.26 218.26 171.27 218.26 135.86 360.61 218.76"/><polygon class="cls-7" points="222.77 168.68 222.77 143.71 356.1 221.35 356.1 246.41 222.77 168.68"/><polygon class="cls-6" points="224.52 167.93 224.52 144.73 222.77 143.71 222.77 168.68 356.1 246.41 356.1 244.63 224.52 167.93"/><polygon class="cls-55" points="218.26 135.86 360.61 218.76 502.41 136.01 359.9 53.02 218.26 135.86"/><polygon class="cls-56" points="455.94 136.94 360.35 81.28 264.64 136.39 360.34 192.12 455.94 136.94"/><polygon class="cls-57" points="360.4 97.73 360.4 81.31 360.35 81.28 264.64 136.39 278.86 144.67 360.4 97.73"/><polygon class="cls-58" points="360.35 97.73 441.75 145.13 455.94 136.94 360.35 81.28 360.35 97.73"/><polygon class="cls-59" points="310.68 144.47 359.96 173.17 409.91 144.44 360.57 115.71 310.68 144.47"/></g></g></g></svg>