<svg xmlns="http://www.w3.org/2000/svg" xmlns:xlink="http://www.w3.org/1999/xlink" viewBox="0 0 720.67 551.34"><defs><style>.cls-1{fill:url(#linear-gradient);}.cls-2{fill:url(#linear-gradient-2);}.cls-126,.cls-128,.cls-151,.cls-153,.cls-3{isolation:isolate;}.cls-4,.cls-5{fill:none;stroke-linecap:round;stroke-linejoin:round;stroke-width:4px;}.cls-4{stroke:url(#linear-gradient-3);}.cls-5{stroke:url(#linear-gradient-4);}.cls-6{mask:url(#mask);}.cls-7{fill:#394ba4;}.cls-8{fill:url(#linear-gradient-5);}.cls-9{fill:#283034;}.cls-10{fill:#f0f5fc;opacity:0.2;}.cls-11{fill:url(#linear-gradient-6);}.cls-101,.cls-104,.cls-106,.cls-109,.cls-111,.cls-12,.cls-14,.cls-17,.cls-19,.cls-22,.cls-24,.cls-27,.cls-29,.cls-32,.cls-34,.cls-37,.cls-39,.cls-42,.cls-44,.cls-47,.cls-49,.cls-52,.cls-54,.cls-69,.cls-71,.cls-74,.cls-76,.cls-79,.cls-81,.cls-84,.cls-86,.cls-89,.cls-91,.cls-94,.cls-96,.cls-99{mix-blend-mode:color-dodge;}.cls-12{fill:url(#radial-gradient);}.cls-13{fill:url(#linear-gradient-7);}.cls-14{fill:url(#radial-gradient-2);}.cls-15{fill:url(#linear-gradient-8);}.cls-16{fill:url(#linear-gradient-9);}.cls-17{fill:url(#radial-gradient-3);}.cls-18{fill:url(#linear-gradient-10);}.cls-19{fill:url(#radial-gradient-4);}.cls-20{fill:url(#linear-gradient-11);}.cls-21{fill:url(#linear-gradient-12);}.cls-22{fill:url(#radial-gradient-5);}.cls-23{fill:url(#linear-gradient-13);}.cls-24{fill:url(#radial-gradient-6);}.cls-25{fill:url(#linear-gradient-14);}.cls-26{fill:url(#linear-gradient-15);}.cls-27{fill:url(#radial-gradient-7);}.cls-28{fill:url(#linear-gradient-16);}.cls-29{fill:url(#radial-gradient-8);}.cls-30{fill:url(#linear-gradient-17);}.cls-31{fill:url(#linear-gradient-18);}.cls-32{fill:url(#radial-gradient-9);}.cls-33{fill:url(#linear-gradient-19);}.cls-34{fill:url(#radial-gradient-10);}.cls-35{fill:url(#linear-gradient-20);}.cls-36{fill:url(#linear-gradient-21);}.cls-37{fill:url(#radial-gradient-11);}.cls-38{fill:url(#linear-gradient-22);}.cls-39{fill:url(#radial-gradient-12);}.cls-40{fill:url(#linear-gradient-23);}.cls-41{fill:url(#linear-gradient-24);}.cls-42{fill:url(#radial-gradient-13);}.cls-43{fill:url(#linear-gradient-25);}.cls-44{fill:url(#radial-gradient-14);}.cls-45{fill:url(#linear-gradient-26);}.cls-46{fill:url(#linear-gradient-27);}.cls-47{fill:url(#radial-gradient-15);}.cls-48{fill:url(#linear-gradient-28);}.cls-49{fill:url(#radial-gradient-16);}.cls-50{fill:url(#linear-gradient-29);}.cls-51{fill:url(#linear-gradient-30);}.cls-52{fill:url(#radial-gradient-17);}.cls-53{fill:url(#linear-gradient-31);}.cls-54{fill:url(#radial-gradient-18);}.cls-55{fill:url(#linear-gradient-32);}.cls-56{fill:url(#linear-gradient-33);}.cls-57{fill:url(#linear-gradient-34);}.cls-58{fill:url(#linear-gradient-35);}.cls-59{fill:url(#linear-gradient-36);}.cls-60{fill:url(#linear-gradient-37);}.cls-61{fill:url(#linear-gradient-38);}.cls-62{fill:url(#linear-gradient-39);}.cls-120,.cls-63{mix-blend-mode:overlay;}.cls-63{fill:url(#linear-gradient-40);}.cls-64{fill:#f1f2f2;}.cls-65{fill:url(#linear-gradient-41);}.cls-66{mask:url(#mask-2);}.cls-67{fill:url(#linear-gradient-42);}.cls-68{fill:url(#linear-gradient-43);}.cls-69{fill:url(#radial-gradient-19);}.cls-70{fill:url(#linear-gradient-44);}.cls-71{fill:url(#radial-gradient-20);}.cls-72{fill:url(#linear-gradient-45);}.cls-73{fill:url(#linear-gradient-46);}.cls-74{fill:url(#radial-gradient-21);}.cls-75{fill:url(#linear-gradient-47);}.cls-76{fill:url(#radial-gradient-22);}.cls-77{fill:url(#linear-gradient-48);}.cls-78{fill:url(#linear-gradient-49);}.cls-79{fill:url(#radial-gradient-23);}.cls-80{fill:url(#linear-gradient-50);}.cls-81{fill:url(#radial-gradient-24);}.cls-82{fill:url(#linear-gradient-51);}.cls-83{fill:url(#linear-gradient-52);}.cls-84{fill:url(#radial-gradient-25);}.cls-85{fill:url(#linear-gradient-53);}.cls-86{fill:url(#radial-gradient-26);}.cls-87{fill:url(#linear-gradient-54);}.cls-88{fill:url(#linear-gradient-55);}.cls-89{fill:url(#radial-gradient-27);}.cls-90{fill:url(#linear-gradient-56);}.cls-91{fill:url(#radial-gradient-28);}.cls-92{fill:url(#linear-gradient-57);}.cls-93{fill:url(#linear-gradient-58);}.cls-94{fill:url(#radial-gradient-29);}.cls-95{fill:url(#linear-gradient-59);}.cls-96{fill:url(#radial-gradient-30);}.cls-97{fill:url(#linear-gradient-60);}.cls-98{fill:url(#linear-gradient-61);}.cls-99{fill:url(#radial-gradient-31);}.cls-100{fill:url(#linear-gradient-62);}.cls-101{fill:url(#radial-gradient-32);}.cls-102{fill:url(#linear-gradient-63);}.cls-103{fill:url(#linear-gradient-64);}.cls-104{fill:url(#radial-gradient-33);}.cls-105{fill:url(#linear-gradient-65);}.cls-106{fill:url(#radial-gradient-34);}.cls-107{fill:url(#linear-gradient-66);}.cls-108{fill:url(#linear-gradient-67);}.cls-109{fill:url(#radial-gradient-35);}.cls-110{fill:url(#linear-gradient-68);}.cls-111{fill:url(#radial-gradient-36);}.cls-112{fill:url(#linear-gradient-69);}.cls-113{fill:url(#linear-gradient-70);}.cls-114{fill:url(#linear-gradient-71);}.cls-115{fill:url(#linear-gradient-72);}.cls-116{fill:url(#linear-gradient-73);}.cls-117{fill:url(#linear-gradient-74);}.cls-118{fill:url(#linear-gradient-75);}.cls-119{fill:url(#linear-gradient-76);}.cls-120{fill:url(#linear-gradient-77);}.cls-121{fill:url(#linear-gradient-78);}.cls-122{fill:url(#linear-gradient-79);}.cls-123{fill:url(#linear-gradient-80);}.cls-124{fill:url(#linear-gradient-81);}.cls-125{fill:url(#linear-gradient-82);}.cls-126,.cls-128,.cls-151,.cls-153{opacity:0.85;}.cls-126{fill:url(#linear-gradient-83);}.cls-127{fill:url(#linear-gradient-84);}.cls-128{fill:url(#linear-gradient-85);}.cls-129{fill:url(#linear-gradient-86);}.cls-130{fill:url(#linear-gradient-87);}.cls-131{fill:url(#linear-gradient-88);}.cls-132{fill:url(#linear-gradient-89);}.cls-133{fill:url(#linear-gradient-90);}.cls-134{fill:url(#linear-gradient-91);}.cls-135{fill:url(#linear-gradient-92);}.cls-136{fill:url(#linear-gradient-93);}.cls-137{fill:url(#linear-gradient-94);}.cls-138{fill:url(#linear-gradient-95);}.cls-139{fill:url(#linear-gradient-96);}.cls-140{fill:url(#linear-gradient-97);}.cls-141{fill:url(#linear-gradient-98);}.cls-142{fill:url(#linear-gradient-99);}.cls-143{fill:url(#linear-gradient-100);}.cls-144{fill:url(#linear-gradient-101);}.cls-145{fill:url(#linear-gradient-102);}.cls-146{fill:url(#linear-gradient-103);}.cls-147{fill:url(#linear-gradient-104);}.cls-148{fill:url(#linear-gradient-105);}.cls-149{fill:url(#linear-gradient-106);}.cls-150{fill:url(#linear-gradient-107);}.cls-151{fill:url(#linear-gradient-108);}.cls-152{fill:url(#linear-gradient-109);}.cls-153{fill:url(#linear-gradient-110);}.cls-154{fill:url(#linear-gradient-111);}.cls-155{fill:url(#linear-gradient-112);}.cls-156{fill:url(#linear-gradient-113);}.cls-157{fill:url(#linear-gradient-114);}.cls-158{fill:url(#linear-gradient-115);}.cls-159{fill:url(#linear-gradient-116);}.cls-160{fill:url(#linear-gradient-117);}.cls-161{fill:url(#linear-gradient-118);}.cls-162{fill:url(#linear-gradient-119);}.cls-163{fill:url(#linear-gradient-120);}.cls-164{fill:url(#linear-gradient-121);}.cls-165{fill:url(#linear-gradient-122);}.cls-166{fill:url(#linear-gradient-123);}.cls-167{fill:url(#linear-gradient-124);}.cls-168{fill:url(#linear-gradient-125);}.cls-169{fill:url(#linear-gradient-126);}.cls-170{fill:url(#linear-gradient-127);}.cls-171{fill:url(#linear-gradient-128);}.cls-172{fill:url(#linear-gradient-129);}.cls-173{fill:url(#linear-gradient-130);}.cls-174{fill:url(#linear-gradient-131);}.cls-175{fill:url(#linear-gradient-132);}.cls-176{fill:url(#linear-gradient-133);}.cls-177{fill:url(#linear-gradient-134);}.cls-178{fill:url(#linear-gradient-135);}.cls-179{fill:url(#linear-gradient-136);}.cls-180{fill:url(#linear-gradient-137);}.cls-181{fill:url(#linear-gradient-138);}.cls-182{fill:url(#linear-gradient-139);}.cls-183{fill:url(#linear-gradient-140);}.cls-184{fill:url(#linear-gradient-141);}.cls-185{fill:url(#linear-gradient-142);}.cls-186{fill:url(#linear-gradient-143);}.cls-187{fill:url(#linear-gradient-144);}.cls-188{fill:url(#linear-gradient-145);}.cls-189{fill:url(#linear-gradient-146);}.cls-190{fill:url(#linear-gradient-147);}.cls-191{fill:url(#linear-gradient-148);}.cls-192{fill:url(#linear-gradient-149);}.cls-193{fill:url(#linear-gradient-150);}.cls-194{fill:url(#linear-gradient-151);}.cls-195{fill:url(#linear-gradient-152);}.cls-196{fill:url(#linear-gradient-153);}.cls-197{fill:url(#linear-gradient-154);}.cls-198{fill:url(#linear-gradient-155);}.cls-199{fill:url(#linear-gradient-156);}.cls-200{fill:url(#linear-gradient-157);}.cls-201{fill:url(#linear-gradient-158);}.cls-202{fill:url(#linear-gradient-159);}.cls-203{fill:url(#linear-gradient-160);}</style><linearGradient id="linear-gradient" x1="580.83" y1="519.17" x2="580.83" y2="279.17" gradientUnits="userSpaceOnUse"><stop offset="0"/><stop offset="1" stop-color="#fff"/></linearGradient><linearGradient id="linear-gradient-2" x1="2116.94" y1="522.03" x2="2116.94" y2="282.03" gradientTransform="matrix(1, 0, 0, -1, -2015.82, 804.06)" xlink:href="#linear-gradient"/><linearGradient id="linear-gradient-3" x1="390.83" y1="471.17" x2="390.83" y2="109.17" gradientUnits="userSpaceOnUse"><stop offset="0" stop-color="#fff" stop-opacity="0"/><stop offset="0.3" stop-color="#6dffe8"/><stop offset="0.68" stop-color="#6dffe8"/><stop offset="1" stop-color="#fff" stop-opacity="0"/></linearGradient><linearGradient id="linear-gradient-4" x1="-1098.82" y1="-7601.61" x2="-1098.82" y2="-7783.8" gradientTransform="translate(4979.92 -5909.87) rotate(-135)" xlink:href="#linear-gradient-3"/><mask id="mask" x="519.83" y="279.17" width="122" height="240" maskUnits="userSpaceOnUse"><rect class="cls-1" x="519.83" y="279.17" width="122" height="240"/></mask><linearGradient id="linear-gradient-5" x1="534.68" y1="496.1" x2="579.48" y2="496.1" gradientUnits="userSpaceOnUse"><stop offset="0" stop-color="#6dffe8"/><stop offset="1" stop-color="#394ba4"/></linearGradient><linearGradient id="linear-gradient-6" x1="2326.36" y1="487.32" x2="2422.47" y2="458.54" gradientTransform="matrix(-1, 0, 0, 1, 2892.45, 0)" gradientUnits="userSpaceOnUse"><stop offset="0.04" stop-color="#138bbd"/><stop offset="0.23" stop-color="#169ac7"/><stop offset="0.59" stop-color="#1fc3df"/><stop offset="1" stop-color="#2af6ff"/></linearGradient><radialGradient id="radial-gradient" cx="2343.81" cy="493.16" r="18.42" gradientTransform="matrix(-1, 0, 0, 1, 2892.45, 0)" gradientUnits="userSpaceOnUse"><stop offset="0" stop-color="#fff"/><stop offset="1"/></radialGradient><linearGradient id="linear-gradient-7" x1="2227.33" y1="498.97" x2="2353.73" y2="470.64" xlink:href="#linear-gradient-6"/><radialGradient id="radial-gradient-2" cx="2287" cy="487.07" r="21.79" xlink:href="#radial-gradient"/><linearGradient id="linear-gradient-8" x1="533.36" y1="476.62" x2="579.44" y2="476.62" xlink:href="#linear-gradient-5"/><linearGradient id="linear-gradient-9" x1="2326.78" y1="467.59" x2="2425.61" y2="438" xlink:href="#linear-gradient-6"/><radialGradient id="radial-gradient-3" cx="2344.73" cy="473.6" r="18.94" xlink:href="#radial-gradient"/><linearGradient id="linear-gradient-10" x1="2224.95" y1="479.57" x2="2354.93" y2="450.44" xlink:href="#linear-gradient-6"/><radialGradient id="radial-gradient-4" cx="2286.31" cy="467.34" r="22.41" xlink:href="#radial-gradient"/><linearGradient id="linear-gradient-11" x1="532.05" y1="457.14" x2="579.39" y2="457.14" xlink:href="#linear-gradient-5"/><linearGradient id="linear-gradient-12" x1="2327.21" y1="447.87" x2="2428.76" y2="417.46" xlink:href="#linear-gradient-6"/><radialGradient id="radial-gradient-5" cx="2345.64" cy="454.04" r="19.46" xlink:href="#radial-gradient"/><linearGradient id="linear-gradient-13" x1="2222.57" y1="460.18" x2="2356.13" y2="430.24" xlink:href="#linear-gradient-6"/><radialGradient id="radial-gradient-6" cx="2285.62" cy="447.6" r="23.02" xlink:href="#radial-gradient"/><linearGradient id="linear-gradient-14" x1="530.74" y1="437.67" x2="579.35" y2="437.67" xlink:href="#linear-gradient-5"/><linearGradient id="linear-gradient-15" x1="2327.63" y1="428.14" x2="2431.9" y2="396.92" xlink:href="#linear-gradient-6"/><radialGradient id="radial-gradient-7" cx="2346.56" cy="434.48" r="19.99" xlink:href="#radial-gradient"/><linearGradient id="linear-gradient-16" x1="2220.19" y1="440.78" x2="2357.33" y2="410.04" xlink:href="#linear-gradient-6"/><radialGradient id="radial-gradient-8" cx="2284.93" cy="427.87" r="23.64" xlink:href="#radial-gradient"/><linearGradient id="linear-gradient-17" x1="529.42" y1="418.19" x2="579.3" y2="418.19" xlink:href="#linear-gradient-5"/><linearGradient id="linear-gradient-18" x1="2328.06" y1="408.41" x2="2435.05" y2="376.38" xlink:href="#linear-gradient-6"/><radialGradient id="radial-gradient-9" cx="2347.48" cy="414.91" r="20.51" xlink:href="#radial-gradient"/><linearGradient id="linear-gradient-19" x1="2217.81" y1="421.38" x2="2358.52" y2="389.84" xlink:href="#linear-gradient-6"/><radialGradient id="radial-gradient-10" cx="2284.24" cy="408.14" r="24.26" xlink:href="#radial-gradient"/><linearGradient id="linear-gradient-20" x1="528.11" y1="398.71" x2="579.26" y2="398.71" xlink:href="#linear-gradient-5"/><linearGradient id="linear-gradient-21" x1="2328.48" y1="388.68" x2="2438.19" y2="355.83" xlink:href="#linear-gradient-6"/><radialGradient id="radial-gradient-11" cx="2348.4" cy="395.35" r="21.03" xlink:href="#radial-gradient"/><linearGradient id="linear-gradient-22" x1="2215.44" y1="401.98" x2="2359.72" y2="369.64" xlink:href="#linear-gradient-6"/><radialGradient id="radial-gradient-12" cx="2283.55" cy="388.4" r="24.87" xlink:href="#radial-gradient"/><linearGradient id="linear-gradient-23" x1="526.8" y1="379.23" x2="579.21" y2="379.23" xlink:href="#linear-gradient-5"/><linearGradient id="linear-gradient-24" x1="2328.91" y1="368.96" x2="2441.33" y2="335.29" xlink:href="#linear-gradient-6"/><radialGradient id="radial-gradient-13" cx="2349.31" cy="375.79" r="21.55" xlink:href="#radial-gradient"/><linearGradient id="linear-gradient-25" x1="2213.06" y1="382.58" x2="2360.92" y2="349.44" xlink:href="#linear-gradient-6"/><radialGradient id="radial-gradient-14" cx="2282.86" cy="368.67" r="25.49" xlink:href="#radial-gradient"/><linearGradient id="linear-gradient-26" x1="525.48" y1="359.75" x2="579.17" y2="359.75" xlink:href="#linear-gradient-5"/><linearGradient id="linear-gradient-27" x1="2329.33" y1="349.23" x2="2444.48" y2="314.75" xlink:href="#linear-gradient-6"/><radialGradient id="radial-gradient-15" cx="2350.23" cy="356.23" r="22.07" xlink:href="#radial-gradient"/><linearGradient id="linear-gradient-28" x1="2210.68" y1="363.19" x2="2362.12" y2="329.24" xlink:href="#linear-gradient-6"/><radialGradient id="radial-gradient-16" cx="2282.17" cy="348.93" r="26.11" xlink:href="#radial-gradient"/><linearGradient id="linear-gradient-29" x1="524.17" y1="340.27" x2="579.12" y2="340.27" xlink:href="#linear-gradient-5"/><linearGradient id="linear-gradient-30" x1="2329.75" y1="329.5" x2="2447.62" y2="294.21" xlink:href="#linear-gradient-6"/><radialGradient id="radial-gradient-17" cx="2351.15" cy="336.67" r="22.59" xlink:href="#radial-gradient"/><linearGradient id="linear-gradient-31" x1="2208.3" y1="343.79" x2="2363.32" y2="309.04" xlink:href="#linear-gradient-6"/><radialGradient id="radial-gradient-18" cx="2281.48" cy="329.2" r="26.72" xlink:href="#radial-gradient"/><linearGradient id="linear-gradient-32" x1="2330.98" y1="322.5" x2="2460.13" y2="283.82" gradientTransform="matrix(-1, 0, 0, 1, 2892.45, 0)" gradientUnits="userSpaceOnUse"><stop offset="0" stop-color="#394ba4"/><stop offset="1" stop-color="#6dffe8"/></linearGradient><linearGradient id="linear-gradient-33" x1="524.17" y1="319.56" x2="579.12" y2="319.56" xlink:href="#linear-gradient-5"/><linearGradient id="linear-gradient-34" x1="2198.95" y1="338.15" x2="2368.83" y2="300.07" xlink:href="#linear-gradient-32"/><linearGradient id="linear-gradient-35" x1="2372.56" y1="178.46" x2="2306.74" y2="303.9" xlink:href="#linear-gradient-32"/><linearGradient id="linear-gradient-36" x1="7922.07" y1="661.95" x2="7877.95" y2="746.03" gradientTransform="matrix(1, 0, 0, -1, -7299.97, 1035.48)" xlink:href="#linear-gradient-32"/><linearGradient id="linear-gradient-37" x1="2258.77" y1="297.22" x2="2333.98" y2="272.71" xlink:href="#linear-gradient-32"/><linearGradient id="linear-gradient-38" x1="2324.31" y1="287.37" x2="2350.25" y2="276.03" xlink:href="#linear-gradient-32"/><linearGradient id="linear-gradient-39" x1="2311.36" y1="283.35" x2="2311.36" y2="307.18" gradientTransform="matrix(-1, 0, 0, 1, 2892.45, 0)" gradientUnits="userSpaceOnUse"><stop offset="0" stop-color="#394ba4"/><stop offset="0.22" stop-color="#436fb2"/><stop offset="0.72" stop-color="#5ecad4"/><stop offset="1" stop-color="#6dffe8"/></linearGradient><linearGradient id="linear-gradient-40" x1="2311.36" y1="310.48" x2="2311.36" y2="217.01" gradientTransform="matrix(-1, 0, 0, 1, 2892.45, 0)" gradientUnits="userSpaceOnUse"><stop offset="0.28" stop-color="#fff" stop-opacity="0.7"/><stop offset="1" stop-color="#fff" stop-opacity="0"/></linearGradient><linearGradient id="linear-gradient-41" x1="2311.61" y1="310.48" x2="2311.61" y2="192.49" gradientTransform="matrix(-1, 0, 0, 1, 2892.45, 0)" gradientUnits="userSpaceOnUse"><stop offset="0" stop-color="#fff" stop-opacity="0.7"/><stop offset="0.02" stop-color="#f7fffe" stop-opacity="0.69"/><stop offset="0.05" stop-color="#e2fffa" stop-opacity="0.68"/><stop offset="0.08" stop-color="#befff5" stop-opacity="0.66"/><stop offset="0.11" stop-color="#8dffed" stop-opacity="0.62"/><stop offset="0.13" stop-color="#6dffe8" stop-opacity="0.6"/><stop offset="0.32" stop-color="#89ffed" stop-opacity="0.42"/><stop offset="0.51" stop-color="#a4fff1" stop-opacity="0.25"/><stop offset="0.62" stop-color="#bcfff5" stop-opacity="0.18"/><stop offset="0.87" stop-color="#edfffc" stop-opacity="0.05"/><stop offset="1" stop-color="#fff" stop-opacity="0"/></linearGradient><mask id="mask-2" x="40.12" y="282.03" width="122" height="240" maskUnits="userSpaceOnUse"><rect class="cls-2" x="40.12" y="282.03" width="122" height="240" transform="translate(202.24 804.06) rotate(-180)"/></mask><linearGradient id="linear-gradient-42" x1="2070.78" y1="498.96" x2="2115.59" y2="498.96" gradientTransform="matrix(-1, 0, 0, 1, 2218.06, 0)" xlink:href="#linear-gradient-5"/><linearGradient id="linear-gradient-43" x1="790.26" y1="490.18" x2="886.36" y2="461.4" gradientTransform="translate(-674.39)" xlink:href="#linear-gradient-6"/><radialGradient id="radial-gradient-19" cx="807.7" cy="496.02" r="18.42" gradientTransform="translate(-674.39)" xlink:href="#radial-gradient"/><linearGradient id="linear-gradient-44" x1="691.22" y1="501.83" x2="817.62" y2="473.49" gradientTransform="translate(-674.39)" xlink:href="#linear-gradient-6"/><radialGradient id="radial-gradient-20" cx="750.89" cy="489.93" r="21.79" gradientTransform="translate(-674.39)" xlink:href="#radial-gradient"/><linearGradient id="linear-gradient-45" x1="2069.47" y1="479.48" x2="2115.54" y2="479.48" gradientTransform="matrix(-1, 0, 0, 1, 2218.06, 0)" xlink:href="#linear-gradient-5"/><linearGradient id="linear-gradient-46" x1="790.68" y1="470.45" x2="889.51" y2="440.86" gradientTransform="translate(-674.39)" xlink:href="#linear-gradient-6"/><radialGradient id="radial-gradient-21" cx="808.62" cy="476.46" r="18.94" gradientTransform="translate(-674.39)" xlink:href="#radial-gradient"/><linearGradient id="linear-gradient-47" x1="688.84" y1="482.43" x2="818.82" y2="453.29" gradientTransform="translate(-674.39)" xlink:href="#linear-gradient-6"/><radialGradient id="radial-gradient-22" cx="750.2" cy="470.19" r="22.41" gradientTransform="translate(-674.39)" xlink:href="#radial-gradient"/><linearGradient id="linear-gradient-48" x1="2068.15" y1="460" x2="2115.5" y2="460" gradientTransform="matrix(-1, 0, 0, 1, 2218.06, 0)" xlink:href="#linear-gradient-5"/><linearGradient id="linear-gradient-49" x1="791.1" y1="450.72" x2="892.65" y2="420.32" gradientTransform="translate(-674.39)" xlink:href="#linear-gradient-6"/><radialGradient id="radial-gradient-23" cx="809.54" cy="456.89" r="19.46" gradientTransform="translate(-674.39)" xlink:href="#radial-gradient"/><linearGradient id="linear-gradient-50" x1="686.47" y1="463.03" x2="820.02" y2="433.09" gradientTransform="translate(-674.39)" xlink:href="#linear-gradient-6"/><radialGradient id="radial-gradient-24" cx="749.51" cy="450.46" r="23.02" gradientTransform="translate(-674.39)" xlink:href="#radial-gradient"/><linearGradient id="linear-gradient-51" x1="2066.84" y1="440.52" x2="2115.45" y2="440.52" gradientTransform="matrix(-1, 0, 0, 1, 2218.06, 0)" xlink:href="#linear-gradient-5"/><linearGradient id="linear-gradient-52" x1="791.53" y1="430.99" x2="895.8" y2="399.77" gradientTransform="translate(-674.39)" xlink:href="#linear-gradient-6"/><radialGradient id="radial-gradient-25" cx="810.46" cy="437.33" r="19.99" gradientTransform="translate(-674.39)" xlink:href="#radial-gradient"/><linearGradient id="linear-gradient-53" x1="684.09" y1="443.63" x2="821.22" y2="412.89" gradientTransform="translate(-674.39)" xlink:href="#linear-gradient-6"/><radialGradient id="radial-gradient-26" cx="748.82" cy="430.73" r="23.64" gradientTransform="translate(-674.39)" xlink:href="#radial-gradient"/><linearGradient id="linear-gradient-54" x1="2065.53" y1="421.04" x2="2115.41" y2="421.04" gradientTransform="matrix(-1, 0, 0, 1, 2218.06, 0)" xlink:href="#linear-gradient-5"/><linearGradient id="linear-gradient-55" x1="791.95" y1="411.27" x2="898.94" y2="379.23" gradientTransform="translate(-674.39)" xlink:href="#linear-gradient-6"/><radialGradient id="radial-gradient-27" cx="811.37" cy="417.77" r="20.51" gradientTransform="translate(-674.39)" xlink:href="#radial-gradient"/><linearGradient id="linear-gradient-56" x1="681.71" y1="424.24" x2="822.42" y2="392.69" gradientTransform="translate(-674.39)" xlink:href="#linear-gradient-6"/><radialGradient id="radial-gradient-28" cx="748.13" cy="410.99" r="24.26" gradientTransform="translate(-674.39)" xlink:href="#radial-gradient"/><linearGradient id="linear-gradient-57" x1="2064.22" y1="401.56" x2="2115.37" y2="401.56" gradientTransform="matrix(-1, 0, 0, 1, 2218.06, 0)" xlink:href="#linear-gradient-5"/><linearGradient id="linear-gradient-58" x1="792.38" y1="391.54" x2="902.08" y2="358.69" gradientTransform="translate(-674.39)" xlink:href="#linear-gradient-6"/><radialGradient id="radial-gradient-29" cx="812.29" cy="398.21" r="21.03" gradientTransform="translate(-674.39)" xlink:href="#radial-gradient"/><linearGradient id="linear-gradient-59" x1="679.33" y1="404.84" x2="823.62" y2="372.49" gradientTransform="translate(-674.39)" xlink:href="#linear-gradient-6"/><radialGradient id="radial-gradient-30" cx="747.44" cy="391.26" r="24.87" gradientTransform="translate(-674.39)" xlink:href="#radial-gradient"/><linearGradient id="linear-gradient-60" x1="2062.9" y1="382.08" x2="2115.32" y2="382.08" gradientTransform="matrix(-1, 0, 0, 1, 2218.06, 0)" xlink:href="#linear-gradient-5"/><linearGradient id="linear-gradient-61" x1="792.8" y1="371.81" x2="905.23" y2="338.15" gradientTransform="translate(-674.39)" xlink:href="#linear-gradient-6"/><radialGradient id="radial-gradient-31" cx="813.21" cy="378.65" r="21.55" gradientTransform="translate(-674.39)" xlink:href="#radial-gradient"/><linearGradient id="linear-gradient-62" x1="676.95" y1="385.44" x2="824.82" y2="352.29" gradientTransform="translate(-674.39)" xlink:href="#linear-gradient-6"/><radialGradient id="radial-gradient-32" cx="746.76" cy="371.52" r="25.49" gradientTransform="translate(-674.39)" xlink:href="#radial-gradient"/><linearGradient id="linear-gradient-63" x1="2061.59" y1="362.61" x2="2115.28" y2="362.61" gradientTransform="matrix(-1, 0, 0, 1, 2218.06, 0)" xlink:href="#linear-gradient-5"/><linearGradient id="linear-gradient-64" x1="793.22" y1="352.09" x2="908.37" y2="317.61" gradientTransform="translate(-674.39)" xlink:href="#linear-gradient-6"/><radialGradient id="radial-gradient-33" cx="814.13" cy="359.08" r="22.07" gradientTransform="translate(-674.39)" xlink:href="#radial-gradient"/><linearGradient id="linear-gradient-65" x1="674.57" y1="366.04" x2="826.02" y2="332.09" gradientTransform="translate(-674.39)" xlink:href="#linear-gradient-6"/><radialGradient id="radial-gradient-34" cx="746.07" cy="351.79" r="26.11" gradientTransform="translate(-674.39)" xlink:href="#radial-gradient"/><linearGradient id="linear-gradient-66" x1="2060.28" y1="343.13" x2="2115.23" y2="343.13" gradientTransform="matrix(-1, 0, 0, 1, 2218.06, 0)" xlink:href="#linear-gradient-5"/><linearGradient id="linear-gradient-67" x1="793.65" y1="332.36" x2="911.52" y2="297.06" gradientTransform="translate(-674.39)" xlink:href="#linear-gradient-6"/><radialGradient id="radial-gradient-35" cx="815.05" cy="339.52" r="22.59" gradientTransform="translate(-674.39)" xlink:href="#radial-gradient"/><linearGradient id="linear-gradient-68" x1="672.2" y1="346.64" x2="827.21" y2="311.89" gradientTransform="translate(-674.39)" xlink:href="#linear-gradient-6"/><radialGradient id="radial-gradient-36" cx="745.38" cy="332.05" r="26.72" gradientTransform="translate(-674.39)" xlink:href="#radial-gradient"/><linearGradient id="linear-gradient-69" x1="794.88" y1="325.35" x2="924.02" y2="286.68" gradientTransform="translate(-674.39)" xlink:href="#linear-gradient-32"/><linearGradient id="linear-gradient-70" x1="2060.28" y1="322.41" x2="2115.23" y2="322.41" gradientTransform="matrix(-1, 0, 0, 1, 2218.06, 0)" xlink:href="#linear-gradient-5"/><linearGradient id="linear-gradient-71" x1="662.85" y1="341.01" x2="832.73" y2="302.93" gradientTransform="translate(-674.39)" xlink:href="#linear-gradient-32"/><linearGradient id="linear-gradient-72" x1="836.45" y1="181.31" x2="770.63" y2="306.76" gradientTransform="translate(-674.39)" xlink:href="#linear-gradient-32"/><linearGradient id="linear-gradient-73" x1="9458.17" y1="659.09" x2="9414.06" y2="743.17" gradientTransform="translate(9518.02 1035.48) rotate(180)" xlink:href="#linear-gradient-32"/><linearGradient id="linear-gradient-74" x1="722.67" y1="300.08" x2="797.88" y2="275.57" gradientTransform="translate(-674.39)" xlink:href="#linear-gradient-32"/><linearGradient id="linear-gradient-75" x1="788.2" y1="290.23" x2="814.15" y2="278.89" gradientTransform="translate(-674.39)" xlink:href="#linear-gradient-32"/><linearGradient id="linear-gradient-76" x1="775.25" y1="286.2" x2="775.25" y2="310.04" gradientTransform="translate(-674.39)" xlink:href="#linear-gradient-39"/><linearGradient id="linear-gradient-77" x1="775.25" y1="313.33" x2="775.25" y2="219.86" gradientTransform="translate(-674.39)" xlink:href="#linear-gradient-40"/><linearGradient id="linear-gradient-78" x1="775.51" y1="313.33" x2="775.51" y2="195.34" gradientTransform="translate(-674.39)" xlink:href="#linear-gradient-41"/><linearGradient id="linear-gradient-79" x1="2087.72" y1="-8376.7" x2="2372.02" y2="-8376.7" gradientTransform="translate(2571.61 -8066.62) rotate(180)" xlink:href="#linear-gradient-32"/><linearGradient id="linear-gradient-80" x1="2087.71" y1="-8365.12" x2="2371.95" y2="-8365.12" gradientTransform="translate(2571.61 -8066.62) rotate(180)" xlink:href="#linear-gradient-5"/><linearGradient id="linear-gradient-81" x1="2167.24" y1="-8421.16" x2="2085.49" y2="-8421.16" gradientTransform="translate(2571.61 -8066.62) rotate(180)" xlink:href="#linear-gradient-32"/><linearGradient id="linear-gradient-82" x1="-1089.12" y1="-8421.16" x2="-1170.87" y2="-8421.16" gradientTransform="matrix(1, 0, 0, -1, 1370.22, -8066.62)" xlink:href="#linear-gradient-32"/><linearGradient id="linear-gradient-83" x1="2305.48" y1="-8411.03" x2="2325.42" y2="-8445.56" gradientTransform="translate(2571.61 -8066.62) rotate(180)" gradientUnits="userSpaceOnUse"><stop offset="0" stop-color="#fff200"/><stop offset="1" stop-color="#6dffe8" stop-opacity="0"/></linearGradient><linearGradient id="linear-gradient-84" x1="2042.07" y1="-8421.16" x2="1960.32" y2="-8421.16" gradientTransform="translate(2446.44 -8066.62) rotate(180)" xlink:href="#linear-gradient-32"/><linearGradient id="linear-gradient-85" x1="-825.73" y1="-8411.04" x2="-805.78" y2="-8445.57" gradientTransform="matrix(1, 0, 0, -1, 1245.05, -8066.62)" gradientUnits="userSpaceOnUse"><stop offset="0" stop-color="#fff200"/><stop offset="1" stop-color="#6dffe8" stop-opacity="0"/></linearGradient><linearGradient id="linear-gradient-86" x1="2348.93" y1="-8361.06" x2="2317.86" y2="-8361.06" gradientTransform="translate(2571.61 -8066.62) rotate(180)" gradientUnits="userSpaceOnUse"><stop offset="0" stop-color="#a7a9ac"/><stop offset="1" stop-color="#d1d3d4"/></linearGradient><linearGradient id="linear-gradient-87" x1="2325.61" y1="-8357.35" x2="2357.05" y2="-8357.35" gradientTransform="translate(2571.61 -8066.62) rotate(180)" gradientUnits="userSpaceOnUse"><stop offset="0" stop-color="#92278f"/><stop offset="1" stop-color="#662d91"/></linearGradient><linearGradient id="linear-gradient-88" x1="2264.52" y1="-8410.01" x2="2233.44" y2="-8410.01" xlink:href="#linear-gradient-86"/><linearGradient id="linear-gradient-89" x1="2241.19" y1="-8406.29" x2="2272.64" y2="-8406.29" xlink:href="#linear-gradient-87"/><linearGradient id="linear-gradient-90" x1="-839.54" y1="-8362.06" x2="-870.62" y2="-8362.06" gradientTransform="matrix(1, 0, 0, -1, 1299.69, -8066.62)" gradientUnits="userSpaceOnUse"><stop offset="0" stop-color="#d1d3d4"/><stop offset="1" stop-color="#a7a9ac"/></linearGradient><linearGradient id="linear-gradient-91" x1="-862.87" y1="-8358.35" x2="-831.43" y2="-8358.35" gradientTransform="matrix(1, 0, 0, -1, 1299.69, -8066.62)" xlink:href="#linear-gradient-87"/><linearGradient id="linear-gradient-92" x1="-923.95" y1="-8411.01" x2="-955.03" y2="-8411.01" xlink:href="#linear-gradient-90"/><linearGradient id="linear-gradient-93" x1="-947.28" y1="-8407.29" x2="-915.84" y2="-8407.29" gradientTransform="matrix(1, 0, 0, -1, 1299.69, -8066.62)" xlink:href="#linear-gradient-87"/><linearGradient id="linear-gradient-94" x1="2087.72" y1="-8331.7" x2="2372.02" y2="-8331.7" gradientTransform="translate(2571.61 -8066.62) rotate(180)" xlink:href="#linear-gradient-32"/><linearGradient id="linear-gradient-95" x1="2087.71" y1="-8320.12" x2="2371.95" y2="-8320.12" gradientTransform="translate(2571.61 -8066.62) rotate(180)" xlink:href="#linear-gradient-5"/><linearGradient id="linear-gradient-96" x1="2349.93" y1="-8319.06" x2="2318.86" y2="-8319.06" xlink:href="#linear-gradient-86"/><linearGradient id="linear-gradient-97" x1="2326.61" y1="-8315.35" x2="2358.05" y2="-8315.35" xlink:href="#linear-gradient-87"/><linearGradient id="linear-gradient-98" x1="2265.52" y1="-8368.01" x2="2234.44" y2="-8368.01" xlink:href="#linear-gradient-86"/><linearGradient id="linear-gradient-99" x1="2242.19" y1="-8364.29" x2="2273.64" y2="-8364.29" xlink:href="#linear-gradient-87"/><linearGradient id="linear-gradient-100" x1="-839.54" y1="-8319.06" x2="-870.62" y2="-8319.06" xlink:href="#linear-gradient-90"/><linearGradient id="linear-gradient-101" x1="-862.87" y1="-8315.35" x2="-831.43" y2="-8315.35" gradientTransform="matrix(1, 0, 0, -1, 1299.69, -8066.62)" xlink:href="#linear-gradient-87"/><linearGradient id="linear-gradient-102" x1="-923.95" y1="-8368.01" x2="-955.03" y2="-8368.01" xlink:href="#linear-gradient-90"/><linearGradient id="linear-gradient-103" x1="-947.28" y1="-8364.29" x2="-915.84" y2="-8364.29" gradientTransform="matrix(1, 0, 0, -1, 1299.69, -8066.62)" xlink:href="#linear-gradient-87"/><linearGradient id="linear-gradient-104" x1="2087.72" y1="-8289.7" x2="2372.02" y2="-8289.7" gradientTransform="translate(2571.61 -8066.62) rotate(180)" xlink:href="#linear-gradient-32"/><linearGradient id="linear-gradient-105" x1="2087.71" y1="-8278.12" x2="2371.95" y2="-8278.12" gradientTransform="translate(2571.61 -8066.62) rotate(180)" xlink:href="#linear-gradient-5"/><linearGradient id="linear-gradient-106" x1="2167.24" y1="-8334.16" x2="2085.49" y2="-8334.16" gradientTransform="translate(2571.61 -8066.62) rotate(180)" xlink:href="#linear-gradient-32"/><linearGradient id="linear-gradient-107" x1="-1089.12" y1="-8334.16" x2="-1170.87" y2="-8334.16" gradientTransform="matrix(1, 0, 0, -1, 1370.22, -8066.62)" xlink:href="#linear-gradient-32"/><linearGradient id="linear-gradient-108" x1="2305.48" y1="-8324.03" x2="2325.42" y2="-8358.56" gradientTransform="translate(2571.61 -8066.62) rotate(180)" xlink:href="#linear-gradient-85"/><linearGradient id="linear-gradient-109" x1="2042.07" y1="-8334.16" x2="1960.32" y2="-8334.16" gradientTransform="translate(2446.44 -8066.62) rotate(180)" xlink:href="#linear-gradient-32"/><linearGradient id="linear-gradient-110" x1="-825.73" y1="-8324.04" x2="-805.78" y2="-8358.57" xlink:href="#linear-gradient-85"/><linearGradient id="linear-gradient-111" x1="2271.45" y1="-8272.06" x2="2151.5" y2="-8092.53" gradientTransform="translate(2571.61 -8066.62) rotate(180)" gradientUnits="userSpaceOnUse"><stop offset="0" stop-color="#fff200"/><stop offset="1" stop-color="#92278f" stop-opacity="0"/></linearGradient><linearGradient id="linear-gradient-112" x1="2271.45" y1="-8249.06" x2="2151.5" y2="-8069.53" xlink:href="#linear-gradient-111"/><linearGradient id="linear-gradient-113" x1="2271.45" y1="-8226.06" x2="2151.5" y2="-8046.53" xlink:href="#linear-gradient-111"/><linearGradient id="linear-gradient-114" x1="2242.43" y1="-8232.16" x2="2191.12" y2="-8232.16" xlink:href="#linear-gradient-86"/><linearGradient id="linear-gradient-115" x1="2203.89" y1="-8226.07" x2="2255.84" y2="-8226.07" xlink:href="#linear-gradient-87"/><linearGradient id="linear-gradient-116" x1="2261.42" y1="-8223.36" x2="2208.73" y2="-8223.36" gradientTransform="translate(2571.61 -8066.62) rotate(180)" gradientUnits="userSpaceOnUse"><stop offset="0" stop-color="#d1d3d4"/><stop offset="1" stop-color="#f1f2f2"/></linearGradient><linearGradient id="linear-gradient-117" x1="2198.57" y1="-8215.99" x2="2261.24" y2="-8215.99" gradientTransform="translate(2571.61 -8066.62) rotate(180)" xlink:href="#linear-gradient-5"/><linearGradient id="linear-gradient-118" x1="2242.43" y1="-8208.12" x2="2191.12" y2="-8208.12" xlink:href="#linear-gradient-86"/><linearGradient id="linear-gradient-119" x1="2203.89" y1="-8202.04" x2="2255.84" y2="-8202.04" xlink:href="#linear-gradient-87"/><linearGradient id="linear-gradient-120" x1="2261.42" y1="-8199.33" x2="2208.43" y2="-8199.33" xlink:href="#linear-gradient-116"/><linearGradient id="linear-gradient-121" x1="2198.57" y1="-8191.95" x2="2261.24" y2="-8191.95" gradientTransform="translate(2571.61 -8066.62) rotate(180)" xlink:href="#linear-gradient-5"/><linearGradient id="linear-gradient-122" x1="2242.43" y1="-8184.08" x2="2191.12" y2="-8184.08" xlink:href="#linear-gradient-86"/><linearGradient id="linear-gradient-123" x1="2203.89" y1="-8178" x2="2255.84" y2="-8178" xlink:href="#linear-gradient-87"/><linearGradient id="linear-gradient-124" x1="2262.03" y1="-8175.29" x2="2209.1" y2="-8175.29" xlink:href="#linear-gradient-116"/><linearGradient id="linear-gradient-125" x1="2198.57" y1="-8167.92" x2="2261.24" y2="-8167.92" gradientTransform="translate(2571.61 -8066.62) rotate(180)" xlink:href="#linear-gradient-5"/><linearGradient id="linear-gradient-126" x1="2229.9" y1="-8161.8" x2="2229.9" y2="-8182.97" gradientTransform="translate(2571.61 -8066.62) rotate(180)" gradientUnits="userSpaceOnUse"><stop offset="0" stop-color="#511c74"/><stop offset="1" stop-color="#92278f"/></linearGradient><linearGradient id="linear-gradient-127" x1="2229.91" y1="-8177.69" x2="2229.91" y2="-8106.31" gradientTransform="translate(2571.61 -8066.62) rotate(180)" xlink:href="#linear-gradient-85"/><linearGradient id="linear-gradient-128" x1="2243.16" y1="-8304.05" x2="2191.85" y2="-8304.05" xlink:href="#linear-gradient-86"/><linearGradient id="linear-gradient-129" x1="2204.61" y1="-8297.96" x2="2256.57" y2="-8297.96" xlink:href="#linear-gradient-87"/><linearGradient id="linear-gradient-130" x1="2262.15" y1="-8295.25" x2="2209.46" y2="-8295.25" xlink:href="#linear-gradient-116"/><linearGradient id="linear-gradient-131" x1="2199.29" y1="-8287.88" x2="2261.96" y2="-8287.88" gradientTransform="translate(2571.61 -8066.62) rotate(180)" xlink:href="#linear-gradient-5"/><linearGradient id="linear-gradient-132" x1="2243.16" y1="-8280.01" x2="2191.85" y2="-8280.01" xlink:href="#linear-gradient-86"/><linearGradient id="linear-gradient-133" x1="2204.61" y1="-8273.93" x2="2256.57" y2="-8273.93" xlink:href="#linear-gradient-87"/><linearGradient id="linear-gradient-134" x1="2262.15" y1="-8271.22" x2="2209.15" y2="-8271.22" xlink:href="#linear-gradient-116"/><linearGradient id="linear-gradient-135" x1="2199.29" y1="-8263.85" x2="2261.96" y2="-8263.85" gradientTransform="translate(2571.61 -8066.62) rotate(180)" xlink:href="#linear-gradient-5"/><linearGradient id="linear-gradient-136" x1="2243.16" y1="-8255.98" x2="2191.85" y2="-8255.98" xlink:href="#linear-gradient-86"/><linearGradient id="linear-gradient-137" x1="2204.61" y1="-8249.89" x2="2256.57" y2="-8249.89" xlink:href="#linear-gradient-87"/><linearGradient id="linear-gradient-138" x1="2262.76" y1="-8247.18" x2="2209.82" y2="-8247.18" xlink:href="#linear-gradient-116"/><linearGradient id="linear-gradient-139" x1="2199.29" y1="-8239.81" x2="2261.96" y2="-8239.81" gradientTransform="translate(2571.61 -8066.62) rotate(180)" xlink:href="#linear-gradient-5"/><linearGradient id="linear-gradient-140" x1="2230.63" y1="-8233.69" x2="2230.63" y2="-8254.86" xlink:href="#linear-gradient-126"/><linearGradient id="linear-gradient-141" x1="2230.63" y1="-8249.58" x2="2230.63" y2="-8178.21" gradientTransform="translate(2571.61 -8066.62) rotate(180)" xlink:href="#linear-gradient-85"/><linearGradient id="linear-gradient-142" x1="2305.13" y1="-8268.61" x2="2253.82" y2="-8268.61" xlink:href="#linear-gradient-86"/><linearGradient id="linear-gradient-143" x1="2266.63" y1="-8262.53" x2="2318.59" y2="-8262.53" xlink:href="#linear-gradient-87"/><linearGradient id="linear-gradient-144" x1="2324.13" y1="-8259.82" x2="2271.13" y2="-8259.82" xlink:href="#linear-gradient-116"/><linearGradient id="linear-gradient-145" x1="2261.24" y1="-8252.45" x2="2323.9" y2="-8252.45" gradientTransform="translate(2571.61 -8066.62) rotate(180)" xlink:href="#linear-gradient-5"/><linearGradient id="linear-gradient-146" x1="2305.13" y1="-8244.58" x2="2253.82" y2="-8244.58" xlink:href="#linear-gradient-86"/><linearGradient id="linear-gradient-147" x1="2266.63" y1="-8238.49" x2="2318.59" y2="-8238.49" xlink:href="#linear-gradient-87"/><linearGradient id="linear-gradient-148" x1="2324.74" y1="-8235.78" x2="2271.8" y2="-8235.78" xlink:href="#linear-gradient-116"/><linearGradient id="linear-gradient-149" x1="2261.24" y1="-8228.41" x2="2323.9" y2="-8228.41" gradientTransform="translate(2571.61 -8066.62) rotate(180)" xlink:href="#linear-gradient-5"/><linearGradient id="linear-gradient-150" x1="2292.64" y1="-8222.31" x2="2292.64" y2="-8243.48" xlink:href="#linear-gradient-126"/><linearGradient id="linear-gradient-151" x1="2292.58" y1="-8238.19" x2="2292.58" y2="-8166.82" gradientTransform="translate(2571.61 -8066.62) rotate(180)" xlink:href="#linear-gradient-85"/><linearGradient id="linear-gradient-152" x1="2179.73" y1="-8268.61" x2="2128.42" y2="-8268.61" xlink:href="#linear-gradient-86"/><linearGradient id="linear-gradient-153" x1="2141.22" y1="-8262.53" x2="2193.17" y2="-8262.53" xlink:href="#linear-gradient-87"/><linearGradient id="linear-gradient-154" x1="2199.33" y1="-8259.82" x2="2146.39" y2="-8259.82" xlink:href="#linear-gradient-116"/><linearGradient id="linear-gradient-155" x1="2135.82" y1="-8252.45" x2="2198.49" y2="-8252.45" gradientTransform="translate(2571.61 -8066.62) rotate(180)" xlink:href="#linear-gradient-5"/><linearGradient id="linear-gradient-156" x1="2167.23" y1="-8246.34" x2="2167.23" y2="-8267.51" xlink:href="#linear-gradient-126"/><linearGradient id="linear-gradient-157" x1="2167.17" y1="-8262.23" x2="2167.17" y2="-8190.85" gradientTransform="translate(2571.61 -8066.62) rotate(180)" xlink:href="#linear-gradient-85"/><linearGradient id="linear-gradient-158" x1="2252.97" y1="-8284.41" x2="2133.02" y2="-8104.88" xlink:href="#linear-gradient-111"/><linearGradient id="linear-gradient-159" x1="2252.97" y1="-8261.41" x2="2133.02" y2="-8081.88" xlink:href="#linear-gradient-111"/><linearGradient id="linear-gradient-160" x1="2252.97" y1="-8238.41" x2="2133.02" y2="-8058.88" xlink:href="#linear-gradient-111"/></defs><title>Illustrator Worksheets</title><g class="cls-3"><g id="Isometric_Main" data-name="Isometric Main"><g id="Isometric_Main-2" data-name="Isometric Main"><line class="cls-4" x1="81.83" y1="469.17" x2="699.83" y2="111.17"/><line class="cls-5" x1="613.83" y1="477.17" x2="20.83" y2="136.17"/><g class="cls-6"><polygon class="cls-7" points="581.01 504.07 581.01 516.04 533.15 488.13 533.15 476.16 581.01 504.07"/><polygon class="cls-8" points="579.49 504.94 534.68 478.81 534.68 487.26 579.49 513.39 579.49 504.94"/><polygon class="cls-9" points="535.18 479.11 535.18 487.09 579.49 512.93 579.49 513.39 534.68 487.26 534.68 478.81 535.18 479.11"/><polygon class="cls-7" points="580.98 504.07 580.98 516.04 628.99 488.05 628.99 476.11 580.98 504.07"/><polygon class="cls-10" points="627.47 487.18 627.47 478.76 582.5 504.95 582.5 513.39 627.47 487.18"/><polygon class="cls-9" points="626.88 486.93 626.88 479.1 627.47 478.76 627.47 487.18 582.5 513.39 582.5 512.8 626.88 486.93"/><polygon class="cls-7" points="628.99 476.11 580.98 504.07 533.15 476.16 581.22 448.17 628.99 476.11"/><polygon class="cls-11" points="581.01 494.19 581.01 502.01 536.55 476.08 536.55 468.25 581.01 494.19"/><polygon class="cls-12" points="581.01 500.78 581.01 502.01 536.55 476.08 536.55 474.85 581.01 500.78"/><polygon class="cls-13" points="580.99 494.19 580.99 502.01 625.6 476.01 625.6 468.21 580.99 494.19"/><polygon class="cls-14" points="580.99 500.78 580.99 502.01 625.6 476.01 625.6 474.8 580.99 500.78"/><polygon class="cls-7" points="581 484.82 581 497.13 531.8 468.43 531.8 456.12 581 484.82"/><polygon class="cls-15" points="579.44 485.72 533.36 458.84 533.36 467.53 579.44 494.4 579.44 485.72"/><polygon class="cls-9" points="533.88 459.15 533.88 467.36 579.44 493.93 579.44 494.4 533.36 467.53 533.36 458.84 533.88 459.15"/><polygon class="cls-7" points="580.98 484.82 580.98 497.13 630.35 468.35 630.35 456.07 580.98 484.82"/><polygon class="cls-10" points="628.78 467.45 628.78 458.79 582.54 485.72 582.54 494.41 628.78 467.45"/><polygon class="cls-9" points="628.17 467.19 628.17 459.14 628.78 458.79 628.78 467.45 582.54 494.41 582.54 493.79 628.17 467.19"/><polygon class="cls-7" points="630.35 456.07 580.98 484.82 531.8 456.12 581.22 427.34 630.35 456.07"/><polygon class="cls-16" points="581.01 474.65 581.01 482.7 535.29 456.04 535.29 447.99 581.01 474.65"/><polygon class="cls-17" points="581.01 481.43 581.01 482.7 535.29 456.04 535.29 454.77 581.01 481.43"/><polygon class="cls-18" points="580.98 474.65 580.98 482.7 626.86 455.96 626.86 447.94 580.98 474.65"/><polygon class="cls-19" points="580.98 481.43 580.98 482.7 626.86 455.96 626.86 454.72 580.98 481.43"/><polygon class="cls-7" points="581 465.56 581 478.21 530.44 448.73 530.44 436.07 581 465.56"/><polygon class="cls-20" points="579.39 466.49 532.05 438.87 532.05 447.8 579.39 475.42 579.39 466.49"/><polygon class="cls-9" points="532.59 439.19 532.59 447.62 579.39 474.92 579.39 475.42 532.05 447.8 532.05 438.87 532.59 439.19"/><polygon class="cls-7" points="580.97 465.56 580.97 478.21 631.7 448.64 631.7 436.02 580.97 465.56"/><polygon class="cls-10" points="630.1 447.72 630.1 438.82 582.58 466.49 582.58 475.42 630.1 447.72"/><polygon class="cls-9" points="629.47 447.45 629.47 439.18 630.1 438.82 630.1 447.72 582.58 475.42 582.58 474.78 629.47 447.45"/><polygon class="cls-7" points="631.7 436.02 580.97 465.56 530.44 436.07 581.23 406.5 631.7 436.02"/><polygon class="cls-21" points="581.01 455.12 581.01 463.39 534.03 435.99 534.03 427.72 581.01 455.12"/><polygon class="cls-22" points="581.01 462.09 581.01 463.39 534.03 435.99 534.03 434.69 581.01 462.09"/><polygon class="cls-23" points="580.98 455.12 580.98 463.39 628.12 435.91 628.12 427.67 580.98 455.12"/><polygon class="cls-24" points="580.98 462.09 580.98 463.39 628.12 435.91 628.12 434.64 580.98 462.09"/><polygon class="cls-7" points="581 446.31 581 459.3 529.09 429.02 529.09 416.03 581 446.31"/><polygon class="cls-25" points="579.35 447.26 530.74 418.9 530.74 428.07 579.35 456.43 579.35 447.26"/><polygon class="cls-9" points="531.29 419.23 531.29 427.89 579.35 455.92 579.35 456.43 530.74 428.07 530.74 418.9 531.29 419.23"/><polygon class="cls-7" points="580.97 446.31 580.97 459.3 633.06 428.93 633.06 415.98 580.97 446.31"/><polygon class="cls-10" points="631.41 427.99 631.41 418.85 582.62 447.26 582.62 456.43 631.41 427.99"/><polygon class="cls-9" points="630.77 427.71 630.77 419.22 631.41 418.85 631.41 427.99 582.62 456.43 582.62 455.78 630.77 427.71"/><polygon class="cls-7" points="633.06 415.98 580.97 446.31 529.09 416.03 581.23 385.67 633.06 415.98"/><polygon class="cls-26" points="581.01 435.59 581.01 444.08 532.77 415.94 532.77 407.45 581.01 435.59"/><polygon class="cls-27" points="581.01 442.74 581.01 444.08 532.77 415.94 532.77 414.61 581.01 442.74"/><polygon class="cls-28" points="580.98 435.59 580.98 444.08 629.38 415.87 629.38 407.4 580.98 435.59"/><polygon class="cls-29" points="580.98 442.74 580.98 444.08 629.38 415.87 629.38 414.56 580.98 442.74"/><polygon class="cls-7" points="581 427.06 581 440.38 527.73 409.32 527.73 395.99 581 427.06"/><polygon class="cls-30" points="579.3 428.03 529.42 398.94 529.42 408.34 579.3 437.44 579.3 428.03"/><polygon class="cls-9" points="529.99 399.27 529.99 408.15 579.3 436.92 579.3 437.44 529.42 408.34 529.42 398.94 529.99 399.27"/><polygon class="cls-7" points="580.97 427.06 580.97 440.38 634.41 409.23 634.41 395.93 580.97 427.06"/><polygon class="cls-10" points="632.72 408.25 632.72 398.88 582.66 428.03 582.66 437.44 632.72 408.25"/><polygon class="cls-9" points="632.06 407.97 632.06 399.26 632.72 398.88 632.72 408.25 582.66 437.44 582.66 436.77 632.06 407.97"/><polygon class="cls-7" points="634.41 395.93 580.97 427.06 527.73 395.99 581.23 364.83 634.41 395.93"/><polygon class="cls-31" points="581 416.06 581 424.77 531.51 395.9 531.51 387.19 581 416.06"/><polygon class="cls-32" points="581 423.39 581 424.77 531.51 395.9 531.51 394.53 581 423.39"/><polygon class="cls-33" points="580.98 416.06 580.98 424.77 630.64 395.82 630.64 387.14 580.98 416.06"/><polygon class="cls-34" points="580.98 423.39 580.98 424.77 630.64 395.82 630.64 394.48 580.98 423.39"/><polygon class="cls-7" points="581 407.8 581 421.47 526.38 389.61 526.38 375.94 581 407.8"/><polygon class="cls-35" points="579.26 408.8 528.11 378.97 528.11 388.61 579.26 418.45 579.26 408.8"/><polygon class="cls-9" points="528.69 379.31 528.69 388.42 579.26 417.92 579.26 418.45 528.11 388.61 528.11 378.97 528.69 379.31"/><polygon class="cls-7" points="580.97 407.8 580.97 421.47 635.77 389.52 635.77 375.89 580.97 407.8"/><polygon class="cls-10" points="634.03 388.52 634.03 378.91 582.7 408.8 582.7 418.45 634.03 388.52"/><polygon class="cls-9" points="633.36 388.23 633.36 379.3 634.03 378.91 634.03 388.52 582.7 418.45 582.7 417.76 633.36 388.23"/><polygon class="cls-7" points="635.77 375.89 580.97 407.8 526.38 375.94 581.24 344 635.77 375.89"/><polygon class="cls-36" points="581 396.52 581 405.45 530.25 375.85 530.25 366.92 581 396.52"/><polygon class="cls-37" points="581 404.05 581 405.45 530.25 375.85 530.25 374.44 581 404.05"/><polygon class="cls-38" points="580.97 396.52 580.97 405.45 631.9 375.77 631.9 366.87 580.97 396.52"/><polygon class="cls-39" points="580.97 404.05 580.97 405.45 631.9 375.77 631.9 374.39 580.97 404.05"/><polygon class="cls-7" points="581 388.55 581 402.56 525.02 369.91 525.02 355.9 581 388.55"/><polygon class="cls-40" points="579.22 389.57 526.8 359 526.8 368.88 579.22 399.46 579.22 389.57"/><polygon class="cls-9" points="527.39 359.35 527.39 368.69 579.22 398.91 579.22 399.46 526.8 368.88 526.8 359 527.39 359.35"/><polygon class="cls-7" points="580.96 388.55 580.96 402.56 637.13 369.81 637.13 355.84 580.96 388.55"/><polygon class="cls-10" points="635.35 368.79 635.35 358.94 582.74 389.57 582.74 399.46 635.35 368.79"/><polygon class="cls-9" points="634.66 368.5 634.66 359.34 635.35 358.94 635.35 368.79 582.74 399.46 582.74 398.76 634.66 368.5"/><polygon class="cls-7" points="637.13 355.84 580.96 388.55 525.02 355.9 581.24 323.16 637.13 355.84"/><polygon class="cls-41" points="581 376.99 581 386.14 528.99 355.81 528.99 346.65 581 376.99"/><polygon class="cls-42" points="581 384.7 581 386.14 528.99 355.81 528.99 354.37 581 384.7"/><polygon class="cls-43" points="580.97 376.99 580.97 386.14 633.16 355.72 633.16 346.6 580.97 376.99"/><polygon class="cls-44" points="580.97 384.7 580.97 386.14 633.16 355.72 633.16 354.31 580.97 384.7"/><polygon class="cls-7" points="580.99 369.3 580.99 383.64 523.66 350.2 523.66 335.86 580.99 369.3"/><polygon class="cls-45" points="579.17 370.34 525.49 339.03 525.49 349.15 579.17 380.47 579.17 370.34"/><polygon class="cls-9" points="526.09 339.39 526.09 348.95 579.17 379.91 579.17 380.47 525.49 349.15 525.49 339.03 526.09 339.39"/><polygon class="cls-7" points="580.96 369.3 580.96 383.64 638.48 350.11 638.48 335.8 580.96 369.3"/><polygon class="cls-10" points="636.66 349.06 636.66 338.97 582.78 370.35 582.78 380.47 636.66 349.06"/><polygon class="cls-9" points="635.95 348.76 635.95 339.38 636.66 338.97 636.66 349.06 582.78 380.47 582.78 379.75 635.95 348.76"/><polygon class="cls-7" points="638.48 335.8 580.96 369.3 523.66 335.86 581.25 302.32 638.48 335.8"/><polygon class="cls-46" points="581 357.46 581 366.83 527.73 335.76 527.73 326.39 581 357.46"/><polygon class="cls-47" points="581 365.35 581 366.83 527.73 335.76 527.73 334.28 581 365.35"/><polygon class="cls-48" points="580.97 357.46 580.97 366.83 634.42 335.67 634.42 326.33 580.97 357.46"/><polygon class="cls-49" points="580.97 365.35 580.97 366.83 634.42 335.67 634.42 334.23 580.97 365.35"/><polygon class="cls-7" points="580.99 350.04 580.99 364.73 522.31 330.5 522.31 315.81 580.99 350.04"/><polygon class="cls-50" points="579.13 351.12 524.17 319.06 524.17 329.43 579.13 361.48 579.13 351.12"/><polygon class="cls-9" points="524.79 319.43 524.79 329.22 579.13 360.91 579.13 361.48 524.17 329.43 524.17 319.06 524.79 319.43"/><polygon class="cls-7" points="580.96 350.04 580.96 364.73 639.84 330.4 639.84 315.75 580.96 350.04"/><polygon class="cls-10" points="637.97 329.33 637.97 319 582.83 351.12 582.83 361.48 637.97 329.33"/><polygon class="cls-9" points="637.25 329.02 637.25 319.42 637.97 319 637.97 329.33 582.83 361.48 582.83 360.75 637.25 329.02"/><polygon class="cls-7" points="639.84 315.75 580.96 350.04 522.31 315.81 581.25 281.49 639.84 315.75"/><polygon class="cls-51" points="581 337.92 581 347.52 526.47 315.72 526.47 306.12 581 337.92"/><polygon class="cls-52" points="581 346.01 581 347.52 526.47 315.72 526.47 314.2 581 346.01"/><polygon class="cls-53" points="580.97 337.92 580.97 347.52 635.68 315.63 635.68 306.06 580.97 337.92"/><polygon class="cls-54" points="580.97 346.01 580.97 347.52 635.68 315.63 635.68 314.15 580.97 346.01"/></g><polygon class="cls-55" points="580.99 329.33 580.99 344.01 522.31 309.78 522.31 295.1 580.99 329.33"/><polygon class="cls-56" points="579.13 330.4 524.17 298.35 524.17 308.71 579.13 340.76 579.13 330.4"/><polygon class="cls-9" points="524.79 298.71 524.79 308.5 579.13 340.19 579.13 340.76 524.17 308.71 524.17 298.35 524.79 298.71"/><polygon class="cls-57" points="580.96 329.33 580.96 344.01 639.84 309.69 639.84 295.04 580.96 329.33"/><polygon class="cls-10" points="637.97 308.61 637.97 298.29 582.83 330.4 582.83 340.76 637.97 308.61"/><polygon class="cls-9" points="637.25 308.3 637.25 298.71 637.97 298.29 637.97 308.61 582.83 340.76 582.83 340.03 637.25 308.3"/><polygon class="cls-58" points="639.84 295.04 580.96 329.33 522.31 295.1 581.25 260.77 639.84 295.04"/><polygon class="cls-59" points="541.53 295.49 581.07 272.46 620.65 295.26 581.07 318.31 541.53 295.49"/><polygon class="cls-60" points="581.04 279.27 581.04 272.48 581.07 272.46 620.65 295.26 614.77 298.68 581.04 279.27"/><polygon class="cls-61" points="581.07 279.27 547.4 298.87 541.53 295.49 581.07 272.46 581.07 279.27"/><polygon class="cls-62" points="601.61 298.6 581.23 310.47 560.57 298.59 580.97 286.7 601.61 298.6"/><polygon class="cls-63" points="560.57 215.41 580.83 215.17 601.61 215.38 601.61 298.6 581.23 310.48 560.57 298.59 560.57 215.41"/><polygon class="cls-64" points="590.97 304.8 581.23 310.48 571.28 304.75 581.03 299.07 590.97 304.8"/><polygon class="cls-65" points="571.24 190.69 580.83 190.17 590.94 190.68 591.83 304.3 581.23 310.48 569.83 303.92 571.24 190.69"/><g class="cls-66"><polygon class="cls-7" points="100.95 506.93 100.95 518.9 148.8 490.99 148.8 479.02 100.95 506.93"/><polygon class="cls-67" points="102.47 507.8 147.28 481.67 147.28 490.12 102.47 516.25 102.47 507.8"/><polygon class="cls-9" points="146.77 481.96 146.77 489.95 102.47 515.78 102.47 516.25 147.28 490.12 147.28 481.67 146.77 481.96"/><polygon class="cls-7" points="100.97 506.93 100.97 518.9 52.96 490.91 52.96 478.97 100.97 506.93"/><polygon class="cls-10" points="54.48 490.04 54.48 481.61 99.45 507.8 99.45 516.25 54.48 490.04"/><polygon class="cls-9" points="55.07 489.78 55.07 481.96 54.48 481.61 54.48 490.04 99.45 516.25 99.45 515.65 55.07 489.78"/><polygon class="cls-7" points="52.96 478.97 100.97 506.93 148.8 479.02 100.73 451.03 52.96 478.97"/><polygon class="cls-68" points="100.94 497.04 100.94 504.87 145.4 478.94 145.4 471.11 100.94 497.04"/><polygon class="cls-69" points="100.94 503.63 100.94 504.87 145.4 478.94 145.4 477.7 100.94 503.63"/><polygon class="cls-70" points="100.97 497.04 100.97 504.87 56.35 478.86 56.35 471.06 100.97 497.04"/><polygon class="cls-71" points="100.97 503.63 100.97 504.87 56.35 478.86 56.35 477.66 100.97 503.63"/><polygon class="cls-7" points="100.95 487.67 100.95 499.98 150.15 471.28 150.15 458.97 100.95 487.67"/><polygon class="cls-72" points="102.51 488.57 148.59 461.7 148.59 470.38 102.51 497.26 102.51 488.57"/><polygon class="cls-9" points="148.07 462 148.07 470.21 102.51 496.78 102.51 497.26 148.59 470.38 148.59 461.7 148.07 462"/><polygon class="cls-7" points="100.97 487.67 100.97 499.98 51.6 471.2 51.6 458.92 100.97 487.67"/><polygon class="cls-10" points="53.17 470.3 53.17 461.64 99.41 488.57 99.41 497.26 53.17 470.3"/><polygon class="cls-9" points="53.78 470.04 53.78 462 53.17 461.64 53.17 470.3 99.41 497.26 99.41 496.65 53.78 470.04"/><polygon class="cls-7" points="51.6 458.92 100.97 487.67 150.15 458.97 100.73 430.19 51.6 458.92"/><polygon class="cls-73" points="100.94 477.51 100.94 485.56 146.66 458.89 146.66 450.84 100.94 477.51"/><polygon class="cls-74" points="100.94 484.29 100.94 485.56 146.66 458.89 146.66 457.62 100.94 484.29"/><polygon class="cls-75" points="100.97 477.51 100.97 485.56 55.09 458.81 55.09 450.8 100.97 477.51"/><polygon class="cls-76" points="100.97 484.29 100.97 485.56 55.09 458.81 55.09 457.57 100.97 484.29"/><polygon class="cls-7" points="100.95 468.42 100.95 481.07 151.51 451.58 151.51 438.93 100.95 468.42"/><polygon class="cls-77" points="102.56 469.34 149.9 441.73 149.9 450.66 102.56 478.27 102.56 469.34"/><polygon class="cls-9" points="149.37 442.04 149.37 450.48 102.56 477.78 102.56 478.27 149.9 450.66 149.9 441.73 149.37 442.04"/><polygon class="cls-7" points="100.98 468.42 100.98 481.07 50.25 451.5 50.25 438.88 100.98 468.42"/><polygon class="cls-10" points="51.86 450.57 51.86 441.67 99.37 469.34 99.37 478.27 51.86 450.57"/><polygon class="cls-9" points="52.48 450.31 52.48 442.04 51.86 441.67 51.86 450.57 99.37 478.27 99.37 477.64 52.48 450.31"/><polygon class="cls-7" points="50.25 438.88 100.98 468.42 151.51 438.93 100.73 409.36 50.25 438.88"/><polygon class="cls-78" points="100.94 457.98 100.94 466.25 147.92 438.85 147.92 430.58 100.94 457.98"/><polygon class="cls-79" points="100.94 464.94 100.94 466.25 147.92 438.85 147.92 437.54 100.94 464.94"/><polygon class="cls-80" points="100.97 457.98 100.97 466.25 53.84 438.77 53.84 430.53 100.97 457.98"/><polygon class="cls-81" points="100.97 464.94 100.97 466.25 53.84 438.77 53.84 437.49 100.97 464.94"/><polygon class="cls-7" points="100.95 449.17 100.95 462.15 152.87 431.88 152.87 418.89 100.95 449.17"/><polygon class="cls-82" points="102.6 450.12 151.22 421.76 151.22 430.93 102.6 459.28 102.6 450.12"/><polygon class="cls-9" points="150.66 422.08 150.66 430.74 102.6 458.78 102.6 459.28 151.22 430.93 151.22 421.76 150.66 422.08"/><polygon class="cls-7" points="100.98 449.17 100.98 462.15 48.89 431.79 48.89 418.83 100.98 449.17"/><polygon class="cls-10" points="50.54 430.84 50.54 421.7 99.33 450.12 99.33 459.28 50.54 430.84"/><polygon class="cls-9" points="51.19 430.57 51.19 422.08 50.54 421.7 50.54 430.84 99.33 459.28 99.33 458.63 51.19 430.57"/><polygon class="cls-7" points="48.89 418.83 100.98 449.17 152.87 418.89 100.72 388.52 48.89 418.83"/><polygon class="cls-83" points="100.95 438.44 100.95 446.93 149.18 418.8 149.18 410.31 100.95 438.44"/><polygon class="cls-84" points="100.95 445.6 100.95 446.93 149.18 418.8 149.18 417.46 100.95 445.6"/><polygon class="cls-85" points="100.97 438.44 100.97 446.93 52.58 418.72 52.58 410.26 100.97 438.44"/><polygon class="cls-86" points="100.97 445.6 100.97 446.93 52.58 418.72 52.58 417.41 100.97 445.6"/><polygon class="cls-7" points="100.95 429.91 100.95 443.24 154.22 412.17 154.22 398.84 100.95 429.91"/><polygon class="cls-87" points="102.65 430.89 152.53 401.79 152.53 411.2 102.65 440.29 102.65 430.89"/><polygon class="cls-9" points="151.96 402.12 151.96 411.01 102.65 439.77 102.65 440.29 152.53 411.2 152.53 401.79 151.96 402.12"/><polygon class="cls-7" points="100.98 429.91 100.98 443.24 47.54 412.08 47.54 398.79 100.98 429.91"/><polygon class="cls-10" points="49.23 411.11 49.23 401.74 99.29 430.89 99.29 440.29 49.23 411.11"/><polygon class="cls-9" points="49.89 410.83 49.89 402.12 49.23 401.74 49.23 411.11 99.29 440.29 99.29 439.63 49.89 410.83"/><polygon class="cls-7" points="47.54 398.79 100.98 429.91 154.22 398.84 100.72 367.69 47.54 398.79"/><polygon class="cls-88" points="100.95 418.91 100.95 427.62 150.44 398.75 150.44 390.04 100.95 418.91"/><polygon class="cls-89" points="100.95 426.25 100.95 427.62 150.44 398.75 150.44 397.38 100.95 426.25"/><polygon class="cls-90" points="100.97 418.91 100.97 427.62 51.31 398.67 51.31 389.99 100.97 418.91"/><polygon class="cls-91" points="100.97 426.25 100.97 427.62 51.31 398.67 51.31 397.33 100.97 426.25"/><polygon class="cls-7" points="100.95 410.66 100.95 424.32 155.58 392.47 155.58 378.8 100.95 410.66"/><polygon class="cls-92" points="102.69 411.66 153.84 381.82 153.84 391.47 102.69 421.3 102.69 411.66"/><polygon class="cls-9" points="153.26 382.16 153.26 391.28 102.69 420.77 102.69 421.3 153.84 391.47 153.84 381.82 153.26 382.16"/><polygon class="cls-7" points="100.98 410.66 100.98 424.32 46.18 392.38 46.18 378.74 100.98 410.66"/><polygon class="cls-10" points="47.92 391.38 47.92 381.76 99.25 411.66 99.25 421.3 47.92 391.38"/><polygon class="cls-9" points="48.59 391.09 48.59 382.16 47.92 381.76 47.92 391.38 99.25 421.3 99.25 420.62 48.59 391.09"/><polygon class="cls-7" points="46.18 378.74 100.98 410.66 155.58 378.8 100.71 346.85 46.18 378.74"/><polygon class="cls-93" points="100.95 399.38 100.95 408.31 151.7 378.71 151.7 369.78 100.95 399.38"/><polygon class="cls-94" points="100.95 406.9 100.95 408.31 151.7 378.71 151.7 377.3 100.95 406.9"/><polygon class="cls-95" points="100.98 399.38 100.98 408.31 50.05 378.63 50.05 369.72 100.98 399.38"/><polygon class="cls-96" points="100.98 406.9 100.98 408.31 50.05 378.63 50.05 377.25 100.98 406.9"/><polygon class="cls-7" points="100.96 391.41 100.96 405.41 156.93 372.76 156.93 358.76 100.96 391.41"/><polygon class="cls-97" points="102.74 392.43 155.15 361.86 155.15 371.74 102.74 402.31 102.74 392.43"/><polygon class="cls-9" points="154.56 362.2 154.56 371.54 102.74 401.77 102.74 402.31 155.15 371.74 155.15 361.86 154.56 362.2"/><polygon class="cls-7" points="100.99 391.41 100.99 405.41 44.83 372.67 44.83 358.7 100.99 391.41"/><polygon class="cls-10" points="46.6 371.65 46.6 361.8 99.21 392.43 99.21 402.31 46.6 371.65"/><polygon class="cls-9" points="47.3 371.35 47.3 362.2 46.6 361.8 46.6 371.65 99.21 402.31 99.21 401.61 47.3 371.35"/><polygon class="cls-7" points="44.83 358.7 100.99 391.41 156.93 358.76 100.71 326.02 44.83 358.7"/><polygon class="cls-98" points="100.95 379.85 100.95 389 152.96 358.66 152.96 349.51 100.95 379.85"/><polygon class="cls-99" points="100.95 387.56 100.95 389 152.96 358.66 152.96 357.22 100.95 387.56"/><polygon class="cls-100" points="100.98 379.85 100.98 389 48.8 358.58 48.8 349.45 100.98 379.85"/><polygon class="cls-101" points="100.98 387.56 100.98 389 48.8 358.58 48.8 357.17 100.98 387.56"/><polygon class="cls-7" points="100.96 372.15 100.96 386.5 158.29 353.06 158.29 338.71 100.96 372.15"/><polygon class="cls-102" points="102.78 373.2 156.47 341.89 156.47 352.01 102.78 383.32 102.78 373.2"/><polygon class="cls-9" points="155.86 342.24 155.86 351.81 102.78 382.77 102.78 383.32 156.47 352.01 156.47 341.89 155.86 342.24"/><polygon class="cls-7" points="100.99 372.15 100.99 386.5 43.47 352.96 43.47 338.65 100.99 372.15"/><polygon class="cls-10" points="45.29 351.92 45.29 341.83 99.17 373.2 99.17 383.32 45.29 351.92"/><polygon class="cls-9" points="46 351.61 46 342.24 45.29 341.83 45.29 351.92 99.17 383.32 99.17 382.61 46 351.61"/><polygon class="cls-7" points="43.47 338.65 100.99 372.15 158.29 338.71 100.71 305.18 43.47 338.65"/><polygon class="cls-103" points="100.95 360.31 100.95 369.69 154.22 338.62 154.22 329.24 100.95 360.31"/><polygon class="cls-104" points="100.95 368.21 100.95 369.69 154.22 338.62 154.22 337.14 100.95 368.21"/><polygon class="cls-105" points="100.98 360.31 100.98 369.69 47.53 338.53 47.53 329.19 100.98 360.31"/><polygon class="cls-106" points="100.98 368.21 100.98 369.69 47.53 338.53 47.53 337.08 100.98 368.21"/><polygon class="cls-7" points="100.96 352.9 100.96 367.58 159.65 333.35 159.65 318.67 100.96 352.9"/><polygon class="cls-107" points="102.83 353.97 157.78 321.92 157.78 332.28 102.83 364.33 102.83 353.97"/><polygon class="cls-9" points="157.16 322.28 157.16 332.07 102.83 363.76 102.83 364.33 157.78 332.28 157.78 321.92 157.16 322.28"/><polygon class="cls-7" points="100.99 352.9 100.99 367.58 42.11 333.26 42.11 318.61 100.99 352.9"/><polygon class="cls-10" points="43.98 332.18 43.98 321.86 99.13 353.97 99.13 364.33 43.98 332.18"/><polygon class="cls-9" points="44.7 331.87 44.7 322.28 43.98 321.86 43.98 332.18 99.13 364.33 99.13 363.6 44.7 331.87"/><polygon class="cls-7" points="42.11 318.61 100.99 352.9 159.65 318.67 100.7 284.35 42.11 318.61"/><polygon class="cls-108" points="100.95 340.78 100.95 350.38 155.48 318.57 155.48 308.98 100.95 340.78"/><polygon class="cls-109" points="100.95 348.86 100.95 350.38 155.48 318.57 155.48 317.06 100.95 348.86"/><polygon class="cls-110" points="100.98 340.78 100.98 350.38 46.27 318.48 46.27 308.92 100.98 340.78"/><polygon class="cls-111" points="100.98 348.86 100.98 350.38 46.27 318.48 46.27 317 100.98 348.86"/></g><polygon class="cls-112" points="100.96 332.18 100.96 346.87 159.65 312.64 159.65 297.96 100.96 332.18"/><polygon class="cls-113" points="102.83 333.26 157.78 301.2 157.78 311.57 102.83 343.62 102.83 333.26"/><polygon class="cls-9" points="157.16 301.57 157.16 311.36 102.83 343.05 102.83 343.62 157.78 311.57 157.78 301.2 157.16 301.57"/><polygon class="cls-114" points="100.99 332.18 100.99 346.87 42.11 312.54 42.11 297.89 100.99 332.18"/><polygon class="cls-10" points="43.98 311.47 43.98 301.14 99.13 333.26 99.13 343.62 43.98 311.47"/><polygon class="cls-9" points="44.7 311.16 44.7 301.56 43.98 301.14 43.98 311.47 99.13 343.62 99.13 342.88 44.7 311.16"/><polygon class="cls-115" points="42.11 297.89 100.99 332.18 159.65 297.96 100.7 263.63 42.11 297.89"/><polygon class="cls-116" points="140.43 298.34 100.89 275.32 61.3 298.11 100.88 321.17 140.43 298.34"/><polygon class="cls-117" points="100.91 282.12 100.91 275.33 100.89 275.32 61.3 298.11 67.18 301.54 100.91 282.12"/><polygon class="cls-118" points="100.89 282.12 134.55 301.73 140.43 298.34 100.89 275.32 100.89 282.12"/><polygon class="cls-119" points="80.34 301.46 100.72 313.33 121.39 301.44 100.98 289.56 80.34 301.46"/><polygon class="cls-120" points="121.39 218.26 101.12 218.03 80.34 218.23 80.34 301.46 100.73 313.33 121.38 301.44 121.39 218.26"/><polygon class="cls-64" points="90.98 307.65 100.72 313.33 110.68 307.6 100.92 301.92 90.98 307.65"/><polygon class="cls-121" points="110.71 193.54 101.12 193.03 91.02 193.53 90.12 307.15 100.73 313.33 112.12 306.77 110.71 193.54"/><g id="Object"><path class="cls-122" d="M199.59,322.48a11.05,11.05,0,0,0,5.52,9.66l122.22,71a27.61,27.61,0,0,0,27.81.07L478.3,332.14a11,11,0,0,0,5.59-9.59V299.39a11,11,0,0,0-5.52-9.66L350.56,215.44a16.72,16.72,0,0,0-16.7,0L205.11,289.73a11.12,11.12,0,0,0-5.52,9.8C199.66,303.16,199.59,318.77,199.59,322.48Z"/><path class="cls-123" d="M333.86,215.44,205.18,289.73a11.14,11.14,0,0,0,0,19.24L327.4,380a27.61,27.61,0,0,0,27.81.07L478.37,309a11.14,11.14,0,0,0,0-19.24L350.56,215.44A16.72,16.72,0,0,0,333.86,215.44Z"/><path class="cls-124" d="M394.21,366.41a2.8,2.8,0,0,0-1.38,2.4v3.12c0,.87.58,1.24,1.38.8l52-30.06a3.17,3.17,0,0,0,1.38-2.4v-3.12c0-.87-.58-1.24-1.38-.8l-52,30.06"/><path class="cls-7" d="M392.83,368.81v.65l49.81-28.76a3.14,3.14,0,0,0,1.38-2.39v-.65l-49.81,28.75A2.8,2.8,0,0,0,392.83,368.81Z"/><path class="cls-125" d="M291.24,366.41a2.84,2.84,0,0,1,1.38,2.4v3.12c0,.87-.59,1.24-1.38.8l-52-30.06a3.17,3.17,0,0,1-1.38-2.4v-3.12c0-.87.58-1.24,1.38-.8l52,30.06"/><path class="cls-7" d="M292.62,368.81v.65L242.8,340.7a3.14,3.14,0,0,1-1.38-2.39v-.65l49.82,28.75A2.84,2.84,0,0,1,292.62,368.81Z"/><path class="cls-126" d="M214.19,364.09a3,3,0,0,0,1.38,2.39l52,30.07a1,1,0,0,0,1,.07h0l.07-.07.07-.07,23.53-23.61h0a1.16,1.16,0,0,0,.36-.87v-3.12a2.76,2.76,0,0,0-.43-1.45h0a4,4,0,0,0-.94-.95l-52-30.06a1,1,0,0,0-1.16,0h0l-23.6,23.67h0a1.16,1.16,0,0,0-.29.8Z"/><path class="cls-127" d="M394.21,366.41a2.8,2.8,0,0,0-1.38,2.4v3.12c0,.87.58,1.24,1.38.8l52-30.06a3.17,3.17,0,0,0,1.38-2.4v-3.12c0-.87-.58-1.24-1.38-.8l-52,30.06"/><path class="cls-7" d="M392.83,368.81v.65l49.81-28.76a3.14,3.14,0,0,0,1.38-2.39v-.65l-49.81,28.75A2.8,2.8,0,0,0,392.83,368.81Z"/><path class="cls-128" d="M471.25,364.09a3,3,0,0,1-1.38,2.39l-52,30.07a1,1,0,0,1-1,.07h0l-.07-.07-.07-.07-23.53-23.61h0a1.16,1.16,0,0,1-.36-.87v-3.12a2.76,2.76,0,0,1,.43-1.45h0a3.89,3.89,0,0,1,.95-.95l52-30.06a1,1,0,0,1,1.16,0h0L471,360.09h0a1.16,1.16,0,0,1,.29.8Z"/><path class="cls-129" d="M214.53,290.84l.08,7.41h0a1.13,1.13,0,0,0,.58,1.09l13.5,7.84a2.89,2.89,0,0,0,3.05,0l13.66-7.84a1.4,1.4,0,0,0,.58-1.09h0v-7.41a1.14,1.14,0,0,0-.58-1.09l-14.24-8.21a1.65,1.65,0,0,0-1.81,0l-14.23,8.21a1.36,1.36,0,0,0-.59,1.09Z"/><path class="cls-130" d="M229.42,281.54l-14.23,8.21a1.23,1.23,0,0,0,0,2.11l13.5,7.84a2.89,2.89,0,0,0,3.05,0l13.66-7.84a1.23,1.23,0,0,0,0-2.11l-14.16-8.21A2,2,0,0,0,229.42,281.54Z"/><path class="cls-131" d="M299,339.78v7.41h0a1.13,1.13,0,0,0,.58,1.09l13.51,7.84a2.89,2.89,0,0,0,3.05,0l13.65-7.84a1.38,1.38,0,0,0,.58-1.09h0v-7.41a1.15,1.15,0,0,0-.58-1.09l-14.16-8.2a1.67,1.67,0,0,0-1.82,0l-14.23,8.2a1.41,1.41,0,0,0-.58,1.09Z"/><path class="cls-132" d="M313.88,330.49l-14.24,8.2a1.23,1.23,0,0,0,0,2.11l13.51,7.84a2.89,2.89,0,0,0,3.05,0l13.65-7.84a1.23,1.23,0,0,0,0-2.11l-14.16-8.2A2,2,0,0,0,313.88,330.49Z"/><path class="cls-133" d="M468.28,291.84l-.08,7.41h0a1.13,1.13,0,0,1-.58,1.09l-13.5,7.84a2.89,2.89,0,0,1-3.05,0l-13.58-7.84a1.37,1.37,0,0,1-.58-1.09h0v-7.41a1.13,1.13,0,0,1,.58-1.09l14.16-8.21a1.65,1.65,0,0,1,1.81,0l14.24,8.21a1.38,1.38,0,0,1,.58,1.09Z"/><path class="cls-134" d="M453.39,282.62l14.23,8.2a1.23,1.23,0,0,1,0,2.11l-13.5,7.77a2.89,2.89,0,0,1-3.05,0l-13.66-7.84a1.24,1.24,0,0,1,0-2.11l14.16-8.21A1.8,1.8,0,0,1,453.39,282.62Z"/><path class="cls-135" d="M383.82,340.78v7.41h0a1.13,1.13,0,0,1-.58,1.09l-13.51,7.84a2.89,2.89,0,0,1-3.05,0L353,349.28a1.38,1.38,0,0,1-.58-1.09h0v-7.41a1.15,1.15,0,0,1,.58-1.09l14.16-8.2a1.67,1.67,0,0,1,1.82,0l14.23,8.2a1.41,1.41,0,0,1,.58,1.09Z"/><path class="cls-136" d="M368.94,331.49l14.23,8.2a1.23,1.23,0,0,1,0,2.11l-13.51,7.84a2.89,2.89,0,0,1-3.05,0L353,341.8a1.23,1.23,0,0,1,0-2.11l14.16-8.2A2,2,0,0,1,368.94,331.49Z"/><path class="cls-137" d="M199.59,277.48a11.05,11.05,0,0,0,5.52,9.66l122.22,71a27.61,27.61,0,0,0,27.81.07L478.3,287.14a11,11,0,0,0,5.59-9.59V254.39a11,11,0,0,0-5.52-9.66L350.56,170.44a16.72,16.72,0,0,0-16.7,0L205.11,244.73a11.12,11.12,0,0,0-5.52,9.8C199.66,258.16,199.59,273.77,199.59,277.48Z"/><path class="cls-138" d="M333.86,170.44,205.18,244.73a11.14,11.14,0,0,0,0,19.24L327.4,335a27.61,27.61,0,0,0,27.81.07L478.37,264a11.14,11.14,0,0,0,0-19.24L350.56,170.44A16.72,16.72,0,0,0,333.86,170.44Z"/><path class="cls-139" d="M213.53,248.84l.08,7.41h0a1.13,1.13,0,0,0,.58,1.09l13.5,7.84a2.89,2.89,0,0,0,3.05,0l13.66-7.84a1.4,1.4,0,0,0,.58-1.09h0v-7.41a1.14,1.14,0,0,0-.58-1.09l-14.24-8.21a1.65,1.65,0,0,0-1.81,0l-14.23,8.21a1.36,1.36,0,0,0-.59,1.09Z"/><path class="cls-140" d="M228.42,239.54l-14.23,8.21a1.23,1.23,0,0,0,0,2.11l13.5,7.84a2.89,2.89,0,0,0,3.05,0l13.66-7.84a1.23,1.23,0,0,0,0-2.11l-14.16-8.21A2,2,0,0,0,228.42,239.54Z"/><path class="cls-141" d="M298,297.78v7.41h0a1.13,1.13,0,0,0,.58,1.09l13.51,7.84a2.89,2.89,0,0,0,3.05,0l13.65-7.84a1.38,1.38,0,0,0,.58-1.09h0v-7.41a1.15,1.15,0,0,0-.58-1.09l-14.16-8.2a1.67,1.67,0,0,0-1.82,0l-14.23,8.2a1.41,1.41,0,0,0-.58,1.09Z"/><path class="cls-142" d="M312.88,288.49l-14.24,8.2a1.23,1.23,0,0,0,0,2.11l13.51,7.84a2.89,2.89,0,0,0,3.05,0l13.65-7.84a1.23,1.23,0,0,0,0-2.11l-14.16-8.2A2,2,0,0,0,312.88,288.49Z"/><path class="cls-143" d="M468.28,248.84l-.08,7.41h0a1.13,1.13,0,0,1-.58,1.09l-13.5,7.84a2.89,2.89,0,0,1-3.05,0l-13.58-7.84a1.37,1.37,0,0,1-.58-1.09h0v-7.41a1.13,1.13,0,0,1,.58-1.09l14.16-8.21a1.65,1.65,0,0,1,1.81,0l14.24,8.21a1.38,1.38,0,0,1,.58,1.09Z"/><path class="cls-144" d="M453.39,239.62l14.23,8.2a1.23,1.23,0,0,1,0,2.11l-13.5,7.77a2.89,2.89,0,0,1-3.05,0l-13.66-7.84a1.24,1.24,0,0,1,0-2.11l14.16-8.21A1.8,1.8,0,0,1,453.39,239.62Z"/><path class="cls-145" d="M383.82,297.78v7.41h0a1.13,1.13,0,0,1-.58,1.09l-13.51,7.84a2.89,2.89,0,0,1-3.05,0L353,306.28a1.38,1.38,0,0,1-.58-1.09h0v-7.41a1.15,1.15,0,0,1,.58-1.09l14.16-8.2a1.67,1.67,0,0,1,1.82,0l14.23,8.2a1.41,1.41,0,0,1,.58,1.09Z"/><path class="cls-146" d="M368.94,288.49l14.23,8.2a1.23,1.23,0,0,1,0,2.11l-13.51,7.84a2.89,2.89,0,0,1-3.05,0L353,298.8a1.23,1.23,0,0,1,0-2.11l14.16-8.2A2,2,0,0,1,368.94,288.49Z"/><path class="cls-147" d="M199.59,235.48a11.05,11.05,0,0,0,5.52,9.66l122.22,71a27.61,27.61,0,0,0,27.81.07L478.3,245.14a11,11,0,0,0,5.59-9.59V212.39a11,11,0,0,0-5.52-9.66L350.56,128.44a16.72,16.72,0,0,0-16.7,0L205.11,202.73a11.12,11.12,0,0,0-5.52,9.8C199.66,216.16,199.59,231.77,199.59,235.48Z"/><path class="cls-148" d="M333.86,128.44,205.18,202.73a11.14,11.14,0,0,0,0,19.24L327.4,293a27.61,27.61,0,0,0,27.81.07L478.37,222a11.14,11.14,0,0,0,0-19.24L350.56,128.44A16.72,16.72,0,0,0,333.86,128.44Z"/><path class="cls-149" d="M394.21,279.41a2.8,2.8,0,0,0-1.38,2.4v3.12c0,.87.58,1.24,1.38.8l52-30.06a3.17,3.17,0,0,0,1.38-2.4v-3.12c0-.87-.58-1.24-1.38-.8l-52,30.06"/><path class="cls-7" d="M392.83,281.81v.65l49.81-28.76a3.14,3.14,0,0,0,1.38-2.39v-.65l-49.81,28.75A2.8,2.8,0,0,0,392.83,281.81Z"/><path class="cls-150" d="M291.24,279.41a2.84,2.84,0,0,1,1.38,2.4v3.12c0,.87-.59,1.24-1.38.8l-52-30.06a3.17,3.17,0,0,1-1.38-2.4v-3.12c0-.87.58-1.24,1.38-.8l52,30.06"/><path class="cls-7" d="M292.62,281.81v.65L242.8,253.7a3.14,3.14,0,0,1-1.38-2.39v-.65l49.82,28.75A2.84,2.84,0,0,1,292.62,281.81Z"/><path class="cls-151" d="M214.19,277.09a3,3,0,0,0,1.38,2.39l52,30.07a1,1,0,0,0,1,.07h0l.07-.07.07-.07,23.53-23.61h0a1.16,1.16,0,0,0,.36-.87v-3.12a2.76,2.76,0,0,0-.43-1.45h0a4,4,0,0,0-.94-.95l-52-30.06a1,1,0,0,0-1.16,0h0l-23.6,23.67h0a1.16,1.16,0,0,0-.29.8Z"/><path class="cls-152" d="M394.21,279.41a2.8,2.8,0,0,0-1.38,2.4v3.12c0,.87.58,1.24,1.38.8l52-30.06a3.17,3.17,0,0,0,1.38-2.4v-3.12c0-.87-.58-1.24-1.38-.8l-52,30.06"/><path class="cls-7" d="M392.83,281.81v.65l49.81-28.76a3.14,3.14,0,0,0,1.38-2.39v-.65l-49.81,28.75A2.8,2.8,0,0,0,392.83,281.81Z"/><path class="cls-153" d="M471.25,277.09a3,3,0,0,1-1.38,2.39l-52,30.07a1,1,0,0,1-1,.07h0l-.07-.07-.07-.07-23.53-23.61h0a1.16,1.16,0,0,1-.36-.87v-3.12a2.76,2.76,0,0,1,.43-1.45h0a3.89,3.89,0,0,1,.95-.95l52-30.06a1,1,0,0,1,1.16,0h0L471,273.09h0a1.16,1.16,0,0,1,.29.8Z"/><path class="cls-154" d="M334.37,100.24a15.7,15.7,0,0,1,15.69,0l84.27,49V147L351,98.57a17.62,17.62,0,0,0-17.72,0l-94.95,54.79v2.33Z"/><path class="cls-155" d="M334.37,77.24a15.7,15.7,0,0,1,15.69,0l84.27,49V124L351,75.57a17.62,17.62,0,0,0-17.72,0l-94.95,54.79v2.33Z"/><path class="cls-156" d="M334.37,54.24a15.7,15.7,0,0,1,15.69,0l84.27,49V101L351,52.57a17.62,17.62,0,0,0-17.72,0l-94.95,54.79v2.33Z"/><path class="cls-157" d="M315.78,159.59v12.2h0a2,2,0,0,0,1,1.75l22.29,13a5,5,0,0,0,5.08,0l22.51-13a2,2,0,0,0,1-1.75h0v-12.2a2,2,0,0,0-1-1.74l-23.31-13.58a3,3,0,0,0-3.05,0L316.8,157.85a2,2,0,0,0-1,1.74Z"/><path class="cls-158" d="M340.32,144.27,316.8,157.85a2,2,0,0,0,0,3.49l22.29,13a5,5,0,0,0,5.08,0l22.51-13a2,2,0,0,0,0-3.49l-23.31-13.58A3.23,3.23,0,0,0,340.32,144.27Z"/><path class="cls-159" d="M310.41,149.57v14.74h0a2.53,2.53,0,0,0,1.23,2.11l26.94,15.68a6.23,6.23,0,0,0,6.17,0l27.16-15.68a2.45,2.45,0,0,0,1.24-2.11h0V149.57a2.51,2.51,0,0,0-1.24-2.1l-28.17-16.42a3.77,3.77,0,0,0-3.71,0l-28.39,16.42a2.41,2.41,0,0,0-1.23,2.1Z"/><path class="cls-160" d="M340,131.05l-28.39,16.42a2.45,2.45,0,0,0,0,4.21l26.94,15.68a6.23,6.23,0,0,0,6.17,0l27.16-15.68a2.45,2.45,0,0,0,0-4.21l-28.17-16.42A3.77,3.77,0,0,0,340,131.05Z"/><path class="cls-161" d="M315.78,135.56v12.2h0a2,2,0,0,0,1,1.74l22.29,13a5.09,5.09,0,0,0,5.08,0l22.51-13a2,2,0,0,0,1-1.74h0v-12.2a2,2,0,0,0-1-1.75l-23.31-13.58a3.07,3.07,0,0,0-3.05,0L316.8,133.81a2,2,0,0,0-1,1.75Z"/><path class="cls-162" d="M340.32,120.23,316.8,133.81a2,2,0,0,0,0,3.49l22.29,13a5.09,5.09,0,0,0,5.08,0l22.51-13a2,2,0,0,0,0-3.49l-23.31-13.58A3.29,3.29,0,0,0,340.32,120.23Z"/><path class="cls-163" d="M310.41,125.54v14.74h0a2.51,2.51,0,0,0,1.23,2.1l26.94,15.69a6.23,6.23,0,0,0,6.17,0l27.16-15.69a2.42,2.42,0,0,0,1.24-2.1h0V125.54a2.54,2.54,0,0,0-1.24-2.11L343.74,107a3.72,3.72,0,0,0-3.71,0l-28.39,16.41a2.43,2.43,0,0,0-1.23,2.11Z"/><path class="cls-164" d="M340,107l-28.39,16.41a2.45,2.45,0,0,0,0,4.21l26.94,15.69a6.23,6.23,0,0,0,6.17,0l27.16-15.69a2.45,2.45,0,0,0,0-4.21L343.67,107A3.72,3.72,0,0,0,340,107Z"/><path class="cls-165" d="M315.78,111.52v12.2h0a2,2,0,0,0,1,1.74l22.29,13a5.07,5.07,0,0,0,5.08,0l22.51-13a2,2,0,0,0,1-1.74h0v-12.2a2,2,0,0,0-1-1.74L343.37,96.2a3,3,0,0,0-3.05,0L316.8,109.78a2,2,0,0,0-1,1.74Z"/><path class="cls-166" d="M340.32,96.2,316.8,109.78a2,2,0,0,0,0,3.48l22.29,13a5.07,5.07,0,0,0,5.08,0l22.51-13a2,2,0,0,0,0-3.48L343.37,96.2A3.23,3.23,0,0,0,340.32,96.2Z"/><path class="cls-167" d="M310.41,101.5v14.74h0a2.53,2.53,0,0,0,1.23,2.11L338.58,134a6.23,6.23,0,0,0,6.17,0l27.16-15.68a2.45,2.45,0,0,0,1.24-2.11h0V101.5a2.54,2.54,0,0,0-1.24-2.11L343.74,83A3.77,3.77,0,0,0,340,83L311.64,99.39a2.44,2.44,0,0,0-1.23,2.11Z"/><path class="cls-168" d="M340,83,311.57,99.39a2.45,2.45,0,0,0,0,4.21l26.94,15.69a6.23,6.23,0,0,0,6.17,0l27.16-15.69a2.45,2.45,0,0,0,0-4.21L343.67,83A3.77,3.77,0,0,0,340,83Z"/><path class="cls-169" d="M340.83,92.06l-14.3,8.28a1.22,1.22,0,0,0,0,2.1l13.58,7.92a3,3,0,0,0,3.12,0l13.65-7.92a1.22,1.22,0,0,0,0-2.1l-14.16-8.21A2,2,0,0,0,340.83,92.06Z"/><path class="cls-170" d="M326,32.44v68.91h0a1.17,1.17,0,0,0,.58,1.17l13.58,7.91a3,3,0,0,0,3.12,0l13.65-7.91a1.33,1.33,0,0,0,.58-1.17h0V32.44Z"/><path class="cls-171" d="M315.05,231.48v12.2h0a2.06,2.06,0,0,0,1,1.75l22.29,13a5.11,5.11,0,0,0,5.09,0l22.51-13a2.06,2.06,0,0,0,1-1.75h0v-12.2a2,2,0,0,0-1-1.74l-23.31-13.58a3,3,0,0,0-3,0l-23.53,13.58a2,2,0,0,0-1,1.74Z"/><path class="cls-172" d="M339.6,216.16l-23.53,13.58a2,2,0,0,0,0,3.49l22.29,13a5.11,5.11,0,0,0,5.09,0l22.51-13a2,2,0,0,0,0-3.49l-23.31-13.58A3.23,3.23,0,0,0,339.6,216.16Z"/><path class="cls-173" d="M309.68,221.46V236.2h0a2.55,2.55,0,0,0,1.23,2.11L337.86,254a6.28,6.28,0,0,0,6.17,0l27.16-15.69a2.44,2.44,0,0,0,1.23-2.11h0V221.46a2.51,2.51,0,0,0-1.23-2.1L343,203a3.7,3.7,0,0,0-3.7,0l-28.4,16.41a2.43,2.43,0,0,0-1.23,2.1Z"/><path class="cls-174" d="M339.24,203l-28.4,16.41a2.45,2.45,0,0,0,0,4.21l26.94,15.68a6.25,6.25,0,0,0,6.18,0l27.15-15.68a2.45,2.45,0,0,0,0-4.21L342.94,203A3.7,3.7,0,0,0,339.24,203Z"/><path class="cls-175" d="M315.05,207.45v12.2h0a2,2,0,0,0,1,1.74l22.29,13a5.11,5.11,0,0,0,5.09,0l22.51-13a2,2,0,0,0,1-1.74h0v-12.2a2.06,2.06,0,0,0-1-1.75l-23.31-13.57a3,3,0,0,0-3,0L316.07,205.7a2.06,2.06,0,0,0-1,1.75Z"/><path class="cls-176" d="M339.6,192.13,316.07,205.7a2,2,0,0,0,0,3.49l22.29,13a5.11,5.11,0,0,0,5.09,0l22.51-13a2,2,0,0,0,0-3.49l-23.31-13.57A3.23,3.23,0,0,0,339.6,192.13Z"/><path class="cls-177" d="M309.68,197.43v14.74h0a2.52,2.52,0,0,0,1.23,2.1L337.86,230a6.23,6.23,0,0,0,6.17,0l27.16-15.69a2.41,2.41,0,0,0,1.23-2.1h0V197.43a2.53,2.53,0,0,0-1.23-2.11L343,178.91a3.75,3.75,0,0,0-3.7,0l-28.4,16.41a2.46,2.46,0,0,0-1.23,2.11Z"/><path class="cls-178" d="M339.24,178.91l-28.4,16.41a2.45,2.45,0,0,0,0,4.21l26.94,15.69a6.25,6.25,0,0,0,6.18,0l27.15-15.69a2.45,2.45,0,0,0,0-4.21l-28.17-16.41A3.75,3.75,0,0,0,339.24,178.91Z"/><path class="cls-179" d="M315.05,183.41v12.2h0a2,2,0,0,0,1,1.74l22.29,13a5.09,5.09,0,0,0,5.09,0l22.51-13a2,2,0,0,0,1-1.74h0v-12.2a2,2,0,0,0-1-1.74l-23.31-13.58a3,3,0,0,0-3,0l-23.53,13.58a2,2,0,0,0-1,1.74Z"/><path class="cls-180" d="M339.6,168.09l-23.53,13.58a2,2,0,0,0,0,3.48l22.29,13a5.09,5.09,0,0,0,5.09,0l22.51-13a2,2,0,0,0,0-3.48l-23.31-13.58A3.23,3.23,0,0,0,339.6,168.09Z"/><path class="cls-181" d="M309.68,173.39v14.74h0a2.55,2.55,0,0,0,1.23,2.11l26.95,15.68a6.23,6.23,0,0,0,6.17,0l27.16-15.68a2.44,2.44,0,0,0,1.23-2.11h0V173.39a2.53,2.53,0,0,0-1.23-2.11L343,154.87a3.75,3.75,0,0,0-3.7,0l-28.4,16.41a2.46,2.46,0,0,0-1.23,2.11Z"/><path class="cls-182" d="M339.24,154.87l-28.4,16.41a2.46,2.46,0,0,0,0,4.22l26.94,15.68a6.25,6.25,0,0,0,6.18,0l27.15-15.68a2.46,2.46,0,0,0,0-4.22l-28.17-16.41A3.75,3.75,0,0,0,339.24,154.87Z"/><path class="cls-183" d="M340.11,164l-14.31,8.28a1.22,1.22,0,0,0,0,2.1l13.58,7.92a3,3,0,0,0,3.12,0l13.66-7.92a1.23,1.23,0,0,0,0-2.1L342,164A1.94,1.94,0,0,0,340.11,164Z"/><path class="cls-184" d="M325.22,104.33v68.91h0a1.2,1.2,0,0,0,.58,1.17l13.58,7.91a3,3,0,0,0,3.12,0l13.66-7.91a1.34,1.34,0,0,0,.58-1.17h0V104.33Z"/><path class="cls-185" d="M253.11,196.05v12.2h0a2,2,0,0,0,1,1.74l22.29,13a5.09,5.09,0,0,0,5.08,0L304,210a2,2,0,0,0,1-1.74h0v-12.2a2.05,2.05,0,0,0-1-1.75l-23.31-13.58a3.07,3.07,0,0,0-3,0L254.13,194.3a2,2,0,0,0-1,1.75Z"/><path class="cls-186" d="M277.58,180.72,254.06,194.3a2,2,0,0,0,0,3.49l22.29,13a5.09,5.09,0,0,0,5.08,0l22.51-13a2,2,0,0,0,0-3.49l-23.31-13.58A3.29,3.29,0,0,0,277.58,180.72Z"/><path class="cls-187" d="M247.66,186v14.74h0a2.52,2.52,0,0,0,1.24,2.1l26.94,15.69a6.23,6.23,0,0,0,6.17,0l27.16-15.69a2.42,2.42,0,0,0,1.24-2.1h0V186a2.54,2.54,0,0,0-1.24-2.11L281,167.51a3.72,3.72,0,0,0-3.71,0L248.9,183.92a2.45,2.45,0,0,0-1.24,2.11Z"/><path class="cls-188" d="M277.29,167.51,248.9,183.92a2.45,2.45,0,0,0,0,4.21l26.94,15.69a6.23,6.23,0,0,0,6.17,0l27.16-15.69a2.45,2.45,0,0,0,0-4.21L281,167.51A3.72,3.72,0,0,0,277.29,167.51Z"/><path class="cls-189" d="M253.11,172v12.2h0a2,2,0,0,0,1,1.74l22.29,13a5.07,5.07,0,0,0,5.08,0L304,186a2,2,0,0,0,1-1.74h0V172a2,2,0,0,0-1-1.74l-23.31-13.58a3,3,0,0,0-3,0l-23.53,13.58a2,2,0,0,0-1,1.74Z"/><path class="cls-190" d="M277.58,156.69l-23.52,13.58a2,2,0,0,0,0,3.48l22.29,13a5.07,5.07,0,0,0,5.08,0l22.51-13a2,2,0,0,0,0-3.48l-23.31-13.58A3.23,3.23,0,0,0,277.58,156.69Z"/><path class="cls-191" d="M247.66,162v14.74h0a2.54,2.54,0,0,0,1.24,2.11l26.94,15.68a6.23,6.23,0,0,0,6.17,0l27.16-15.68a2.45,2.45,0,0,0,1.24-2.11h0V162a2.54,2.54,0,0,0-1.24-2.11L281,143.47a3.77,3.77,0,0,0-3.71,0L248.9,159.88a2.45,2.45,0,0,0-1.24,2.11Z"/><path class="cls-192" d="M277.29,143.47,248.9,159.88a2.46,2.46,0,0,0,0,4.22l26.94,15.68a6.23,6.23,0,0,0,6.17,0l27.16-15.68a2.46,2.46,0,0,0,0-4.22L281,143.47A3.77,3.77,0,0,0,277.29,143.47Z"/><path class="cls-193" d="M278.16,152.62l-14.37,8.21a1.22,1.22,0,0,0,0,2.1l13.58,7.92a3,3,0,0,0,3.12,0l13.65-7.92a1.22,1.22,0,0,0,0-2.1L280,152.62A1.67,1.67,0,0,0,278.16,152.62Z"/><path class="cls-194" d="M263.28,92.93v68.91h0a1.16,1.16,0,0,0,.58,1.17l13.58,7.91a3,3,0,0,0,3.12,0L294.21,163a1.32,1.32,0,0,0,.58-1.17h0V92.93Z"/><path class="cls-195" d="M378.52,196.05v12.2h0a2,2,0,0,0,1,1.74l22.29,13a5.09,5.09,0,0,0,5.08,0l22.52-13a2,2,0,0,0,1-1.74h0v-12.2a2.05,2.05,0,0,0-1-1.75l-23.31-13.58a3.07,3.07,0,0,0-3.05,0L379.54,194.3a2,2,0,0,0-1,1.75Z"/><path class="cls-196" d="M403,180.72,379.47,194.3a2,2,0,0,0,0,3.49l22.29,13a5.09,5.09,0,0,0,5.08,0l22.51-13a2,2,0,0,0,0-3.49L406,180.72A3.29,3.29,0,0,0,403,180.72Z"/><path class="cls-197" d="M373.08,186v14.74h0a2.51,2.51,0,0,0,1.23,2.1l26.94,15.69a6.23,6.23,0,0,0,6.17,0l27.16-15.69a2.42,2.42,0,0,0,1.24-2.1h0V186a2.54,2.54,0,0,0-1.24-2.11l-28.17-16.41a3.72,3.72,0,0,0-3.71,0l-28.39,16.41a2.44,2.44,0,0,0-1.23,2.11Z"/><path class="cls-198" d="M402.7,167.51l-28.39,16.41a2.45,2.45,0,0,0,0,4.21l26.94,15.69a6.23,6.23,0,0,0,6.17,0l27.16-15.69a2.45,2.45,0,0,0,0-4.21l-28.17-16.41A3.72,3.72,0,0,0,402.7,167.51Z"/><path class="cls-199" d="M403.5,176.59l-14.3,8.27a1.23,1.23,0,0,0,0,2.11l13.58,7.91a3,3,0,0,0,3.12,0L419.55,187a1.23,1.23,0,0,0,0-2.11l-14.16-8.2A1.89,1.89,0,0,0,403.5,176.59Z"/><path class="cls-200" d="M388.69,117v68.91h0a1.17,1.17,0,0,0,.58,1.16L402.85,195a3,3,0,0,0,3.12,0L419.62,187a1.3,1.3,0,0,0,.58-1.16h0V117Z"/><path class="cls-201" d="M478.81,172.86,434.33,147v2.22l43.53,25.3a10.05,10.05,0,0,1,5,8.79,9.92,9.92,0,0,1-5.08,8.71l-123.16,71.1a27.09,27.09,0,0,1-13.36,3.55,26.45,26.45,0,0,1-13.44-3.63L205.62,192a10.11,10.11,0,0,1,.07-17.5l32.64-18.84v-2.33l-33.8,19.5a12.09,12.09,0,0,0,0,20.92l122.22,71a29.65,29.65,0,0,0,14.52,3.92,28.67,28.67,0,0,0,14.38-3.85l123.16-71.09a12.1,12.1,0,0,0,0-20.92Z"/><path class="cls-202" d="M478.81,149.86,434.33,124v2.22l43.53,25.3a10.05,10.05,0,0,1,5,8.79,9.92,9.92,0,0,1-5.08,8.71l-123.16,71.1a27.09,27.09,0,0,1-13.36,3.55,26.45,26.45,0,0,1-13.44-3.63L205.62,169a10.11,10.11,0,0,1,.07-17.5l32.64-18.84v-2.33l-33.8,19.5a12.09,12.09,0,0,0,0,20.92l122.22,71a29.65,29.65,0,0,0,14.52,3.92,28.67,28.67,0,0,0,14.38-3.85l123.16-71.09a12.1,12.1,0,0,0,0-20.92Z"/><path class="cls-203" d="M478.81,126.86,434.33,101v2.22l43.53,25.3a10.05,10.05,0,0,1,5,8.79,9.92,9.92,0,0,1-5.08,8.71l-123.16,71.1a27.09,27.09,0,0,1-13.36,3.55,26.45,26.45,0,0,1-13.44-3.63L205.62,146a10.11,10.11,0,0,1,.07-17.5l32.64-18.84v-2.33l-33.8,19.5a12.09,12.09,0,0,0,0,20.92l122.22,71a29.65,29.65,0,0,0,14.52,3.92,28.67,28.67,0,0,0,14.38-3.85l123.16-71.09a12.1,12.1,0,0,0,0-20.92Z"/></g></g></g></g></svg>