<svg xmlns="http://www.w3.org/2000/svg" xmlns:xlink="http://www.w3.org/1999/xlink" viewBox="0 0 720.67 723.19"><defs><style>.cls-1{fill:url(#linear-gradient);}.cls-2{isolation:isolate;}.cls-3{mask:url(#mask);}.cls-4{fill:#ff0058;}.cls-5{fill:url(#linear-gradient-2);}.cls-6{fill:red;}.cls-7{fill:#ffa9b0;opacity:0.2;}.cls-8{fill:url(#linear-gradient-3);}.cls-11,.cls-14,.cls-16,.cls-19,.cls-21,.cls-24,.cls-26,.cls-29,.cls-31,.cls-34,.cls-36,.cls-40,.cls-42,.cls-45,.cls-47,.cls-50,.cls-52,.cls-9{mix-blend-mode:color-dodge;}.cls-9{fill:url(#radial-gradient);}.cls-10{fill:url(#linear-gradient-4);}.cls-11{fill:url(#radial-gradient-2);}.cls-12{fill:url(#linear-gradient-5);}.cls-13{fill:url(#linear-gradient-6);}.cls-14{fill:url(#radial-gradient-3);}.cls-15{fill:url(#linear-gradient-7);}.cls-16{fill:url(#radial-gradient-4);}.cls-17{fill:url(#linear-gradient-8);}.cls-18{fill:url(#linear-gradient-9);}.cls-19{fill:url(#radial-gradient-5);}.cls-20{fill:url(#linear-gradient-10);}.cls-21{fill:url(#radial-gradient-6);}.cls-22{fill:url(#linear-gradient-11);}.cls-23{fill:url(#linear-gradient-12);}.cls-24{fill:url(#radial-gradient-7);}.cls-25{fill:url(#linear-gradient-13);}.cls-26{fill:url(#radial-gradient-8);}.cls-27{fill:url(#linear-gradient-14);}.cls-28{fill:url(#linear-gradient-15);}.cls-29{fill:url(#radial-gradient-9);}.cls-30{fill:url(#linear-gradient-16);}.cls-31{fill:url(#radial-gradient-10);}.cls-32{fill:url(#linear-gradient-17);}.cls-33{fill:url(#linear-gradient-18);}.cls-34{fill:url(#radial-gradient-11);}.cls-35{fill:url(#linear-gradient-19);}.cls-36{fill:url(#radial-gradient-12);}.cls-37{fill:#9b1943;}.cls-38{fill:url(#linear-gradient-20);}.cls-39{fill:url(#linear-gradient-21);}.cls-40{fill:url(#radial-gradient-13);}.cls-41{fill:url(#linear-gradient-22);}.cls-42{fill:url(#radial-gradient-14);}.cls-43{fill:url(#linear-gradient-23);}.cls-44{fill:url(#linear-gradient-24);}.cls-45{fill:url(#radial-gradient-15);}.cls-46{fill:url(#linear-gradient-25);}.cls-47{fill:url(#radial-gradient-16);}.cls-48{fill:url(#linear-gradient-26);}.cls-49{fill:url(#linear-gradient-27);}.cls-50{fill:url(#radial-gradient-17);}.cls-51{fill:url(#linear-gradient-28);}.cls-52{fill:url(#radial-gradient-18);}.cls-53{fill:url(#linear-gradient-29);}.cls-54{fill:url(#linear-gradient-30);}.cls-55{fill:url(#linear-gradient-31);}.cls-56{fill:url(#linear-gradient-32);}.cls-57{fill:url(#linear-gradient-33);}.cls-58{fill:url(#linear-gradient-34);}.cls-59{fill:url(#linear-gradient-35);}.cls-60{fill:url(#linear-gradient-36);}.cls-61{fill:#e6e6e6;opacity:0.4;}.cls-61,.cls-70{mix-blend-mode:multiply;}.cls-62{fill:url(#linear-gradient-37);}.cls-63{fill:#ff9b96;}.cls-64{fill:url(#linear-gradient-38);}.cls-65{fill:url(#linear-gradient-39);}.cls-66{fill:url(#linear-gradient-40);}.cls-67{fill:url(#linear-gradient-41);}.cls-68{fill:url(#linear-gradient-42);}.cls-69{fill:url(#linear-gradient-43);}.cls-70{opacity:0.15;}.cls-71{fill:url(#linear-gradient-44);}.cls-72{fill:url(#linear-gradient-45);}</style><linearGradient id="linear-gradient" x1="384.1" y1="663.99" x2="384.1" y2="82.96" gradientUnits="userSpaceOnUse"><stop offset="0"/><stop offset="1" stop-color="#fff"/></linearGradient><mask id="mask" x="236.42" y="82.96" width="295.36" height="581.03" maskUnits="userSpaceOnUse"><rect class="cls-1" x="236.42" y="82.96" width="295.36" height="581.03"/></mask><linearGradient id="linear-gradient-2" x1="272.35" y1="608.14" x2="380.83" y2="608.14" gradientUnits="userSpaceOnUse"><stop offset="0" stop-color="#ffb39c"/><stop offset="1" stop-color="#ff0058"/></linearGradient><linearGradient id="linear-gradient-3" x1="-1899.95" y1="586.88" x2="-1667.27" y2="517.21" gradientTransform="matrix(-1, 0, 0, 1, -1551.56, 0)" gradientUnits="userSpaceOnUse"><stop offset="0.04" stop-color="#ff3f71"/><stop offset="0.23" stop-color="#ff4e7b"/><stop offset="0.59" stop-color="#ff7793"/><stop offset="1" stop-color="#ffaab3"/></linearGradient><radialGradient id="radial-gradient" cx="-1857.71" cy="601.02" r="44.6" gradientTransform="matrix(-1, 0, 0, 1, -1551.56, 0)" gradientUnits="userSpaceOnUse"><stop offset="0" stop-color="#fff"/><stop offset="1"/></radialGradient><linearGradient id="linear-gradient-4" x1="-2139.7" y1="615.08" x2="-1833.69" y2="546.48" xlink:href="#linear-gradient-3"/><radialGradient id="radial-gradient-2" cx="-1995.24" cy="586.28" r="52.75" xlink:href="#radial-gradient"/><linearGradient id="linear-gradient-5" x1="269.17" y1="560.98" x2="380.72" y2="560.98" xlink:href="#linear-gradient-2"/><linearGradient id="linear-gradient-6" x1="-1898.92" y1="539.12" x2="-1659.66" y2="467.48" xlink:href="#linear-gradient-3"/><radialGradient id="radial-gradient-3" cx="-1855.49" cy="553.66" r="45.86" xlink:href="#radial-gradient"/><linearGradient id="linear-gradient-7" x1="-2145.46" y1="568.12" x2="-1830.78" y2="497.58" xlink:href="#linear-gradient-3"/><radialGradient id="radial-gradient-4" cx="-1996.91" cy="538.5" r="54.24" xlink:href="#radial-gradient"/><linearGradient id="linear-gradient-8" x1="265.99" y1="513.82" x2="380.61" y2="513.82" xlink:href="#linear-gradient-2"/><linearGradient id="linear-gradient-9" x1="-1897.89" y1="491.36" x2="-1652.05" y2="417.75" xlink:href="#linear-gradient-3"/><radialGradient id="radial-gradient-5" cx="-1853.27" cy="506.3" r="47.12" xlink:href="#radial-gradient"/><linearGradient id="linear-gradient-10" x1="-2151.22" y1="521.16" x2="-1827.88" y2="448.68" xlink:href="#linear-gradient-3"/><radialGradient id="radial-gradient-6" cx="-1998.58" cy="490.73" r="55.74" xlink:href="#radial-gradient"/><linearGradient id="linear-gradient-11" x1="262.81" y1="466.67" x2="380.5" y2="466.67" xlink:href="#linear-gradient-2"/><linearGradient id="linear-gradient-12" x1="-1896.87" y1="443.6" x2="-1644.44" y2="368.02" xlink:href="#linear-gradient-3"/><radialGradient id="radial-gradient-7" cx="-1851.04" cy="458.95" r="48.38" xlink:href="#radial-gradient"/><linearGradient id="linear-gradient-13" x1="-2156.97" y1="474.2" x2="-1824.98" y2="399.78" xlink:href="#linear-gradient-3"/><radialGradient id="radial-gradient-8" cx="-2000.25" cy="442.95" r="57.23" xlink:href="#radial-gradient"/><linearGradient id="linear-gradient-14" x1="259.64" y1="419.51" x2="380.4" y2="419.51" xlink:href="#linear-gradient-2"/><linearGradient id="linear-gradient-15" x1="-1895.84" y1="395.84" x2="-1636.83" y2="318.29" xlink:href="#linear-gradient-3"/><radialGradient id="radial-gradient-9" cx="-1848.82" cy="411.59" r="49.65" xlink:href="#radial-gradient"/><linearGradient id="linear-gradient-16" x1="-2162.73" y1="427.24" x2="-1822.08" y2="350.87" xlink:href="#linear-gradient-3"/><radialGradient id="radial-gradient-10" cx="-2001.92" cy="395.17" r="58.72" xlink:href="#radial-gradient"/><linearGradient id="linear-gradient-17" x1="256.46" y1="372.35" x2="380.29" y2="372.35" xlink:href="#linear-gradient-2"/><linearGradient id="linear-gradient-18" x1="-1894.81" y1="348.08" x2="-1629.22" y2="268.56" xlink:href="#linear-gradient-3"/><radialGradient id="radial-gradient-11" cx="-1846.6" cy="364.23" r="50.91" xlink:href="#radial-gradient"/><linearGradient id="linear-gradient-19" x1="-2168.49" y1="380.28" x2="-1819.18" y2="301.97" xlink:href="#linear-gradient-3"/><radialGradient id="radial-gradient-12" cx="-2003.59" cy="347.4" r="60.21" xlink:href="#radial-gradient"/><linearGradient id="linear-gradient-20" x1="253.28" y1="325.19" x2="380.18" y2="325.19" xlink:href="#linear-gradient-2"/><linearGradient id="linear-gradient-21" x1="-1893.79" y1="300.33" x2="-1621.6" y2="218.82" xlink:href="#linear-gradient-3"/><radialGradient id="radial-gradient-13" cx="-1844.38" cy="316.87" r="52.17" xlink:href="#radial-gradient"/><linearGradient id="linear-gradient-22" x1="-2174.25" y1="333.32" x2="-1816.27" y2="253.07" xlink:href="#linear-gradient-3"/><radialGradient id="radial-gradient-14" cx="-2005.26" cy="299.62" r="61.71" xlink:href="#radial-gradient"/><linearGradient id="linear-gradient-23" x1="250.1" y1="278.03" x2="380.07" y2="278.03" xlink:href="#linear-gradient-2"/><linearGradient id="linear-gradient-24" x1="-1892.76" y1="252.57" x2="-1613.99" y2="169.09" xlink:href="#linear-gradient-3"/><radialGradient id="radial-gradient-15" cx="-1842.15" cy="269.51" r="53.43" xlink:href="#radial-gradient"/><linearGradient id="linear-gradient-25" x1="-2180.01" y1="286.36" x2="-1813.37" y2="204.17" xlink:href="#linear-gradient-3"/><radialGradient id="radial-gradient-16" cx="-2006.93" cy="251.85" r="63.2" xlink:href="#radial-gradient"/><linearGradient id="linear-gradient-26" x1="246.92" y1="230.88" x2="379.96" y2="230.88" xlink:href="#linear-gradient-2"/><linearGradient id="linear-gradient-27" x1="-1891.73" y1="204.81" x2="-1606.38" y2="119.36" xlink:href="#linear-gradient-3"/><radialGradient id="radial-gradient-17" cx="-1839.93" cy="222.15" r="54.69" xlink:href="#radial-gradient"/><linearGradient id="linear-gradient-28" x1="-2185.77" y1="239.39" x2="-1810.47" y2="155.27" xlink:href="#linear-gradient-3"/><radialGradient id="radial-gradient-18" cx="-2008.6" cy="204.07" r="64.69" xlink:href="#radial-gradient"/><linearGradient id="linear-gradient-29" x1="-1888.76" y1="187.84" x2="-1576.1" y2="94.22" gradientTransform="matrix(-1, 0, 0, 1, -1551.56, 0)" gradientUnits="userSpaceOnUse"><stop offset="0" stop-color="#ff0058"/><stop offset="1" stop-color="#ffb39c"/></linearGradient><linearGradient id="linear-gradient-30" x1="254.92" y1="176.73" x2="387.96" y2="176.73" xlink:href="#linear-gradient-2"/><linearGradient id="linear-gradient-31" x1="-2208.39" y1="225.75" x2="-1797.12" y2="133.55" xlink:href="#linear-gradient-29"/><linearGradient id="linear-gradient-32" x1="-1788.1" y1="-160.86" x2="-1947.45" y2="142.83" xlink:href="#linear-gradient-29"/><linearGradient id="linear-gradient-33" x1="7783.97" y1="724.07" x2="7677.16" y2="927.63" gradientTransform="matrix(1, 0, 0, -1, -7299.97, 1035.48)" xlink:href="#linear-gradient-29"/><linearGradient id="linear-gradient-34" x1="-2063.57" y1="126.66" x2="-1881.49" y2="67.32" xlink:href="#linear-gradient-29"/><linearGradient id="linear-gradient-35" x1="-1904.91" y1="102.82" x2="-1842.1" y2="75.36" xlink:href="#linear-gradient-29"/><linearGradient id="linear-gradient-36" x1="-1936.27" y1="93.06" x2="-1936.27" y2="150.78" gradientTransform="matrix(-1, 0, 0, 1, -1551.56, 0)" gradientUnits="userSpaceOnUse"><stop offset="0" stop-color="#ff0058"/><stop offset="0.23" stop-color="#ff2466"/><stop offset="0.73" stop-color="#ff7f88"/><stop offset="1" stop-color="#ffb39c"/></linearGradient><linearGradient id="linear-gradient-37" x1="275.88" y1="649.01" x2="225.34" y2="643.54" gradientTransform="matrix(-1, 0, 0, 1, 500.9, 0)" gradientUnits="userSpaceOnUse"><stop offset="0" stop-color="#07004b"/><stop offset="0.14" stop-color="#0a0654"/><stop offset="0.37" stop-color="#13156d"/><stop offset="0.66" stop-color="#222f96"/><stop offset="0.99" stop-color="#3651ce"/><stop offset="1" stop-color="#3652cf"/></linearGradient><linearGradient id="linear-gradient-38" x1="270.87" y1="394.26" x2="192" y2="359.72" gradientTransform="matrix(-1, 0, 0, 1, 500.9, 0)" gradientUnits="userSpaceOnUse"><stop offset="0" stop-color="#6dffe8"/><stop offset="1" stop-color="#3652cf"/></linearGradient><linearGradient id="linear-gradient-39" x1="294.01" y1="657.56" x2="214.73" y2="657.56" xlink:href="#linear-gradient-37"/><linearGradient id="linear-gradient-40" x1="238.35" y1="655.85" x2="238.35" y2="544.03" gradientUnits="userSpaceOnUse"><stop offset="0" stop-color="#3652cf"/><stop offset="0.2" stop-color="#3749c6"/><stop offset="0.52" stop-color="#3830af"/><stop offset="0.93" stop-color="#3b0789"/><stop offset="1" stop-color="#3b0082"/></linearGradient><linearGradient id="linear-gradient-41" x1="238.58" y1="653.73" x2="238.58" y2="506.67" gradientTransform="matrix(-1, 0, 0, 1, 500.9, 0)" xlink:href="#linear-gradient-40"/><linearGradient id="linear-gradient-42" x1="274.44" y1="327.73" x2="223.21" y2="327.73" gradientTransform="matrix(-1, 0, 0, 1, 500.9, 0)" gradientUnits="userSpaceOnUse"><stop offset="0" stop-color="#13002a"/><stop offset="0.22" stop-color="#2a0055"/><stop offset="0.51" stop-color="#4d0094"/><stop offset="0.62" stop-color="#4c0597"/><stop offset="0.76" stop-color="#4815a0"/><stop offset="0.91" stop-color="#412eae"/><stop offset="1" stop-color="#3c42b9"/></linearGradient><linearGradient id="linear-gradient-43" x1="252.91" y1="343.16" x2="252.91" y2="506.34" xlink:href="#linear-gradient-38"/><linearGradient id="linear-gradient-44" x1="228.21" y1="443.52" x2="228.21" y2="387.82" gradientTransform="matrix(-1, 0, 0, 1, 500.9, 0)" gradientUnits="userSpaceOnUse"><stop offset="0" stop-color="#7000aa"/><stop offset="0.2" stop-color="#6221b9"/><stop offset="0.63" stop-color="#3e74dd"/><stop offset="1" stop-color="#1dbfff"/></linearGradient><linearGradient id="linear-gradient-45" x1="196.89" y1="361.68" x2="196.89" y2="459.65" xlink:href="#linear-gradient-38"/></defs><title>Illustrator Worksheets</title><g class="cls-2"><g id="Tower_500" data-name="Tower 500"><g id="Tower_500-2" data-name="Tower 500"><g class="cls-3"><polygon class="cls-4" points="384.51 627.43 384.51 656.41 268.67 588.85 268.67 559.86 384.51 627.43"/><polygon class="cls-5" points="380.83 629.55 272.35 566.27 272.35 586.73 380.83 650 380.83 629.55"/><polygon class="cls-6" points="273.58 566.99 273.58 586.32 380.83 648.88 380.83 650 272.35 586.73 272.35 566.27 273.58 566.99"/><polygon class="cls-4" points="384.45 627.43 384.45 656.41 500.68 588.65 500.68 559.74 384.45 627.43"/><polygon class="cls-7" points="497 586.54 497 566.15 388.13 629.55 388.13 650 497 586.54"/><polygon class="cls-6" points="495.57 585.92 495.57 566.98 497 566.15 497 586.54 388.13 650 388.13 648.55 495.57 585.92"/><polygon class="cls-4" points="500.68 559.74 384.45 627.43 268.67 559.86 385.03 492.1 500.68 559.74"/><polygon class="cls-8" points="384.53 603.5 384.53 622.45 276.89 559.67 276.89 540.72 384.53 603.5"/><polygon class="cls-9" points="384.53 619.46 384.53 622.45 276.89 559.67 276.89 556.68 384.53 619.46"/><polygon class="cls-10" points="384.47 603.5 384.47 622.45 492.47 559.49 492.47 540.61 384.47 603.5"/><polygon class="cls-11" points="384.47 619.46 384.47 622.45 492.47 559.49 492.47 556.57 384.47 619.46"/><polygon class="cls-4" points="384.51 580.82 384.51 610.62 265.39 541.14 265.39 511.34 384.51 580.82"/><polygon class="cls-12" points="380.72 583 269.17 517.93 269.17 538.97 380.72 604.03 380.72 583"/><polygon class="cls-6" points="270.44 518.67 270.44 538.54 380.72 602.87 380.72 604.03 269.17 538.97 269.17 517.93 270.44 518.67"/><polygon class="cls-4" points="384.44 580.82 384.44 610.62 503.97 540.95 503.97 511.22 384.44 580.82"/><polygon class="cls-7" points="500.18 538.77 500.18 517.8 388.23 583 388.23 604.03 500.18 538.77"/><polygon class="cls-6" points="498.71 538.14 498.71 518.66 500.18 517.8 500.18 538.77 388.23 604.03 388.23 602.54 498.71 538.14"/><polygon class="cls-4" points="503.97 511.21 384.44 580.82 265.39 511.34 385.04 441.66 503.97 511.21"/><polygon class="cls-13" points="384.52 556.22 384.52 575.7 273.84 511.14 273.84 491.66 384.52 556.22"/><polygon class="cls-14" points="384.52 572.63 384.52 575.7 273.84 511.14 273.84 508.07 384.52 572.63"/><polygon class="cls-15" points="384.46 556.22 384.46 575.7 495.52 510.95 495.52 491.54 384.46 556.22"/><polygon class="cls-16" points="384.46 572.63 384.46 575.7 495.52 510.95 495.52 507.95 384.46 572.63"/><polygon class="cls-4" points="384.51 534.21 384.51 564.83 262.1 493.44 262.1 462.81 384.51 534.21"/><polygon class="cls-17" points="380.61 536.44 265.99 469.59 265.99 491.2 380.61 558.06 380.61 536.44"/><polygon class="cls-6" points="267.29 470.35 267.29 490.77 380.61 556.87 380.61 558.06 265.99 491.2 265.99 469.59 267.29 470.35"/><polygon class="cls-4" points="384.44 534.21 384.44 564.83 507.25 493.24 507.25 462.69 384.44 534.21"/><polygon class="cls-7" points="503.36 491 503.36 469.46 388.33 536.44 388.33 558.06 503.36 491"/><polygon class="cls-6" points="501.85 490.35 501.85 470.34 503.36 469.46 503.36 491 388.33 558.06 388.33 556.53 501.85 490.35"/><polygon class="cls-4" points="507.25 462.69 384.44 534.21 262.1 462.81 385.05 391.22 507.25 462.69"/><polygon class="cls-18" points="384.52 508.93 384.52 528.94 270.79 462.61 270.79 442.59 384.52 508.93"/><polygon class="cls-19" points="384.52 525.79 384.52 528.94 270.79 462.61 270.79 459.45 384.52 525.79"/><polygon class="cls-20" points="384.45 508.93 384.45 528.94 498.57 462.42 498.57 442.47 384.45 508.93"/><polygon class="cls-21" points="384.45 525.79 384.45 528.94 498.57 462.42 498.57 459.34 384.45 525.79"/><polygon class="cls-4" points="384.5 487.6 384.5 519.04 258.82 445.74 258.82 414.29 384.5 487.6"/><polygon class="cls-22" points="380.5 489.89 262.81 421.25 262.81 443.44 380.5 512.08 380.5 489.89"/><polygon class="cls-6" points="264.15 422.02 264.15 443 380.5 510.86 380.5 512.08 262.81 443.44 262.81 421.25 264.15 422.02"/><polygon class="cls-4" points="384.43 487.6 384.43 519.04 510.53 445.53 510.53 414.16 384.43 487.6"/><polygon class="cls-7" points="506.54 443.23 506.54 421.11 388.43 489.89 388.43 512.08 506.54 443.23"/><polygon class="cls-6" points="504.98 442.56 504.98 422.02 506.54 421.11 506.54 443.23 388.43 512.08 388.43 510.51 504.98 442.56"/><polygon class="cls-4" points="510.53 414.16 384.43 487.6 258.82 414.29 385.06 340.78 510.53 414.16"/><polygon class="cls-23" points="384.51 461.64 384.51 482.19 267.74 414.08 267.74 393.52 384.51 461.64"/><polygon class="cls-24" points="384.51 478.95 384.51 482.19 267.74 414.08 267.74 410.84 384.51 478.95"/><polygon class="cls-25" points="384.45 461.64 384.45 482.19 501.62 413.89 501.62 393.4 384.45 461.64"/><polygon class="cls-26" points="384.45 478.95 384.45 482.19 501.62 413.89 501.62 410.72 384.45 478.95"/><polygon class="cls-4" points="384.5 440.98 384.5 473.25 255.54 398.03 255.54 365.77 384.5 440.98"/><polygon class="cls-27" points="380.4 443.34 259.64 372.9 259.64 395.68 380.4 466.11 380.4 443.34"/><polygon class="cls-6" points="261 373.7 261 395.22 380.4 464.86 380.4 466.11 259.64 395.68 259.64 372.9 261 373.7"/><polygon class="cls-4" points="384.43 440.98 384.43 473.25 513.82 397.82 513.82 365.63 384.43 440.98"/><polygon class="cls-7" points="509.72 395.46 509.72 372.77 388.53 443.34 388.53 466.11 509.72 395.46"/><polygon class="cls-6" points="508.12 394.78 508.12 373.69 509.72 372.77 509.72 395.46 388.53 466.11 388.53 464.5 508.12 394.78"/><polygon class="cls-4" points="513.82 365.63 384.43 440.98 255.54 365.77 385.07 290.34 513.82 365.63"/><polygon class="cls-28" points="384.51 414.35 384.51 435.44 264.69 365.55 264.69 344.46 384.51 414.35"/><polygon class="cls-29" points="384.51 432.11 384.51 435.44 264.69 365.55 264.69 362.23 384.51 432.11"/><polygon class="cls-30" points="384.44 414.35 384.44 435.44 504.67 365.35 504.67 344.34 384.44 414.35"/><polygon class="cls-31" points="384.44 432.11 384.44 435.44 504.67 365.35 504.67 362.1 384.44 432.11"/><polygon class="cls-4" points="384.49 394.37 384.49 427.46 252.25 350.33 252.25 317.24 384.49 394.37"/><polygon class="cls-32" points="380.29 396.79 256.46 324.56 256.46 347.91 380.29 420.14 380.29 396.79"/><polygon class="cls-6" points="257.86 325.38 257.86 347.44 380.29 418.85 380.29 420.14 256.46 347.91 256.46 324.56 257.86 325.38"/><polygon class="cls-4" points="384.42 394.37 384.42 427.46 517.1 350.11 517.1 317.11 384.42 394.37"/><polygon class="cls-7" points="512.89 347.69 512.89 324.42 388.62 396.79 388.62 420.14 512.89 347.69"/><polygon class="cls-6" points="511.26 346.99 511.26 325.37 512.89 324.42 512.89 347.69 388.62 420.14 388.62 418.49 511.26 346.99"/><polygon class="cls-4" points="517.1 317.11 384.42 394.37 252.25 317.24 385.08 239.9 517.1 317.11"/><polygon class="cls-33" points="384.51 367.06 384.51 388.69 261.63 317.02 261.63 295.39 384.51 367.06"/><polygon class="cls-34" points="384.51 385.28 384.51 388.69 261.63 317.02 261.63 313.61 384.51 385.28"/><polygon class="cls-35" points="384.44 367.06 384.44 388.69 507.72 316.82 507.72 295.27 384.44 367.06"/><polygon class="cls-36" points="384.44 385.28 384.44 388.69 507.72 316.82 507.72 313.49 384.44 385.28"/><path class="cls-6" d="M289.6,357.3,275.19,349a4.89,4.89,0,0,1-2-3.91h0c0-1.5.91-2.19,2-1.54l14.41,8.32a4.9,4.9,0,0,1,2,3.91h0C291.65,357.26,290.73,358,289.6,357.3Z"/><path class="cls-37" d="M303.37,362.87c0,2.11-1.48,3-3.31,1.91a7.3,7.3,0,0,1-3.32-5.74c0-2.12,1.48-3,3.32-1.92A7.33,7.33,0,0,1,303.37,362.87Z"/><path class="cls-37" d="M321.78,373.63c0,1.51-1.06,2.12-2.37,1.36a5.22,5.22,0,0,1-2.36-4.09c0-1.5,1.06-2.12,2.36-1.36A5.2,5.2,0,0,1,321.78,373.63Z"/><path class="cls-6" d="M330.11,378.44c0,1.51-1.06,2.12-2.36,1.36a5.2,5.2,0,0,1-2.37-4.09c0-1.5,1.06-2.11,2.37-1.36A5.22,5.22,0,0,1,330.11,378.44Z"/><path class="cls-37" d="M338.44,383.25c0,1.51-1.06,2.12-2.36,1.36a5.19,5.19,0,0,1-2.36-4.09c0-1.5,1-2.11,2.36-1.36A5.22,5.22,0,0,1,338.44,383.25Z"/><path class="cls-6" d="M362,400.68l-4.85-2.8a3.13,3.13,0,0,1-1.31-2.51v-5.14c0-1,.58-1.41,1.31-1l4.85,2.81a3.11,3.11,0,0,1,1.31,2.5v5.14C363.29,400.66,362.71,401.1,362,400.68Z"/><polygon class="cls-4" points="384.49 347.76 384.49 381.67 248.97 302.62 248.97 268.72 384.49 347.76"/><polygon class="cls-38" points="380.18 350.24 253.28 276.22 253.28 300.15 380.18 374.16 380.18 350.24"/><polygon class="cls-6" points="254.72 277.06 254.72 299.67 380.18 372.85 380.18 374.16 253.28 300.15 253.28 276.22 254.72 277.06"/><polygon class="cls-4" points="384.41 347.76 384.41 381.67 520.38 302.4 520.38 268.58 384.41 347.76"/><polygon class="cls-7" points="516.07 299.92 516.07 276.07 388.72 350.24 388.72 374.17 516.07 299.92"/><polygon class="cls-6" points="514.4 299.21 514.4 277.05 516.07 276.07 516.07 299.92 388.72 374.17 388.72 372.47 514.4 299.21"/><polygon class="cls-4" points="520.38 268.58 384.41 347.76 248.97 268.72 385.09 189.45 520.38 268.58"/><polygon class="cls-39" points="384.5 319.77 384.5 341.93 258.58 268.49 258.58 246.33 384.5 319.77"/><polygon class="cls-40" points="384.5 338.44 384.5 341.93 258.58 268.49 258.58 265 384.5 338.44"/><polygon class="cls-41" points="384.43 319.77 384.43 341.93 510.77 268.28 510.77 246.2 384.43 319.77"/><polygon class="cls-42" points="384.43 338.44 384.43 341.93 510.77 268.28 510.77 264.87 384.43 338.44"/><polygon class="cls-4" points="384.48 301.15 384.48 335.87 245.69 254.92 245.69 220.2 384.48 301.15"/><polygon class="cls-43" points="380.07 303.68 250.1 227.88 250.1 252.38 380.07 328.19 380.07 303.68"/><polygon class="cls-6" points="251.57 228.74 251.57 251.89 380.07 326.84 380.07 328.19 250.1 252.38 250.1 227.88 251.57 228.74"/><polygon class="cls-4" points="384.41 301.15 384.41 335.87 523.66 254.69 523.66 220.05 384.41 301.15"/><polygon class="cls-7" points="519.25 252.16 519.25 227.73 388.82 303.69 388.82 328.19 519.25 252.16"/><polygon class="cls-6" points="517.54 251.42 517.54 228.73 519.25 227.73 519.25 252.16 388.82 328.19 388.82 326.46 517.54 251.42"/><polygon class="cls-4" points="523.66 220.05 384.41 301.15 245.69 220.2 385.1 139.01 523.66 220.05"/><polygon class="cls-44" points="384.5 272.48 384.5 295.18 255.53 219.96 255.53 197.26 384.5 272.48"/><polygon class="cls-45" points="384.5 291.6 384.5 295.18 255.53 219.96 255.53 216.38 384.5 291.6"/><polygon class="cls-46" points="384.43 272.48 384.43 295.18 513.82 219.75 513.82 197.13 384.43 272.48"/><polygon class="cls-47" points="384.43 291.6 384.43 295.18 513.82 219.75 513.82 216.25 384.43 291.6"/><polygon class="cls-4" points="384.48 254.54 384.48 290.08 242.41 207.22 242.41 171.67 384.48 254.54"/><polygon class="cls-48" points="379.96 257.13 246.92 179.54 246.92 204.62 379.96 282.22 379.96 257.13"/><polygon class="cls-6" points="248.43 180.41 248.43 204.12 379.96 280.84 379.96 282.22 246.92 204.62 246.92 179.54 248.43 180.41"/><polygon class="cls-4" points="384.4 254.54 384.4 290.08 526.95 206.98 526.95 171.53 384.4 254.54"/><polygon class="cls-7" points="522.43 204.39 522.43 179.38 388.92 257.13 388.92 282.22 522.43 204.39"/><polygon class="cls-6" points="520.67 203.63 520.67 180.41 522.43 179.38 522.43 204.39 388.92 282.22 388.92 280.44 520.67 203.63"/><polygon class="cls-4" points="526.95 171.53 384.4 254.54 242.41 171.67 385.11 88.57 526.95 171.53"/><polygon class="cls-49" points="384.49 225.19 384.49 248.43 252.48 171.43 252.48 148.2 384.49 225.19"/><polygon class="cls-50" points="384.49 244.76 384.49 248.43 252.48 171.43 252.48 167.77 384.49 244.76"/><polygon class="cls-51" points="384.42 225.19 384.42 248.43 516.87 171.21 516.87 148.06 384.42 225.19"/><polygon class="cls-52" points="384.42 244.76 384.42 248.43 516.87 171.21 516.87 167.63 384.42 244.76"/></g><polygon class="cls-53" points="384.48 204.39 384.48 239.93 242.41 157.07 242.41 121.52 384.48 204.39"/><polygon class="cls-54" points="387.96 202.98 254.92 125.39 254.92 150.47 387.96 228.07 387.96 202.98"/><polygon class="cls-6" points="254.92 128.83 254.92 150.47 381.35 224.36 381.32 232.84 246.92 154.47 246.67 124.01 254.92 128.83"/><polygon class="cls-55" points="384.4 204.39 384.4 239.93 526.95 156.83 526.95 121.38 384.4 204.39"/><polygon class="cls-7" points="522.43 154.24 522.43 129.23 388.92 206.98 388.92 232.07 522.43 154.24"/><polygon class="cls-6" points="520.67 153.48 520.67 130.26 522.43 129.23 522.43 154.24 388.92 232.07 388.92 230.29 520.67 153.48"/><polygon class="cls-56" points="526.95 121.38 384.4 204.39 242.41 121.52 385.11 38.42 526.95 121.38"/><polygon class="cls-57" points="288.94 122.46 384.66 66.72 480.5 121.91 384.67 177.71 288.94 122.46"/><polygon class="cls-58" points="384.61 83.19 384.61 66.75 384.66 66.72 480.5 121.91 466.26 130.19 384.61 83.19"/><polygon class="cls-59" points="384.66 83.19 303.15 130.66 288.94 122.46 384.66 66.72 384.66 83.19"/><polygon class="cls-60" points="434.4 130 385.05 158.74 335.03 129.96 384.43 101.19 434.4 130"/><path class="cls-61" d="M268.27,635.1l46,20.83a11.85,11.85,0,0,1,0,21.6h0a82.12,82.12,0,0,1-67.57-.07l-46-20.83a11.85,11.85,0,0,1,0-21.6h0A82.12,82.12,0,0,1,268.27,635.1Z"/><path class="cls-62" d="M223.4,637.87s6.07-.38,19.94,1.3c5.92.71,25.6,6,29.44,10.12,6.16,6.62-49.39,13.5-49.44,5.85C223.26,643.73,223.4,637.87,223.4,637.87Z"/><path class="cls-63" d="M249.14,615.5v24.79c.24,1.78-11.32,3.79-25.83,2.41l-1.22-29.51Z"/><path class="cls-63" d="M297.46,388s8.92-4.91,10.45-5.74,7.7-3.48,8.65-6.13c.6-1.66-1.23-.7-3.46-.08-5.14,1.44,7.25-15.82,2.31-17.95-2.4-1-8.37-2.55-14.54,16.34-1.58,4.82-8.17,5.53-9.44,7.36Z"/><path class="cls-64" d="M252.12,370.14c-4,22.17-7.88,28.76-7.88,28.76L297.15,370s12.69,9.91,8.77,22.28c0,0-65.6,43.35-84.29,31.24-10-6.46-4.33-39.28,3.3-53.82C238.6,343.61,255.45,351.52,252.12,370.14Z"/><polygon class="cls-63" points="260.57 343.35 260.57 364.47 244.63 357.93 249.02 341.55 260.57 343.35"/><path class="cls-63" d="M334.57,407.8c5.5-.28,8.74-3.79,8.77-7.41.06-6.83,3.42-10.08,3.46-8.57s-1,4.63-.62,3.89,4.93-17.15,14-12.45c2.67,1.37.08,13.86-5,21.28-5.28,7.68-9.61,3.95-12.85,10.85Z"/><path class="cls-65" d="M249.82,647.26s6.06-.38,19.94,1.3c5.91.71,25.59,6,29.44,10.12,6.16,6.62-49.39,13.5-49.45,5.85C249.68,653.12,249.82,647.26,249.82,647.26Z"/><path class="cls-63" d="M275.56,624.89v24.79c.24,1.78-11.33,3.79-25.83,2.41l-1.22-29.51Z"/><path class="cls-66" d="M218.24,469.33l2,163.17s24.72,6,38.2,0L253,474.71Z"/><path class="cls-67" d="M243.66,489.1l2.74,150.07c19.84,2.25,34.14-4.39,34.14-4.39-1.13-10.86-.06-138.13.37-147.54,0-1,.07-1.51.07-1.51Z"/><path class="cls-63" d="M269,330.89c-.89,9-5.66,18-14.88,15a16.34,16.34,0,0,1-11.65-17.66c.89-9,7.55-15.76,14.88-15S269.88,321.86,269,330.89Z"/><path class="cls-68" d="M246.06,345.46s2.6,3.4,8.05.47c0,0,4-5,4.56-7.78.47-2.27-2-5.88-.77-7.63,2.36-3.4,5.67-1.85,4.82,5.72,1.26-3.36,21.89-7.75,12.48-18.92C263,302.84,238,306.75,242.37,322.64,235.25,322.89,242,338,246.06,345.46Z"/><path class="cls-69" d="M278,367s13.43,99.82,13.43,134.49c-22.92,19.3-82.54,3.86-86.88-9.64,0,0,10.35-109.74,15.63-123.17C229.71,344.45,257.29,349.89,278,367Z"/><g class="cls-70"><path class="cls-71" d="M287,441.75a22.19,22.19,0,0,1-7.52-2.68,17.16,17.16,0,0,1-5.27-5.48,74.67,74.67,0,0,1-6.7-14.42c-1.89-5-3.45-10.19-5-15.38s-2.88-10.45-4.07-15.81a75.67,75.67,0,0,0,1.38,16.44,98.32,98.32,0,0,0,4.32,16c2,5.17,4.26,10.32,7.8,14.81a17.09,17.09,0,0,0,6.74,5.41A19.11,19.11,0,0,0,287,441.75Z"/></g><path class="cls-72" d="M284.37,378.46c6.65,34.8,8.17,32.38,14.5,34.08,5.09,1.37,41.82-17.64,41.82-17.64S353,407.23,349,419.59c0,0-52.7,31.56-71.39,19.45-10-6.45-17.78-35.11-19.2-51.06C255.44,354.22,280.81,359.88,284.37,378.46Z"/></g></g></g></svg>