<svg id="Layer_49" data-name="Layer 49" xmlns="http://www.w3.org/2000/svg" viewBox="0 0 100 100"><defs><style>.cls-1{fill:#89bde7;}.cls-2{fill:#4a79bc;}.cls-3{fill:#1a2b57;}.cls-4{fill:#194796;}</style></defs><title>Webfont Grid</title><path class="cls-1" d="M21.51,55a5.38,5.38,0,0,1,0-10.75H50.16V33.54H41.94a5.38,5.38,0,0,1-5.38-5.38v0a5.38,5.38,0,0,1,5.38-5.34h8.22V3h-43A7.17,7.17,0,0,0,0,10.19V67.25a7.16,7.16,0,0,0,7.16,7.16H42.93l7.23,6.27V55Z"/><path class="cls-2" d="M92.84,3H50.16V22.79H78.49a5.38,5.38,0,1,1,.6,10.75H50.16V44.2H78.49A5.38,5.38,0,1,1,79.09,55H50.16V80.68l17.75,15.4a3.57,3.57,0,0,0,5-.33,3.63,3.63,0,0,0,.89-2.37v-19h19A7.16,7.16,0,0,0,100,67.25V10.19A7.17,7.17,0,0,0,92.84,3Z"/><path class="cls-3" d="M78.49,33.54h.6a5.38,5.38,0,1,0-.6-10.75H50.16V33.54Z"/><path class="cls-4" d="M36.56,28.13v0a5.38,5.38,0,0,0,5.38,5.38h8.22V22.79H41.94A5.38,5.38,0,0,0,36.56,28.13Z"/><path class="cls-3" d="M78.49,55h.6a5.38,5.38,0,1,0-.6-10.75H50.16V55Z"/><path class="cls-4" d="M21.47,44.2a5.38,5.38,0,0,0,0,10.75H50.16V44.2H21.47Z"/></svg>