<svg xmlns="http://www.w3.org/2000/svg" xmlns:xlink="http://www.w3.org/1999/xlink" viewBox="0 0 720.67 723.19"><defs><style>.cls-1,.cls-38,.cls-40{isolation:isolate;}.cls-11,.cls-19,.cls-2{fill:none;stroke-linecap:round;}.cls-2{stroke-linejoin:round;stroke-width:4px;stroke:url(#linear-gradient);}.cls-3{fill:#6b99d1;opacity:0.15;mix-blend-mode:multiply;}.cls-4{fill:#dceeff;}.cls-5{fill:url(#linear-gradient-2);}.cls-6{fill:url(#linear-gradient-3);}.cls-7{fill:#fff;}.cls-8{fill:url(#linear-gradient-4);}.cls-9{fill:url(#linear-gradient-5);}.cls-10{fill:url(#linear-gradient-6);}.cls-11,.cls-19{stroke:#fff;stroke-miterlimit:10;}.cls-11{stroke-width:1.53px;}.cls-12{fill:url(#linear-gradient-7);}.cls-13{fill:url(#linear-gradient-8);}.cls-14{fill:url(#linear-gradient-9);}.cls-15{fill:url(#linear-gradient-10);}.cls-16{fill:#6cffe6;}.cls-17{fill:#41e5c9;}.cls-18{fill:#abffef;}.cls-20{fill:url(#Degradado_sin_nombre_54);}.cls-21{fill:url(#Degradado_sin_nombre_54-2);}.cls-22{fill:url(#Degradado_sin_nombre_54-3);}.cls-23{fill:url(#Degradado_sin_nombre_54-4);}.cls-24{fill:url(#Degradado_sin_nombre_54-5);}.cls-25{fill:url(#Degradado_sin_nombre_54-6);}.cls-26{fill:url(#Degradado_sin_nombre_54-7);}.cls-27{fill:url(#Degradado_sin_nombre_54-8);}.cls-28,.cls-35{opacity:0.8;}.cls-29{opacity:0.6;}.cls-30{opacity:0.4;}.cls-31{opacity:0.2;}.cls-32{opacity:0.05;}.cls-33{fill:#47eace;}.cls-34{fill:#3652cf;}.cls-35{fill:url(#linear-gradient-11);}.cls-36{fill:url(#linear-gradient-12);}.cls-37{fill:#394ba4;}.cls-38,.cls-40{opacity:0.85;}.cls-38{fill:url(#linear-gradient-13);}.cls-39{fill:url(#linear-gradient-14);}.cls-40{fill:url(#linear-gradient-15);}</style><linearGradient id="linear-gradient" x1="360.33" y1="410.86" x2="360.33" y2="680.6" gradientUnits="userSpaceOnUse"><stop offset="0" stop-color="#fff"/><stop offset="0.1" stop-color="#fbfffe"/><stop offset="0.21" stop-color="#effffd"/><stop offset="0.31" stop-color="#dbfff9"/><stop offset="0.42" stop-color="#bffff5"/><stop offset="0.52" stop-color="#9bffef"/><stop offset="0.62" stop-color="#70ffe8"/><stop offset="0.63" stop-color="#6dffe8"/><stop offset="0.66" stop-color="#6bfde6"/><stop offset="1" stop-color="#55ead3"/></linearGradient><linearGradient id="linear-gradient-2" x1="218.87" y1="580.34" x2="501.81" y2="580.34" gradientUnits="userSpaceOnUse"><stop offset="0" stop-color="#394ba4"/><stop offset="1" stop-color="#6dffe8"/></linearGradient><linearGradient id="linear-gradient-3" x1="218.87" y1="529.73" x2="501.8" y2="529.73" gradientUnits="userSpaceOnUse"><stop offset="0" stop-color="#6dffe8"/><stop offset="1" stop-color="#394ba4"/></linearGradient><linearGradient id="linear-gradient-4" x1="460.6" y1="530.37" x2="493.59" y2="530.37" gradientUnits="userSpaceOnUse"><stop offset="0" stop-color="#fff"/><stop offset="1" stop-color="#ccc"/></linearGradient><linearGradient id="linear-gradient-5" x1="227.08" y1="530.34" x2="258.59" y2="530.34" xlink:href="#linear-gradient-4"/><linearGradient id="linear-gradient-6" x1="325.36" y1="596.57" x2="395.78" y2="596.57" xlink:href="#linear-gradient-4"/><linearGradient id="linear-gradient-7" x1="258.06" y1="528.38" x2="461.63" y2="528.38" xlink:href="#linear-gradient-2"/><linearGradient id="linear-gradient-8" x1="258.06" y1="503.25" x2="461.63" y2="503.25" xlink:href="#linear-gradient-3"/><linearGradient id="linear-gradient-9" x1="275.55" y1="497.16" x2="444.14" y2="497.16" xlink:href="#linear-gradient-2"/><linearGradient id="linear-gradient-10" x1="275.55" y1="476.36" x2="444.14" y2="476.36" xlink:href="#linear-gradient-3"/><linearGradient id="Degradado_sin_nombre_54" x1="308.19" y1="483.9" x2="320" y2="483.9" gradientUnits="userSpaceOnUse"><stop offset="0" stop-color="#c8e2ff"/><stop offset="0.18" stop-color="#c2defc"/><stop offset="0.41" stop-color="#b2d1f4"/><stop offset="0.67" stop-color="#97bce7"/><stop offset="0.95" stop-color="#729fd5"/><stop offset="1" stop-color="#6b99d1"/></linearGradient><linearGradient id="Degradado_sin_nombre_54-2" x1="318.09" y1="489.64" x2="329.9" y2="489.64" xlink:href="#Degradado_sin_nombre_54"/><linearGradient id="Degradado_sin_nombre_54-3" x1="327.98" y1="495.38" x2="339.79" y2="495.38" xlink:href="#Degradado_sin_nombre_54"/><linearGradient id="Degradado_sin_nombre_54-4" x1="337.88" y1="501.12" x2="349.69" y2="501.12" xlink:href="#Degradado_sin_nombre_54"/><linearGradient id="Degradado_sin_nombre_54-5" x1="-1219.55" y1="483.9" x2="-1207.74" y2="483.9" gradientTransform="matrix(-1, 0, 0, 1, -808.5, 0)" xlink:href="#Degradado_sin_nombre_54"/><linearGradient id="Degradado_sin_nombre_54-6" x1="-1209.65" y1="489.64" x2="-1197.84" y2="489.64" gradientTransform="matrix(-1, 0, 0, 1, -808.5, 0)" xlink:href="#Degradado_sin_nombre_54"/><linearGradient id="Degradado_sin_nombre_54-7" x1="-1199.75" y1="495.38" x2="-1187.94" y2="495.38" gradientTransform="matrix(-1, 0, 0, 1, -808.5, 0)" xlink:href="#Degradado_sin_nombre_54"/><linearGradient id="Degradado_sin_nombre_54-8" x1="-1189.86" y1="501.12" x2="-1178.05" y2="501.12" gradientTransform="matrix(-1, 0, 0, 1, -808.5, 0)" xlink:href="#Degradado_sin_nombre_54"/><linearGradient id="linear-gradient-11" x1="359.84" y1="524.04" x2="359.84" y2="41.7" gradientUnits="userSpaceOnUse"><stop offset="0" stop-color="#fff200"/><stop offset="0" stop-color="#fef201" stop-opacity="0.99"/><stop offset="0.14" stop-color="#e6f428" stop-opacity="0.75"/><stop offset="0.26" stop-color="#d2f648" stop-opacity="0.56"/><stop offset="0.37" stop-color="#c4f75e" stop-opacity="0.42"/><stop offset="0.45" stop-color="#bbf86c" stop-opacity="0.33"/><stop offset="0.5" stop-color="#b8f871" stop-opacity="0.3"/><stop offset="1" stop-color="#6dffe8" stop-opacity="0"/></linearGradient><linearGradient id="linear-gradient-12" x1="-1068.86" y1="-8648.45" x2="-1150.61" y2="-8648.45" gradientTransform="matrix(1, 0, 0, -1, 1370.22, -8066.62)" xlink:href="#linear-gradient-2"/><linearGradient id="linear-gradient-13" x1="-3640.12" y1="-8638.32" x2="-3620.18" y2="-8672.85" gradientTransform="translate(-3353.73 -8066.62) rotate(180)" gradientUnits="userSpaceOnUse"><stop offset="0" stop-color="#fff200"/><stop offset="1" stop-color="#6dffe8" stop-opacity="0"/></linearGradient><linearGradient id="linear-gradient-14" x1="-3896.23" y1="-8650.47" x2="-3964.1" y2="-8650.47" gradientTransform="translate(-3478.9 -8066.62) rotate(180)" xlink:href="#linear-gradient-2"/><linearGradient id="linear-gradient-15" x1="-815.3" y1="-8642.07" x2="-798.74" y2="-8670.74" gradientTransform="matrix(1, 0, 0, -1, 1245.05, -8066.62)" xlink:href="#linear-gradient-13"/></defs><title>Illustrator Worksheets</title><g class="cls-1"><g id="Sign_in_Admin" data-name="Sign in Admin"><g id="Sign_in_Admin-2" data-name="Sign in Admin"><path class="cls-2" d="M586.51,551.52,370.4,676.19a22.26,22.26,0,0,1-20.15,0L134.18,551.54c-2.79-1.59-4.18-3.68-4.18-5.82a5.94,5.94,0,0,1,2.21-4.37,9.93,9.93,0,0,1,2-1.44L350.3,415.28c5.54-3.22,14.57-3.22,20.15,0L586.51,539.9C592.05,543.11,592.05,548.34,586.51,551.52Z"/><path class="cls-3" d="M499.24,566.55,366.51,643.12a13.66,13.66,0,0,1-12.37,0l-132.7-76.56c-1.71-1-2.57-2.26-2.57-3.57a3.64,3.64,0,0,1,1.36-2.69,5.81,5.81,0,0,1,1.21-.88l132.73-76.55a13.71,13.71,0,0,1,12.38,0l132.69,76.54C502.65,561.38,502.65,564.6,499.24,566.55Z"/><path class="cls-4" d="M499.24,555.63,366.51,632.18a12.47,12.47,0,0,1-6.18,1.48,12.67,12.67,0,0,1-6.17-1.46L221.44,555.64c-1.71-1-2.57-2.28-2.57-3.57s.86-2.59,2.57-3.57l18-10.37,114.74-66.2a13.71,13.71,0,0,1,12.38,0l132.69,76.56C502.65,550.44,502.65,553.66,499.24,555.63Z"/><path class="cls-5" d="M500.46,527l-19.21,11.09L360.33,607.86l-120.9-69.73L220.23,527a3.64,3.64,0,0,0-1.36,2.69v22.34c0,1.29.86,2.57,2.57,3.57L354.16,632.2a13.75,13.75,0,0,0,12.33,0l132.76-76.57c1.71-1,2.56-2.28,2.56-3.57V529.72A3.66,3.66,0,0,0,500.46,527Z"/><path class="cls-6" d="M499.24,533.29,366.51,609.86a13.75,13.75,0,0,1-12.37,0L221.44,533.3c-1.71-1-2.57-2.26-2.57-3.57a3.64,3.64,0,0,1,1.36-2.69,5.81,5.81,0,0,1,1.21-.88l132.73-76.55a13.64,13.64,0,0,1,12.38,0l132.69,76.54C502.65,528.12,502.65,531.33,499.24,533.29Z"/><path class="cls-7" d="M360.35,449.66a11.15,11.15,0,0,1,5.43,1.28l132.7,76.53c1.14.66,1.79,1.48,1.79,2.26s-.66,1.58-1.79,2.23L365.74,608.53a12.18,12.18,0,0,1-10.83,0L222.2,532c-1.16-.66-1.8-1.46-1.8-2.24a2.22,2.22,0,0,1,.87-1.57,5.29,5.29,0,0,1,.93-.68l132.74-76.55a11.12,11.12,0,0,1,5.41-1.27m0-1.53a12.56,12.56,0,0,0-6.18,1.48L221.44,526.16a5.81,5.81,0,0,0-1.21.88,3.64,3.64,0,0,0-1.36,2.69c0,1.31.86,2.59,2.57,3.57l132.7,76.56a13.75,13.75,0,0,0,12.37,0l132.73-76.57c3.41-2,3.41-5.17,0-7.14L366.55,449.61a12.69,12.69,0,0,0-6.2-1.48Z"/><path class="cls-8" d="M491.18,526.35l-26.81-15.46a1,1,0,0,0-1.4,1.3c5.54,11.91,4.8,24.59-2.23,36.29a1,1,0,0,0,1.36,1.38l29.08-16.78C494.39,531.24,494.39,528.21,491.18,526.35Z"/><path class="cls-9" d="M256.39,512.93a1,1,0,0,0-1.42-1.25L229.5,526.36a5.79,5.79,0,0,0-1.14.83,3.47,3.47,0,0,0-1.28,2.54c0,1.23.81,2.44,2.42,3.36L257.09,549a1,1,0,0,0,1.37-1.36C252,536.42,251.34,524.34,256.39,512.93Z"/><path class="cls-10" d="M326.56,586.84a1,1,0,0,0-.7,1.85l28.64,16.52a12.92,12.92,0,0,0,11.66,0l29.12-16.8a1,1,0,0,0-.7-1.85A182.4,182.4,0,0,1,326.56,586.84Z"/><path class="cls-11" d="M361.23,501.19l31.93-18.37a.55.55,0,0,0,0-1l-31.93-18.43a2,2,0,0,0-1.8,0l-31.87,18.43a.55.55,0,0,0,0,1l31.87,18.37A2,2,0,0,0,361.23,501.19Z"/><path class="cls-3" d="M287.87,504.27c-39.75,23-39.75,60.16,0,83.11s104.2,23,144,0,39.75-60.16,0-83.11S327.62,481.32,287.87,504.27Z"/><path class="cls-12" d="M448.6,499.69a76.49,76.49,0,0,0-16.78-12.87c-39.75-22.95-104.2-22.95-143.95,0a76.19,76.19,0,0,0-16.78,12.87h-13v28.69h0c0,15,9.93,30.07,29.81,41.55,39.75,23,104.2,23,144,0,19.87-11.48,29.81-26.52,29.81-41.55V499.69Z"/><path class="cls-13" d="M287.87,461.7c-39.75,22.95-39.75,60.16,0,83.11s104.2,23,144,0,39.75-60.16,0-83.11S327.62,438.75,287.87,461.7Z"/><path class="cls-7" d="M359.84,447.17c26.73,0,51.81,6,70.64,16.85,18.36,10.6,28.47,24.54,28.47,39.23s-10.11,28.64-28.47,39.24c-18.83,10.86-43.91,16.85-70.64,16.85s-51.81-6-70.63-16.85c-18.36-10.6-28.47-24.54-28.47-39.24s10.11-28.63,28.47-39.23c18.82-10.87,43.91-16.85,70.63-16.85m0-2.68c-26,0-52.1,5.73-72,17.21-39.75,22.95-39.75,60.16,0,83.11,19.88,11.47,45.92,17.21,72,17.21s52.1-5.74,72-17.21c39.75-22.95,39.75-60.16,0-83.11-19.88-11.48-45.93-17.21-72-17.21Z"/><path class="cls-14" d="M433.34,473.41a63.42,63.42,0,0,0-13.89-10.66c-32.92-19-86.29-19-119.21,0a63.11,63.11,0,0,0-13.89,10.66h-10.8v23.75h0c0,12.46,8.23,24.91,24.69,34.41,32.92,19,86.29,19,119.21,0,16.46-9.5,24.69-22,24.69-34.41V473.41Z"/><path class="cls-15" d="M300.24,442c-32.91,19-32.91,49.82,0,68.82s86.29,19,119.21,0,32.91-49.82,0-68.82S333.16,422.94,300.24,442Z"/><path class="cls-7" d="M359.84,430.38c22.06,0,42.75,4.93,58.27,13.89,15.05,8.69,23.34,20.09,23.34,32.09s-8.29,23.4-23.34,32.09c-15.52,9-36.21,13.89-58.27,13.89s-42.74-4.93-58.26-13.89c-15.05-8.69-23.34-20.09-23.34-32.09s8.29-23.4,23.34-32.09c15.52-9,36.21-13.89,58.26-13.89m0-2.68c-21.57,0-43.14,4.75-59.6,14.25-32.91,19-32.91,49.82,0,68.82,16.46,9.5,38,14.26,59.6,14.26s43.15-4.76,59.61-14.26c32.91-19,32.91-49.82,0-68.82-16.46-9.5-38-14.25-59.61-14.25Z"/><path class="cls-16" d="M359.62,460.7v48.21a7.09,7.09,0,0,0,3.42-.82l44.6-25.75a7.58,7.58,0,0,0,3.42-5.92V460.7Z"/><path class="cls-17" d="M308.18,460.7v15.72a7.55,7.55,0,0,0,3.42,5.92l44.6,25.75a7,7,0,0,0,3.42.82V460.7Z"/><path class="cls-18" d="M356.18,489.59,309.6,462.67c-1.89-1.09-1.89-2.86,0-3.95l46.6-26.9a7.54,7.54,0,0,1,6.83,0l46.61,26.9c1.89,1.09,1.89,2.86,0,3.95L363,489.59A7.56,7.56,0,0,1,356.18,489.59Z"/><path class="cls-19" d="M319.15,459.38l38.19-22.05a5,5,0,0,1,4.56,0l38.2,22.06c1.26.72,1.26,1.9,0,2.63l-38.22,22.05a5,5,0,0,1-4.56,0L319.15,462A1.39,1.39,0,0,1,319.15,459.38Z"/><path class="cls-19" d="M360.74,442.84,390.79,460a.69.69,0,0,1,0,1.31l-30.05,17.22a2.54,2.54,0,0,1-2.28,0l-29.8-17.21a.7.7,0,0,1,0-1.32l29.8-17.2A2.54,2.54,0,0,1,360.74,442.84Z"/><path class="cls-20" d="M320,477.66a3.59,3.59,0,0,0-1.61-2.81,1.13,1.13,0,0,0-1.16-.1h0l-6.6,3.81a5.4,5.4,0,0,0-2.44,4.22v9.07h0a1.16,1.16,0,0,0,.67.93,3.54,3.54,0,0,0,3.23,0,1.14,1.14,0,0,0,.67-.93v-8.92a.55.55,0,0,1,.29-.48l6.47-3.74h0A1.15,1.15,0,0,0,320,477.66Z"/><path class="cls-21" d="M329.9,483.39a3.59,3.59,0,0,0-1.62-2.8,1.13,1.13,0,0,0-1.16-.1h0l-6.59,3.81a5.37,5.37,0,0,0-2.44,4.22v9.07h0a1.14,1.14,0,0,0,.67.93,3.6,3.6,0,0,0,3.23,0,1.14,1.14,0,0,0,.67-.93v-8.92a.58.58,0,0,1,.28-.49l6.48-3.74h0A1.15,1.15,0,0,0,329.9,483.39Z"/><path class="cls-22" d="M339.79,489.13a3.58,3.58,0,0,0-1.61-2.8,1.13,1.13,0,0,0-1.16-.1h0l-6.6,3.81a5.4,5.4,0,0,0-2.44,4.22v9.06h0a1.16,1.16,0,0,0,.67.94,3.62,3.62,0,0,0,3.24,0,1.12,1.12,0,0,0,.66-.94v-8.91a.56.56,0,0,1,.29-.49l6.47-3.74h0A1.14,1.14,0,0,0,339.79,489.13Z"/><path class="cls-23" d="M349.69,494.87a3.59,3.59,0,0,0-1.62-2.8,1.11,1.11,0,0,0-1.15-.1h0l-6.59,3.81a5.4,5.4,0,0,0-2.44,4.22v9.06h0a1.14,1.14,0,0,0,.67.94,3.6,3.6,0,0,0,3.23,0,1.14,1.14,0,0,0,.67-.94v-8.91a.58.58,0,0,1,.28-.49l6.48-3.74h0A1.14,1.14,0,0,0,349.69,494.87Z"/><path class="cls-24" d="M399.23,477.66a3.6,3.6,0,0,1,1.62-2.81,1.13,1.13,0,0,1,1.16-.1h0l6.6,3.81a5.39,5.39,0,0,1,2.43,4.22v9.07h0a1.14,1.14,0,0,1-.67.93,3.54,3.54,0,0,1-3.23,0,1.14,1.14,0,0,1-.67-.93v-8.92a.56.56,0,0,0-.28-.48l-6.48-3.74h0A1.16,1.16,0,0,1,399.23,477.66Z"/><path class="cls-25" d="M389.34,483.39a3.58,3.58,0,0,1,1.61-2.8,1.13,1.13,0,0,1,1.16-.1h0l6.6,3.81a5.4,5.4,0,0,1,2.44,4.22v9.07h0a1.16,1.16,0,0,1-.67.93,3.6,3.6,0,0,1-3.23,0,1.14,1.14,0,0,1-.67-.93v-8.92a.56.56,0,0,0-.29-.49l-6.47-3.74h0A1.13,1.13,0,0,1,389.34,483.39Z"/><path class="cls-26" d="M379.44,489.13a3.59,3.59,0,0,1,1.62-2.8,1.13,1.13,0,0,1,1.16-.1h0l6.59,3.81a5.4,5.4,0,0,1,2.44,4.22v9.06h0a1.14,1.14,0,0,1-.67.94,3.6,3.6,0,0,1-3.23,0,1.14,1.14,0,0,1-.67-.94v-8.91a.58.58,0,0,0-.28-.49l-6.48-3.74h0A1.16,1.16,0,0,1,379.44,489.13Z"/><path class="cls-27" d="M369.55,494.87a3.58,3.58,0,0,1,1.61-2.8,1.13,1.13,0,0,1,1.16-.1h0l6.6,3.81a5.4,5.4,0,0,1,2.44,4.22v9.06h0a1.16,1.16,0,0,1-.67.94,3.62,3.62,0,0,1-3.24,0,1.14,1.14,0,0,1-.66-.94v-8.91a.56.56,0,0,0-.29-.49L370,495.92h0A1.14,1.14,0,0,1,369.55,494.87Z"/><g class="cls-28"><path class="cls-7" d="M359.84,416.38c22.06,0,42.75,4.93,58.27,13.89,15.05,8.69,23.34,20.09,23.34,32.09s-8.29,23.4-23.34,32.09c-15.52,9-36.21,13.89-58.27,13.89s-42.74-4.93-58.26-13.89c-15.05-8.69-23.34-20.09-23.34-32.09s8.29-23.4,23.34-32.09c15.52-9,36.21-13.89,58.26-13.89m0-2.68c-21.57,0-43.14,4.75-59.6,14.25-32.91,19-32.91,49.82,0,68.82,16.46,9.5,38,14.26,59.6,14.26s43.15-4.76,59.61-14.26c32.91-19,32.91-49.82,0-68.82-16.46-9.5-38-14.25-59.61-14.25Z"/></g><g class="cls-29"><path class="cls-7" d="M359.84,399.38c22.06,0,42.75,4.93,58.27,13.89,15.05,8.69,23.34,20.09,23.34,32.09s-8.29,23.4-23.34,32.09c-15.52,9-36.21,13.89-58.27,13.89s-42.74-4.93-58.26-13.89c-15.05-8.69-23.34-20.09-23.34-32.09s8.29-23.4,23.34-32.09c15.52-9,36.21-13.89,58.26-13.89m0-2.68c-21.57,0-43.14,4.75-59.6,14.25-32.91,19-32.91,49.82,0,68.82,16.46,9.5,38,14.26,59.6,14.26s43.15-4.76,59.61-14.26c32.91-19,32.91-49.82,0-68.82-16.46-9.5-38-14.25-59.61-14.25Z"/></g><g class="cls-30"><path class="cls-7" d="M359.84,383.38c22.06,0,42.75,4.93,58.27,13.89,15.05,8.69,23.34,20.09,23.34,32.09s-8.29,23.4-23.34,32.09c-15.52,9-36.21,13.89-58.27,13.89s-42.74-4.93-58.26-13.89c-15.05-8.69-23.34-20.09-23.34-32.09s8.29-23.4,23.34-32.09c15.52-9,36.21-13.89,58.26-13.89m0-2.68c-21.57,0-43.14,4.75-59.6,14.25-32.91,19-32.91,49.82,0,68.82,16.46,9.5,38,14.26,59.6,14.26s43.15-4.76,59.61-14.26c32.91-19,32.91-49.82,0-68.82-16.46-9.5-38-14.25-59.61-14.25Z"/></g><g class="cls-31"><path class="cls-7" d="M359.84,366.38c22.06,0,42.75,4.93,58.27,13.89,15.05,8.69,23.34,20.09,23.34,32.09s-8.29,23.4-23.34,32.09c-15.52,9-36.21,13.89-58.27,13.89s-42.74-4.93-58.26-13.89c-15.05-8.69-23.34-20.09-23.34-32.09s8.29-23.4,23.34-32.09c15.52-9,36.21-13.89,58.26-13.89m0-2.68c-21.57,0-43.14,4.75-59.6,14.25-32.91,19-32.91,49.82,0,68.82,16.46,9.5,38,14.26,59.6,14.26s43.15-4.76,59.61-14.26c32.91-19,32.91-49.82,0-68.82-16.46-9.5-38-14.25-59.61-14.25Z"/></g><g class="cls-32"><path class="cls-7" d="M359.84,348.38c22.06,0,42.75,4.93,58.27,13.89,15.05,8.69,23.34,20.09,23.34,32.09s-8.29,23.4-23.34,32.09c-15.52,9-36.21,13.89-58.27,13.89s-42.74-4.93-58.26-13.89c-15.05-8.69-23.34-20.09-23.34-32.09s8.29-23.4,23.34-32.09c15.52-9,36.21-13.89,58.26-13.89m0-2.68c-21.57,0-43.14,4.75-59.6,14.25-32.91,19-32.91,49.82,0,68.82,16.46,9.5,38,14.26,59.6,14.26s43.15-4.76,59.61-14.26c32.91-19,32.91-49.82,0-68.82-16.46-9.5-38-14.25-59.61-14.25Z"/></g><polygon class="cls-18" points="315.51 317.41 377 281.91 403.35 297.12 341.86 332.62 315.51 317.41"/><path class="cls-16" d="M315.51,387.74c0,6,4.19,13.23,9.36,16.22l7.62,4.4c5.18,3,13.56,3,18.73,0l42.71-24.66c5.17-3,9.37-10.24,9.37-16.21l.05-70.37-61.49,35.5-26.35-15.21Z"/><path class="cls-33" d="M324.87,404l3.82,2.2,3.8,2.2a19.21,19.21,0,0,0,9.37,2.24v-78l-26.35-15.21v70.33C315.51,393.71,319.7,401,324.87,404Z"/><path class="cls-34" d="M373.14,340.63c5.87-3.39,10.63-.64,10.63,6.14s-4.76,15-10.63,18.41-10.62.64-10.62-6.14S367.27,344,373.14,340.63Z"/><path class="cls-34" d="M369.63,374.8c0,2.86,1.57,4.26,3.51,3.13s3.51-4.36,3.51-7.22V342.79l-7,4Z"/><path class="cls-34" d="M335.65,313.82c-3.43,2-3.43,5.19,0,7.17a13.73,13.73,0,0,0,12.42,0c3.43-2,3.43-5.19,0-7.17A13.73,13.73,0,0,0,335.65,313.82Z"/><path class="cls-34" d="M370.79,293.53c-3.43,2-3.43,5.2,0,7.18a13.73,13.73,0,0,0,12.42,0c3.43-2,3.43-5.19,0-7.17A13.7,13.7,0,0,0,370.79,293.53Z"/><path class="cls-34" d="M333.08,282.58V317.4h17.56V283.15a2.18,2.18,0,0,1,1.08-1.87l14.87-8.58a1.08,1.08,0,0,1,1.63.93v23.49h17.56V261.94c0-11.33-8-16-17.84-10.3l-25.49,14.72C337.29,269.33,333.08,276.63,333.08,282.58Z"/><path class="cls-35" d="M275.54,476.35c0,12.44,8.26,24.91,24.69,34.41,32.94,19,86.31,19,119.22,0,16.43-9.5,24.69-22,24.69-34.41V44.6H275.55Z"/><path class="cls-36" d="M311.5,593.7a2.82,2.82,0,0,1,1.38,2.4v3.12c0,.87-.58,1.24-1.38.8l-52-30.06a3.17,3.17,0,0,1-1.38-2.4v-3.12c0-.87.58-1.24,1.38-.8l52,30.06"/><path class="cls-37" d="M312.88,596.1v.65L263.06,568a3.2,3.2,0,0,1-1.38-2.4V565L311.5,593.7A2.82,2.82,0,0,1,312.88,596.1Z"/><path class="cls-38" d="M234.45,591.38a3,3,0,0,0,1.38,2.4l52,30.06a1,1,0,0,0,1,.07h0l.08-.07.07-.07,23.53-23.6h0a1.24,1.24,0,0,0,.36-.87v-3.13a2.83,2.83,0,0,0-.44-1.45h0a3.81,3.81,0,0,0-.94-.94l-52-30.07a1,1,0,0,0-1.17,0h0l-23.6,23.68h0a1.16,1.16,0,0,0-.29.79Z"/><path class="cls-39" d="M408.89,593.71a2.32,2.32,0,0,0-1.14,2v2.59c0,.72.48,1,1.14.66l43.17-25a2.63,2.63,0,0,0,1.15-2v-2.59c0-.72-.48-1-1.15-.66l-43.17,25"/><path class="cls-37" d="M407.75,595.7v.54l41.36-23.87a2.65,2.65,0,0,0,1.14-2v-.55l-41.36,23.88A2.32,2.32,0,0,0,407.75,595.7Z"/><path class="cls-40" d="M472.86,591.78a2.47,2.47,0,0,1-1.14,2l-43.17,25a.87.87,0,0,1-.85.06h0l-.06-.06-.06-.06-19.53-19.6h0a1,1,0,0,1-.3-.72v-2.59a2.35,2.35,0,0,1,.36-1.21h0a3.21,3.21,0,0,1,.78-.78l43.17-25a.81.81,0,0,1,1,0h0l19.59,19.65h0a1,1,0,0,1,.24.67Z"/></g></g></g></svg>