<svg xmlns="http://www.w3.org/2000/svg" viewBox="0 0 100 100"><defs><style>.cls-1{fill:#2ab787;}.cls-2{fill:#4bbc91;}.cls-3{fill:#d1d7e3;}.cls-4{fill:#e0e4eb;}</style></defs><title>Webfont Grid</title><g id="Layer_47" data-name="Layer 47"><path class="cls-1" d="M96.36,50A46.41,46.41,0,0,1,50,96.35h0V3.65h0A46.41,46.41,0,0,1,96.36,50Z"/><path class="cls-2" d="M3.64,50A46.41,46.41,0,0,0,50,96.35h0V3.65h0A46.41,46.41,0,0,0,3.64,50Z"/><path class="cls-3" d="M50,93h0A43,43,0,0,0,50,7h0V0h0a50,50,0,0,1,50,50v.1a50,50,0,0,1-50,50h0Z"/><path class="cls-4" d="M50,93h0A43,43,0,0,1,50,7h0V0h0A50,50,0,0,0,0,50v.1a50,50,0,0,0,50,50h0Z"/><path class="cls-4" d="M39.42,59.41l-9.51-11a5.63,5.63,0,0,0-8.07-.5,5.94,5.94,0,0,0-.49,8.26L35.05,72a5.61,5.61,0,0,0,4.22,2h0a5.61,5.61,0,0,0,4.2-1.87L50,64.84V47.64Z"/><path class="cls-3" d="M76.07,27.5a5.64,5.64,0,0,0-8.09.34h0L50,47.64v17.2L76.38,35.79a6,6,0,0,0-.29-8.27Z"/></g></svg>