<svg xmlns="http://www.w3.org/2000/svg" viewBox="0 0 100 100"><defs><style>.cls-1{fill:#4a5b7a;}.cls-2{fill:#43526e;}.cls-3{fill:#fdbb34;}.cls-4{fill:#fede33;}</style></defs><title>Webfont Grid</title><g id="Layer_46" data-name="Layer 46"><path class="cls-1" d="M14.65,91.24A8.68,8.68,0,0,1,10.05,90a8.77,8.77,0,0,1-3-12L42.43,13.1A8.75,8.75,0,0,1,50,8.77V3a14.61,14.61,0,0,0-12.6,7.13L2.05,75A14.6,14.6,0,0,0,2,89.72a14.43,14.43,0,0,0,12.7,7.38H50V91.24Z"/><path class="cls-2" d="M97.91,75,62.58,10.12A14.65,14.65,0,0,0,50,3V8.77a8.75,8.75,0,0,1,7.55,4.33L92.88,77.94a8.76,8.76,0,0,1-7.55,13.3H50V97.1H85.33A14.65,14.65,0,0,0,97.91,75Z"/><path class="cls-3" d="M50.32,27.15a5.87,5.87,0,0,1,5.54,5.54V61.94a5.87,5.87,0,0,1-5.54,6.19H50v5.52a5.87,5.87,0,0,1,0,11.74v5.85H85.33a8.76,8.76,0,0,0,7.55-13.3L57.55,13.1A8.75,8.75,0,0,0,50,8.77V27.15Z"/><path class="cls-4" d="M45.56,10a8.7,8.7,0,0,0-3.13,3.13L7.1,77.94a8.77,8.77,0,0,0,3,12,8.68,8.68,0,0,0,4.6,1.26H50V85.39a5.87,5.87,0,1,1,0-11.74V68.13a5.87,5.87,0,0,1-5.86-5.55c0-.21,0-.42,0-.64V32.69A5.86,5.86,0,0,1,50,27.15V8.77A8.75,8.75,0,0,0,45.56,10Z"/><path class="cls-1" d="M44.13,79.52A5.87,5.87,0,0,0,50,85.39V73.65A5.87,5.87,0,0,0,44.13,79.52Z"/><path class="cls-2" d="M55.87,79.52A5.87,5.87,0,0,0,50,73.65V85.39A5.87,5.87,0,0,0,55.87,79.52Z"/><path class="cls-1" d="M44.14,32.69V61.94c0,.22,0,.43,0,.64A5.87,5.87,0,0,0,50,68.13v-41A5.86,5.86,0,0,0,44.14,32.69Z"/><path class="cls-2" d="M55.86,61.94V32.69a5.87,5.87,0,0,0-5.54-5.54H50v41h.32A5.87,5.87,0,0,0,55.86,61.94Z"/></g></svg>