<svg xmlns="http://www.w3.org/2000/svg" viewBox="0 0 100 100"><defs><style>.cls-1{fill:#f8b64d;}.cls-2{fill:#fff;}</style></defs><title>status-unstable</title><g id="Layer_50" data-name="Layer 50"><circle class="cls-1" cx="50" cy="50" r="50"/><path class="cls-2" d="M49.94,73.37a3.17,3.17,0,0,1-.61-.07,2.82,2.82,0,0,1-2.21-2.73l-.24-27.38-8.15,19.4a2.83,2.83,0,0,1-4.55.95l-6.56-6.25H18.38a2.83,2.83,0,0,1,0-5.65H28.74a2.81,2.81,0,0,1,2,.78l4.42,4.2L47,28.37a2.82,2.82,0,0,1,5.43,1.06l.25,28.93,7.72-16.07a2.79,2.79,0,0,1,2.28-1.59,2.82,2.82,0,0,1,2.54,1.14l6.65,9.09h9.77a2.83,2.83,0,0,1,0,5.65H70.42a2.86,2.86,0,0,1-2.28-1.16L63.43,49,52.49,71.76A2.83,2.83,0,0,1,49.94,73.37Z"/></g></svg>